G04*
G04 #@! TF.GenerationSoftware,Altium Limited,Altium Designer,23.8.1 (32)*
G04*
G04 Layer_Color=65535*
%FSLAX25Y25*%
%MOIN*%
G70*
G04*
G04 #@! TF.SameCoordinates,C7E29C90-252A-4D1B-ADA4-5BBD7A111965*
G04*
G04*
G04 #@! TF.FilePolarity,Positive*
G04*
G01*
G75*
%ADD10C,0.00500*%
%ADD11C,0.00787*%
%ADD12C,0.02000*%
%ADD13C,0.00197*%
%ADD14C,0.00600*%
%ADD15C,0.01000*%
D10*
X219402Y459000D02*
X219361Y459998D01*
X219241Y460989D01*
X219041Y461968D01*
X218763Y462927D01*
X218409Y463861D01*
X217981Y464763D01*
X217482Y465628D01*
X216914Y466450D01*
X216283Y467224D01*
X215591Y467944D01*
X214843Y468606D01*
X214045Y469206D01*
X213201Y469740D01*
X212316Y470204D01*
X211398Y470596D01*
X210450Y470912D01*
X209481Y471151D01*
X208495Y471311D01*
X207499Y471391D01*
X206501D01*
X205505Y471311D01*
X204519Y471151D01*
X203550Y470912D01*
X202602Y470596D01*
X201683Y470204D01*
X200799Y469740D01*
X199955Y469206D01*
X199157Y468606D01*
X198409Y467944D01*
X197717Y467224D01*
X197086Y466450D01*
X196518Y465628D01*
X196019Y464763D01*
X195591Y463861D01*
X195237Y462927D01*
X194959Y461968D01*
X194759Y460989D01*
X194639Y459998D01*
X194598Y459000D01*
X194639Y458002D01*
X194759Y457011D01*
X194959Y456032D01*
X195237Y455073D01*
X195591Y454139D01*
X196019Y453237D01*
X196518Y452372D01*
X197086Y451550D01*
X197717Y450776D01*
X198409Y450056D01*
X199157Y449394D01*
X199955Y448794D01*
X200799Y448260D01*
X201683Y447796D01*
X202602Y447404D01*
X203550Y447088D01*
X204519Y446849D01*
X205505Y446689D01*
X206501Y446608D01*
X207499D01*
X208495Y446689D01*
X209481Y446849D01*
X210450Y447088D01*
X211398Y447404D01*
X212316Y447796D01*
X213201Y448260D01*
X214045Y448794D01*
X214843Y449394D01*
X215591Y450056D01*
X216283Y450776D01*
X216914Y451550D01*
X217482Y452372D01*
X217981Y453237D01*
X218409Y454139D01*
X218763Y455073D01*
X219041Y456032D01*
X219241Y457011D01*
X219361Y458002D01*
X219402Y459000D01*
X394402Y366500D02*
X394361Y367498D01*
X394241Y368489D01*
X394041Y369468D01*
X393763Y370427D01*
X393409Y371361D01*
X392981Y372263D01*
X392482Y373128D01*
X391914Y373950D01*
X391283Y374724D01*
X390591Y375444D01*
X389843Y376106D01*
X389045Y376706D01*
X388201Y377240D01*
X387316Y377704D01*
X386398Y378096D01*
X385450Y378412D01*
X384481Y378651D01*
X383495Y378811D01*
X382499Y378891D01*
X381501D01*
X380505Y378811D01*
X379519Y378651D01*
X378550Y378412D01*
X377602Y378096D01*
X376683Y377704D01*
X375799Y377240D01*
X374955Y376706D01*
X374157Y376106D01*
X373409Y375444D01*
X372717Y374724D01*
X372086Y373950D01*
X371518Y373128D01*
X371019Y372263D01*
X370591Y371361D01*
X370237Y370427D01*
X369959Y369468D01*
X369759Y368489D01*
X369639Y367498D01*
X369598Y366500D01*
X369639Y365502D01*
X369759Y364511D01*
X369959Y363532D01*
X370237Y362573D01*
X370591Y361639D01*
X371019Y360737D01*
X371518Y359872D01*
X372086Y359050D01*
X372717Y358276D01*
X373409Y357556D01*
X374157Y356894D01*
X374955Y356294D01*
X375799Y355760D01*
X376684Y355296D01*
X377602Y354904D01*
X378550Y354588D01*
X379519Y354349D01*
X380505Y354189D01*
X381501Y354109D01*
X382499D01*
X383495Y354189D01*
X384481Y354349D01*
X385450Y354588D01*
X386398Y354904D01*
X387316Y355296D01*
X388201Y355760D01*
X389045Y356294D01*
X389843Y356894D01*
X390591Y357556D01*
X391283Y358276D01*
X391914Y359050D01*
X392482Y359872D01*
X392981Y360737D01*
X393409Y361639D01*
X393763Y362573D01*
X394041Y363532D01*
X394241Y364511D01*
X394361Y365502D01*
X394402Y366500D01*
X168402Y244921D02*
X168361Y245919D01*
X168241Y246911D01*
X168041Y247889D01*
X167763Y248848D01*
X167409Y249782D01*
X166981Y250685D01*
X166482Y251550D01*
X165914Y252371D01*
X165283Y253145D01*
X164591Y253865D01*
X163843Y254528D01*
X163045Y255128D01*
X162201Y255661D01*
X161317Y256125D01*
X160398Y256517D01*
X159450Y256833D01*
X158481Y257072D01*
X157495Y257232D01*
X156499Y257313D01*
X155501D01*
X154505Y257232D01*
X153519Y257072D01*
X152550Y256833D01*
X151602Y256517D01*
X150683Y256125D01*
X149799Y255661D01*
X148955Y255128D01*
X148157Y254528D01*
X147409Y253865D01*
X146717Y253145D01*
X146086Y252371D01*
X145518Y251550D01*
X145019Y250684D01*
X144591Y249782D01*
X144237Y248848D01*
X143959Y247889D01*
X143759Y246911D01*
X143639Y245919D01*
X143598Y244921D01*
X143639Y243923D01*
X143759Y242932D01*
X143959Y241953D01*
X144237Y240994D01*
X144591Y240060D01*
X145019Y239158D01*
X145518Y238293D01*
X146086Y237471D01*
X146717Y236698D01*
X147409Y235977D01*
X148157Y235315D01*
X148955Y234715D01*
X149799Y234181D01*
X150683Y233717D01*
X151602Y233326D01*
X152550Y233009D01*
X153519Y232770D01*
X154505Y232610D01*
X155501Y232530D01*
X156499D01*
X157495Y232610D01*
X158481Y232770D01*
X159450Y233009D01*
X160398Y233326D01*
X161317Y233717D01*
X162201Y234181D01*
X163045Y234715D01*
X163843Y235315D01*
X164591Y235977D01*
X165283Y236698D01*
X165914Y237471D01*
X166482Y238293D01*
X166981Y239158D01*
X167409Y240060D01*
X167763Y240994D01*
X168041Y241953D01*
X168241Y242932D01*
X168361Y243923D01*
X168402Y244921D01*
X394402Y422000D02*
X394361Y422998D01*
X394241Y423989D01*
X394041Y424968D01*
X393763Y425927D01*
X393409Y426861D01*
X392981Y427763D01*
X392482Y428628D01*
X391914Y429450D01*
X391283Y430224D01*
X390591Y430944D01*
X389843Y431606D01*
X389045Y432206D01*
X388201Y432740D01*
X387316Y433204D01*
X386398Y433596D01*
X385450Y433912D01*
X384481Y434151D01*
X383495Y434311D01*
X382499Y434391D01*
X381501D01*
X380505Y434311D01*
X379519Y434151D01*
X378550Y433912D01*
X377602Y433596D01*
X376683Y433204D01*
X375799Y432740D01*
X374955Y432206D01*
X374157Y431606D01*
X373409Y430944D01*
X372717Y430224D01*
X372086Y429450D01*
X371518Y428628D01*
X371019Y427763D01*
X370591Y426861D01*
X370237Y425927D01*
X369959Y424968D01*
X369759Y423989D01*
X369639Y422998D01*
X369598Y422000D01*
X369639Y421002D01*
X369759Y420011D01*
X369959Y419032D01*
X370237Y418073D01*
X370591Y417139D01*
X371019Y416237D01*
X371518Y415372D01*
X372086Y414550D01*
X372717Y413776D01*
X373409Y413056D01*
X374157Y412394D01*
X374955Y411794D01*
X375799Y411260D01*
X376684Y410796D01*
X377602Y410404D01*
X378550Y410088D01*
X379519Y409849D01*
X380505Y409689D01*
X381501Y409609D01*
X382499D01*
X383495Y409689D01*
X384481Y409849D01*
X385450Y410088D01*
X386398Y410404D01*
X387316Y410796D01*
X388201Y411260D01*
X389045Y411794D01*
X389843Y412394D01*
X390591Y413056D01*
X391283Y413776D01*
X391914Y414550D01*
X392482Y415372D01*
X392981Y416237D01*
X393409Y417139D01*
X393763Y418073D01*
X394041Y419032D01*
X394241Y420011D01*
X394361Y421002D01*
X394402Y422000D01*
X219402Y521500D02*
X219361Y522498D01*
X219241Y523489D01*
X219041Y524468D01*
X218763Y525427D01*
X218409Y526361D01*
X217981Y527263D01*
X217482Y528128D01*
X216914Y528950D01*
X216283Y529724D01*
X215591Y530444D01*
X214843Y531106D01*
X214045Y531706D01*
X213201Y532240D01*
X212316Y532704D01*
X211398Y533096D01*
X210450Y533412D01*
X209481Y533651D01*
X208495Y533811D01*
X207499Y533891D01*
X206501D01*
X205505Y533811D01*
X204519Y533651D01*
X203550Y533412D01*
X202602Y533096D01*
X201683Y532704D01*
X200799Y532240D01*
X199955Y531706D01*
X199157Y531106D01*
X198409Y530444D01*
X197717Y529724D01*
X197086Y528950D01*
X196518Y528128D01*
X196019Y527263D01*
X195591Y526361D01*
X195237Y525427D01*
X194959Y524468D01*
X194759Y523489D01*
X194639Y522498D01*
X194598Y521500D01*
X194639Y520502D01*
X194759Y519511D01*
X194959Y518532D01*
X195237Y517573D01*
X195591Y516639D01*
X196019Y515737D01*
X196518Y514872D01*
X197086Y514050D01*
X197717Y513276D01*
X198409Y512556D01*
X199157Y511894D01*
X199955Y511294D01*
X200799Y510760D01*
X201683Y510296D01*
X202602Y509904D01*
X203550Y509588D01*
X204519Y509349D01*
X205505Y509189D01*
X206501Y509108D01*
X207499D01*
X208495Y509189D01*
X209481Y509349D01*
X210450Y509588D01*
X211398Y509904D01*
X212316Y510296D01*
X213201Y510760D01*
X214045Y511294D01*
X214843Y511894D01*
X215591Y512556D01*
X216283Y513276D01*
X216914Y514050D01*
X217482Y514872D01*
X217981Y515737D01*
X218409Y516639D01*
X218763Y517573D01*
X219041Y518532D01*
X219241Y519511D01*
X219361Y520502D01*
X219402Y521500D01*
X394902Y480500D02*
X394861Y481498D01*
X394741Y482489D01*
X394541Y483468D01*
X394263Y484427D01*
X393909Y485361D01*
X393481Y486263D01*
X392982Y487128D01*
X392414Y487950D01*
X391783Y488724D01*
X391091Y489444D01*
X390343Y490106D01*
X389545Y490706D01*
X388701Y491240D01*
X387817Y491704D01*
X386898Y492096D01*
X385950Y492412D01*
X384981Y492651D01*
X383995Y492811D01*
X382999Y492892D01*
X382001D01*
X381005Y492811D01*
X380019Y492651D01*
X379050Y492412D01*
X378102Y492096D01*
X377184Y491704D01*
X376299Y491240D01*
X375455Y490706D01*
X374657Y490106D01*
X373909Y489444D01*
X373217Y488724D01*
X372586Y487950D01*
X372018Y487128D01*
X371519Y486263D01*
X371091Y485361D01*
X370737Y484427D01*
X370459Y483468D01*
X370259Y482489D01*
X370139Y481498D01*
X370098Y480500D01*
X370139Y479502D01*
X370259Y478511D01*
X370459Y477532D01*
X370737Y476573D01*
X371091Y475639D01*
X371519Y474737D01*
X372018Y473872D01*
X372586Y473050D01*
X373217Y472276D01*
X373909Y471556D01*
X374657Y470894D01*
X375455Y470294D01*
X376299Y469760D01*
X377184Y469296D01*
X378102Y468904D01*
X379050Y468588D01*
X380019Y468349D01*
X381005Y468189D01*
X382001Y468109D01*
X382999D01*
X383995Y468189D01*
X384981Y468349D01*
X385950Y468588D01*
X386898Y468904D01*
X387817Y469296D01*
X388701Y469760D01*
X389545Y470294D01*
X390343Y470894D01*
X391091Y471556D01*
X391783Y472276D01*
X392414Y473050D01*
X392982Y473872D01*
X393481Y474737D01*
X393909Y475639D01*
X394263Y476573D01*
X394541Y477532D01*
X394741Y478511D01*
X394861Y479502D01*
X394902Y480500D01*
X191823Y388000D02*
X191783Y388998D01*
X191662Y389989D01*
X191463Y390968D01*
X191185Y391927D01*
X190830Y392861D01*
X190402Y393763D01*
X189903Y394628D01*
X189336Y395450D01*
X188704Y396224D01*
X188012Y396944D01*
X187265Y397606D01*
X186466Y398206D01*
X185622Y398740D01*
X184738Y399204D01*
X183819Y399596D01*
X182872Y399912D01*
X181902Y400151D01*
X180916Y400311D01*
X179921Y400391D01*
X178922D01*
X177926Y400311D01*
X176941Y400151D01*
X175971Y399912D01*
X175024Y399596D01*
X174105Y399204D01*
X173221Y398740D01*
X172376Y398206D01*
X171578Y397606D01*
X170830Y396944D01*
X170139Y396224D01*
X169507Y395450D01*
X168940Y394628D01*
X168440Y393763D01*
X168012Y392861D01*
X167658Y391927D01*
X167380Y390968D01*
X167180Y389989D01*
X167060Y388998D01*
X167020Y388000D01*
X167060Y387002D01*
X167180Y386011D01*
X167380Y385032D01*
X167658Y384073D01*
X168012Y383139D01*
X168440Y382237D01*
X168940Y381372D01*
X169507Y380550D01*
X170139Y379776D01*
X170830Y379056D01*
X171578Y378394D01*
X172376Y377794D01*
X173221Y377260D01*
X174105Y376796D01*
X175024Y376404D01*
X175971Y376088D01*
X176941Y375849D01*
X177926Y375689D01*
X178922Y375608D01*
X179921D01*
X180916Y375689D01*
X181902Y375849D01*
X182872Y376088D01*
X183819Y376404D01*
X184738Y376796D01*
X185622Y377260D01*
X186466Y377794D01*
X187265Y378394D01*
X188012Y379056D01*
X188704Y379776D01*
X189336Y380550D01*
X189903Y381372D01*
X190402Y382237D01*
X190831Y383139D01*
X191185Y384073D01*
X191463Y385032D01*
X191662Y386011D01*
X191783Y387002D01*
X191823Y388000D01*
X152902Y303500D02*
X152861Y304498D01*
X152741Y305489D01*
X152541Y306468D01*
X152263Y307427D01*
X151909Y308361D01*
X151481Y309263D01*
X150982Y310128D01*
X150414Y310950D01*
X149783Y311724D01*
X149091Y312444D01*
X148343Y313106D01*
X147545Y313706D01*
X146701Y314240D01*
X145817Y314704D01*
X144898Y315096D01*
X143950Y315412D01*
X142981Y315651D01*
X141995Y315811D01*
X140999Y315892D01*
X140001D01*
X139005Y315811D01*
X138019Y315651D01*
X137050Y315412D01*
X136102Y315096D01*
X135184Y314704D01*
X134299Y314240D01*
X133455Y313706D01*
X132657Y313106D01*
X131909Y312444D01*
X131217Y311724D01*
X130586Y310950D01*
X130018Y310128D01*
X129519Y309263D01*
X129091Y308361D01*
X128737Y307427D01*
X128459Y306468D01*
X128259Y305489D01*
X128139Y304498D01*
X128098Y303500D01*
X128139Y302502D01*
X128259Y301511D01*
X128459Y300532D01*
X128737Y299573D01*
X129091Y298639D01*
X129519Y297737D01*
X130018Y296872D01*
X130586Y296050D01*
X131217Y295276D01*
X131909Y294556D01*
X132657Y293894D01*
X133455Y293294D01*
X134299Y292760D01*
X135184Y292296D01*
X136102Y291904D01*
X137050Y291588D01*
X138019Y291349D01*
X139005Y291189D01*
X140001Y291108D01*
X140999D01*
X141995Y291189D01*
X142981Y291349D01*
X143950Y291588D01*
X144898Y291904D01*
X145817Y292296D01*
X146701Y292760D01*
X147545Y293294D01*
X148343Y293894D01*
X149091Y294556D01*
X149783Y295276D01*
X150414Y296050D01*
X150982Y296872D01*
X151481Y297737D01*
X151909Y298639D01*
X152263Y299573D01*
X152541Y300532D01*
X152741Y301511D01*
X152861Y302502D01*
X152902Y303500D01*
X192886Y362382D02*
Y367500D01*
Y372618D01*
X166114D02*
X192886D01*
X166114Y367500D02*
Y372618D01*
Y362382D02*
Y367500D01*
Y362382D02*
X192886D01*
Y367500D02*
X197532D01*
X161469D02*
X166114D01*
Y354000D02*
Y359118D01*
Y348882D02*
Y354000D01*
Y348882D02*
X192886D01*
Y354000D01*
Y359118D01*
X166114D02*
X192886D01*
X161469Y354000D02*
X166114D01*
X192886D02*
X197532D01*
X395386Y328882D02*
Y334000D01*
Y339118D01*
X368614D02*
X395386D01*
X368614Y334000D02*
Y339118D01*
Y328882D02*
Y334000D01*
Y328882D02*
X395386D01*
Y334000D02*
X400032D01*
X363969D02*
X368614D01*
Y346500D02*
Y351618D01*
Y341382D02*
Y346500D01*
Y341382D02*
X395386D01*
Y346500D01*
Y351618D01*
X368614D02*
X395386D01*
X363969Y346500D02*
X368614D01*
X395386D02*
X400032D01*
X163579Y436126D02*
Y451874D01*
X173421Y436126D02*
Y451874D01*
X163579D02*
X164976D01*
X163579Y436126D02*
X164976D01*
X172024Y451874D02*
X173421D01*
X172024Y436126D02*
X173421D01*
X110579Y436783D02*
Y452532D01*
X120421Y436783D02*
Y452532D01*
X110579D02*
X111976D01*
X110579Y436783D02*
X111976D01*
X119024Y452532D02*
X120421D01*
X119024Y436783D02*
X120421D01*
X300268Y240500D02*
Y245618D01*
Y235382D02*
Y240500D01*
Y235382D02*
X327039D01*
Y240500D01*
Y245618D01*
X300268D02*
X327039D01*
X295622Y240500D02*
X300268D01*
X327039D02*
X331685D01*
X300268Y264500D02*
Y269618D01*
Y259382D02*
Y264500D01*
Y259382D02*
X327039D01*
Y264500D01*
Y269618D01*
X300268D02*
X327039D01*
X295622Y264500D02*
X300268D01*
X327039D02*
X331685D01*
X424862Y441138D02*
X470138D01*
X424862D02*
Y470862D01*
X470138D01*
Y441138D02*
Y470862D01*
X440000Y514114D02*
Y521004D01*
Y488996D02*
Y495886D01*
X444675D02*
Y514114D01*
X440000Y495886D02*
X444675D01*
X435325D02*
X440000D01*
X435325D02*
Y514114D01*
X440000D01*
X444675D01*
X435500Y511000D02*
X444500D01*
X176500Y229496D02*
Y236386D01*
Y254614D02*
Y261504D01*
X171825Y236386D02*
Y254614D01*
X176500D01*
X181175D01*
Y236386D02*
Y254614D01*
X176500Y236386D02*
X181175D01*
X171825D02*
X176500D01*
X172000Y239500D02*
X181000D01*
X395886Y455382D02*
Y460500D01*
Y465618D01*
X369114D02*
X395886D01*
X369114Y460500D02*
Y465618D01*
Y455382D02*
Y460500D01*
Y455382D02*
X395886D01*
Y460500D02*
X400532D01*
X364469D02*
X369114D01*
X368614Y445000D02*
Y450118D01*
Y439882D02*
Y445000D01*
Y439882D02*
X395386D01*
Y445000D01*
Y450118D01*
X368614D02*
X395386D01*
X363969Y445000D02*
X368614D01*
X395386D02*
X400032D01*
X395386Y395382D02*
Y400500D01*
Y405618D01*
X368614D02*
X395386D01*
X368614Y400500D02*
Y405618D01*
Y395382D02*
Y400500D01*
Y395382D02*
X395386D01*
Y400500D02*
X400032D01*
X363969D02*
X368614D01*
X395386Y381382D02*
Y386500D01*
Y391618D01*
X368614D02*
X395386D01*
X368614Y386500D02*
Y391618D01*
Y381382D02*
Y386500D01*
Y381382D02*
X395386D01*
Y386500D02*
X400032D01*
X363969D02*
X368614D01*
X193614Y424000D02*
Y429118D01*
Y418882D02*
Y424000D01*
Y418882D02*
X220386D01*
Y424000D01*
Y429118D01*
X193614D02*
X220386D01*
X188969Y424000D02*
X193614D01*
X220386D02*
X225032D01*
X193614Y438000D02*
Y443118D01*
Y432882D02*
Y438000D01*
Y432882D02*
X220386D01*
Y438000D01*
Y443118D01*
X193614D02*
X220386D01*
X188969Y438000D02*
X193614D01*
X220386D02*
X225032D01*
X193614Y500500D02*
Y505618D01*
Y495382D02*
Y500500D01*
Y495382D02*
X220386D01*
Y500500D01*
Y505618D01*
X193614D02*
X220386D01*
X188969Y500500D02*
X193614D01*
X220386D02*
X225032D01*
X220386Y481382D02*
Y486500D01*
Y491618D01*
X193614D02*
X220386D01*
X193614Y486500D02*
Y491618D01*
Y481382D02*
Y486500D01*
Y481382D02*
X220386D01*
Y486500D02*
X225032D01*
X188969D02*
X193614D01*
X346921Y345579D02*
Y535343D01*
X237079Y345579D02*
Y535343D01*
Y345579D02*
X256567D01*
X327433D02*
X346921D01*
X327433Y321169D02*
Y345579D01*
X256567Y321169D02*
X327433D01*
X256567D02*
Y345579D01*
X308024Y535343D02*
X346921D01*
X308024D02*
Y538886D01*
X276016D02*
X308024D01*
X276016Y535343D02*
Y538886D01*
X237079Y535343D02*
X276016D01*
X426000Y488996D02*
Y495886D01*
Y514114D02*
Y521004D01*
X421325Y495886D02*
Y514114D01*
X426000D01*
X430675D01*
Y495886D02*
Y514114D01*
X426000Y495886D02*
X430675D01*
X421325D02*
X426000D01*
X421500Y499000D02*
X430500D01*
X412079Y445969D02*
Y461717D01*
X421921Y445969D02*
Y461717D01*
X412079D02*
X413476D01*
X412079Y445969D02*
X413476D01*
X420524Y461717D02*
X421921D01*
X420524Y445969D02*
X421921D01*
X474579Y448126D02*
Y463874D01*
X484421Y448126D02*
Y463874D01*
X474579D02*
X475976D01*
X474579Y448126D02*
X475976D01*
X483024Y463874D02*
X484421D01*
X483024Y448126D02*
X484421D01*
X107240Y320252D02*
X125744D01*
Y361748D01*
X107240D02*
X125744D01*
X107240Y320252D02*
Y361748D01*
X190500Y229496D02*
Y236386D01*
Y254614D02*
Y261504D01*
X185825Y236386D02*
Y254614D01*
X190500D01*
X195175D01*
Y236386D02*
Y254614D01*
X190500Y236386D02*
X195175D01*
X185825D02*
X190500D01*
X186000Y239500D02*
X195000D01*
X277287Y152894D02*
Y162106D01*
X315713Y152894D02*
Y162106D01*
X277287D02*
X315713D01*
X277287Y152894D02*
X315713D01*
X128614Y466500D02*
Y471618D01*
Y461382D02*
Y466500D01*
Y461382D02*
X155386D01*
Y466500D01*
Y471618D01*
X128614D02*
X155386D01*
X123969Y466500D02*
X128614D01*
X155386D02*
X160032D01*
D11*
X222748Y459000D02*
X221961D01*
X222748D01*
X367039Y366500D02*
X366252D01*
X367039D01*
X472500Y462988D02*
X471713D01*
X472500D01*
X440394Y532461D02*
X439606D01*
X440394D01*
X156394Y229567D02*
X155606D01*
X156394D01*
X176894Y218039D02*
X176106D01*
X176894D01*
X367039Y422000D02*
X366252D01*
X367039D01*
X222748Y521500D02*
X221961D01*
X222748D01*
X349756Y350028D02*
X348969D01*
X349756D01*
X376441Y166500D02*
X375654D01*
X376441D01*
X402189D02*
X401402D01*
X402189D01*
X426693D02*
X425906D01*
X426693D01*
X157693D02*
X156905D01*
X157693D01*
X133189D02*
X132402D01*
X133189D01*
X183441D02*
X182653D01*
X183441D01*
X367539Y480500D02*
X366752D01*
X367539D01*
X426394Y477539D02*
X425606D01*
X426394D01*
X128894Y331000D02*
X128106D01*
X128894D01*
X164461Y388000D02*
X163673D01*
X164461D01*
X125539Y303500D02*
X124752D01*
X125539D01*
X190894Y218039D02*
X190106D01*
X190894D01*
X282720Y268656D02*
X282088Y269473D01*
X281349Y270196D01*
X280518Y270809D01*
X279611Y271303D01*
X278644Y271667D01*
X277636Y271894D01*
X276606Y271980D01*
X275575Y271923D01*
X274561Y271725D01*
X273584Y271389D01*
X272663Y270921D01*
X271815Y270331D01*
X271056Y269630D01*
X270401Y268831D01*
Y260169D02*
X271056Y259370D01*
X271815Y258669D01*
X272663Y258079D01*
X273584Y257611D01*
X274561Y257275D01*
X275575Y257077D01*
X276606Y257020D01*
X277636Y257106D01*
X278644Y257333D01*
X279611Y257697D01*
X280518Y258191D01*
X281349Y258804D01*
X282088Y259527D01*
X282720Y260344D01*
Y244656D02*
X282088Y245473D01*
X281349Y246196D01*
X280518Y246809D01*
X279611Y247303D01*
X278644Y247667D01*
X277636Y247894D01*
X276606Y247980D01*
X275575Y247923D01*
X274561Y247725D01*
X273584Y247389D01*
X272663Y246921D01*
X271815Y246331D01*
X271056Y245630D01*
X270401Y244831D01*
Y236169D02*
X271056Y235370D01*
X271815Y234669D01*
X272663Y234079D01*
X273584Y233611D01*
X274561Y233275D01*
X275575Y233077D01*
X276606Y233020D01*
X277636Y233106D01*
X278644Y233333D01*
X279611Y233697D01*
X280518Y234191D01*
X281349Y234804D01*
X282088Y235527D01*
X282720Y236344D01*
X275122Y157500D02*
X274335D01*
X275122D01*
X135299Y434854D02*
X147701D01*
X135299D02*
Y454146D01*
X147701D01*
Y434854D02*
Y454146D01*
X379000Y150516D02*
X399000D01*
X379000D02*
Y160516D01*
X399000Y150516D02*
Y160516D01*
X379000D02*
X399000D01*
X404748Y150516D02*
X424748D01*
X404748D02*
Y160516D01*
X424748Y150516D02*
Y160516D01*
X404748D02*
X424748D01*
X429252Y150516D02*
X449252D01*
X429252D02*
Y160516D01*
X449252Y150516D02*
Y160516D01*
X429252D02*
X449252D01*
X160252Y150516D02*
X180252D01*
X160252D02*
Y160516D01*
X180252Y150516D02*
Y160516D01*
X160252D02*
X180252D01*
X135748Y150516D02*
X155748D01*
X135748D02*
Y160516D01*
X155748Y150516D02*
Y160516D01*
X135748D02*
X155748D01*
X186000Y150516D02*
X206000D01*
X186000D02*
Y160516D01*
X206000Y150516D02*
Y160516D01*
X186000D02*
X206000D01*
X265201Y264500D02*
X267169D01*
X266185Y263516D02*
Y265484D01*
X265201Y240500D02*
X267169D01*
X266185Y239516D02*
Y241484D01*
D12*
X457000Y198631D02*
X456649Y199595D01*
X455760Y200108D01*
X454750Y199930D01*
X454090Y199144D01*
Y198118D01*
X454750Y197332D01*
X455760Y197153D01*
X456649Y197667D01*
X457000Y198631D01*
Y354969D02*
X456649Y355933D01*
X455760Y356447D01*
X454750Y356268D01*
X454090Y355482D01*
Y354456D01*
X454750Y353670D01*
X455760Y353492D01*
X456649Y354005D01*
X457000Y354969D01*
D13*
X152687Y434657D02*
X151851Y435140D01*
Y434175D01*
X152687Y434657D01*
D14*
X453902Y319870D02*
X488949D01*
X453902Y359816D02*
X488949D01*
X453902Y319871D02*
Y359816D01*
X488949Y319871D02*
Y359816D01*
X488676Y205631D02*
Y266031D01*
X450276D02*
X488676D01*
X450276Y205631D02*
Y266031D01*
Y205631D02*
X488676D01*
X453902Y268618D02*
X488949D01*
X453902D02*
Y318315D01*
X488949Y268618D02*
Y318315D01*
X453902D02*
X488949D01*
X488676Y361969D02*
Y422369D01*
X450276D02*
X488676D01*
X450276Y361969D02*
Y422369D01*
Y361969D02*
X488676D01*
D15*
X404624Y187536D02*
X403312D01*
X403968D01*
Y184256D01*
X403312Y183600D01*
X402656D01*
X402000Y184256D01*
X405936Y183600D02*
X407248D01*
X406592D01*
Y187536D01*
X405936Y186880D01*
X409215Y183600D02*
X410527D01*
X409871D01*
Y187536D01*
X409215Y186880D01*
X185924Y187536D02*
X184612D01*
X185268D01*
Y184256D01*
X184612Y183600D01*
X183956D01*
X183300Y184256D01*
X187236Y183600D02*
X188548D01*
X187892D01*
Y187536D01*
X187236Y186880D01*
X190515D02*
X191172Y187536D01*
X192483D01*
X193139Y186880D01*
Y184256D01*
X192483Y183600D01*
X191172D01*
X190515Y184256D01*
Y186880D01*
X378924Y187536D02*
X377612D01*
X378268D01*
Y184256D01*
X377612Y183600D01*
X376956D01*
X376300Y184256D01*
X380236Y186880D02*
X380892Y187536D01*
X382204D01*
X382860Y186880D01*
Y186224D01*
X382204Y185568D01*
X382860Y184912D01*
Y184256D01*
X382204Y183600D01*
X380892D01*
X380236Y184256D01*
Y184912D01*
X380892Y185568D01*
X380236Y186224D01*
Y186880D01*
X380892Y185568D02*
X382204D01*
X135624Y187536D02*
X134312D01*
X134968D01*
Y184256D01*
X134312Y183600D01*
X133656D01*
X133000Y184256D01*
X136936Y187536D02*
X139560D01*
Y186880D01*
X136936Y184256D01*
Y183600D01*
X160124Y187536D02*
X158812D01*
X159468D01*
Y184256D01*
X158812Y183600D01*
X158156D01*
X157500Y184256D01*
X161436Y186880D02*
X162092Y187536D01*
X163404D01*
X164060Y186880D01*
Y186224D01*
X163404Y185568D01*
X162748D01*
X163404D01*
X164060Y184912D01*
Y184256D01*
X163404Y183600D01*
X162092D01*
X161436Y184256D01*
X429124Y187536D02*
X427812D01*
X428468D01*
Y184256D01*
X427812Y183600D01*
X427156D01*
X426500Y184256D01*
X433060Y183600D02*
X430436D01*
X433060Y186224D01*
Y186880D01*
X432404Y187536D01*
X431092D01*
X430436Y186880D01*
X138220Y432468D02*
Y429188D01*
X138876Y428532D01*
X140188D01*
X140844Y429188D01*
Y432468D01*
X142156D02*
X144780D01*
Y431812D01*
X142156Y429188D01*
Y428532D01*
X228494Y535928D02*
Y532649D01*
X229150Y531993D01*
X230462D01*
X231118Y532649D01*
Y535928D01*
X232430Y531993D02*
X233742D01*
X233086D01*
Y535928D01*
X232430Y535273D01*
X117900Y475700D02*
Y479636D01*
X119868D01*
X120524Y478980D01*
Y477668D01*
X119868Y477012D01*
X117900D01*
X119212D02*
X120524Y475700D01*
X123804D02*
Y479636D01*
X121836Y477668D01*
X124460D01*
X125771Y478980D02*
X126427Y479636D01*
X127739D01*
X128395Y478980D01*
Y478324D01*
X127739Y477668D01*
X128395Y477012D01*
Y476356D01*
X127739Y475700D01*
X126427D01*
X125771Y476356D01*
Y477012D01*
X126427Y477668D01*
X125771Y478324D01*
Y478980D01*
X126427Y477668D02*
X127739D01*
X288562Y269532D02*
Y273468D01*
X290530D01*
X291186Y272812D01*
Y271500D01*
X290530Y270844D01*
X288562D01*
X289874D02*
X291186Y269532D01*
X292498Y272812D02*
X293154Y273468D01*
X294465D01*
X295121Y272812D01*
Y272156D01*
X294465Y271500D01*
X293810D01*
X294465D01*
X295121Y270844D01*
Y270188D01*
X294465Y269532D01*
X293154D01*
X292498Y270188D01*
X296433Y269532D02*
X297745D01*
X297089D01*
Y273468D01*
X296433Y272812D01*
X287406Y231532D02*
Y235468D01*
X289374D01*
X290030Y234812D01*
Y233500D01*
X289374Y232844D01*
X287406D01*
X288718D02*
X290030Y231532D01*
X291342Y234812D02*
X291998Y235468D01*
X293309D01*
X293966Y234812D01*
Y234156D01*
X293309Y233500D01*
X292653D01*
X293309D01*
X293966Y232844D01*
Y232188D01*
X293309Y231532D01*
X291998D01*
X291342Y232188D01*
X295277Y234812D02*
X295933Y235468D01*
X297245D01*
X297901Y234812D01*
Y232188D01*
X297245Y231532D01*
X295933D01*
X295277Y232188D01*
Y234812D01*
X181080Y443032D02*
Y446968D01*
X183048D01*
X183704Y446312D01*
Y445000D01*
X183048Y444344D01*
X181080D01*
X182392D02*
X183704Y443032D01*
X185016D02*
X186328D01*
X185672D01*
Y446968D01*
X185016Y446312D01*
X190920Y443032D02*
X188296D01*
X190920Y445656D01*
Y446312D01*
X190264Y446968D01*
X188952D01*
X188296Y446312D01*
X357658Y405532D02*
Y409468D01*
X359625D01*
X360281Y408812D01*
Y407500D01*
X359625Y406844D01*
X357658D01*
X358969D02*
X360281Y405532D01*
X361593D02*
X362905D01*
X362249D01*
Y409468D01*
X361593Y408812D01*
X364873Y405532D02*
X366185D01*
X365529D01*
Y409468D01*
X364873Y408812D01*
X357080Y391032D02*
Y394968D01*
X359048D01*
X359704Y394312D01*
Y393000D01*
X359048Y392344D01*
X357080D01*
X358392D02*
X359704Y391032D01*
X361016D02*
X362328D01*
X361672D01*
Y394968D01*
X361016Y394312D01*
X364296D02*
X364952Y394968D01*
X366264D01*
X366920Y394312D01*
Y391688D01*
X366264Y391032D01*
X364952D01*
X364296Y391688D01*
Y394312D01*
X184720Y428532D02*
Y432468D01*
X186688D01*
X187344Y431812D01*
Y430500D01*
X186688Y429844D01*
X184720D01*
X186032D02*
X187344Y428532D01*
X188656Y429188D02*
X189312Y428532D01*
X190624D01*
X191280Y429188D01*
Y431812D01*
X190624Y432468D01*
X189312D01*
X188656Y431812D01*
Y431156D01*
X189312Y430500D01*
X191280D01*
X184720Y504532D02*
Y508468D01*
X186688D01*
X187344Y507812D01*
Y506500D01*
X186688Y505844D01*
X184720D01*
X186032D02*
X187344Y504532D01*
X188656Y507812D02*
X189312Y508468D01*
X190624D01*
X191280Y507812D01*
Y507156D01*
X190624Y506500D01*
X191280Y505844D01*
Y505188D01*
X190624Y504532D01*
X189312D01*
X188656Y505188D01*
Y505844D01*
X189312Y506500D01*
X188656Y507156D01*
Y507812D01*
X189312Y506500D02*
X190624D01*
X359720Y338032D02*
Y341968D01*
X361688D01*
X362344Y341312D01*
Y340000D01*
X361688Y339344D01*
X359720D01*
X361032D02*
X362344Y338032D01*
X363656Y341968D02*
X366280D01*
Y341312D01*
X363656Y338688D01*
Y338032D01*
X360220Y465032D02*
Y468968D01*
X362188D01*
X362844Y468312D01*
Y467000D01*
X362188Y466344D01*
X360220D01*
X361532D02*
X362844Y465032D01*
X366780Y468968D02*
X365468Y468312D01*
X364156Y467000D01*
Y465688D01*
X364812Y465032D01*
X366124D01*
X366780Y465688D01*
Y466344D01*
X366124Y467000D01*
X364156D01*
X184720Y490532D02*
Y494468D01*
X186688D01*
X187344Y493812D01*
Y492500D01*
X186688Y491844D01*
X184720D01*
X186032D02*
X187344Y490532D01*
X191280Y494468D02*
X188656D01*
Y492500D01*
X189968Y493156D01*
X190624D01*
X191280Y492500D01*
Y491188D01*
X190624Y490532D01*
X189312D01*
X188656Y491188D01*
X359220Y351032D02*
Y354968D01*
X361188D01*
X361844Y354312D01*
Y353000D01*
X361188Y352344D01*
X359220D01*
X360532D02*
X361844Y351032D01*
X365124D02*
Y354968D01*
X363156Y353000D01*
X365780D01*
X359720Y449532D02*
Y453468D01*
X361688D01*
X362344Y452812D01*
Y451500D01*
X361688Y450844D01*
X359720D01*
X361032D02*
X362344Y449532D01*
X363656Y452812D02*
X364312Y453468D01*
X365624D01*
X366280Y452812D01*
Y452156D01*
X365624Y451500D01*
X364968D01*
X365624D01*
X366280Y450844D01*
Y450188D01*
X365624Y449532D01*
X364312D01*
X363656Y450188D01*
X157220Y358532D02*
Y362468D01*
X159188D01*
X159844Y361812D01*
Y360500D01*
X159188Y359844D01*
X157220D01*
X158532D02*
X159844Y358532D01*
X163780D02*
X161156D01*
X163780Y361156D01*
Y361812D01*
X163124Y362468D01*
X161812D01*
X161156Y361812D01*
X158376Y372032D02*
Y375968D01*
X160344D01*
X161000Y375312D01*
Y374000D01*
X160344Y373344D01*
X158376D01*
X159688D02*
X161000Y372032D01*
X162312D02*
X163624D01*
X162968D01*
Y375968D01*
X162312Y375312D01*
X109824Y366456D02*
Y369080D01*
X109168Y369736D01*
X107856D01*
X107200Y369080D01*
Y366456D01*
X107856Y365800D01*
X109168D01*
X108512Y367112D02*
X109824Y365800D01*
X109168D02*
X109824Y366456D01*
X111136Y365800D02*
X112448D01*
X111792D01*
Y369736D01*
X111136Y369080D01*
X436408Y473020D02*
Y476956D01*
X438376D01*
X439032Y476300D01*
Y474988D01*
X438376Y474332D01*
X436408D01*
X442968Y476300D02*
X442312Y476956D01*
X441000D01*
X440344Y476300D01*
Y475644D01*
X441000Y474988D01*
X442312D01*
X442968Y474332D01*
Y473676D01*
X442312Y473020D01*
X441000D01*
X440344Y473676D01*
X444280Y473020D02*
X445592D01*
X444936D01*
Y476956D01*
X444280Y476300D01*
X448344Y315968D02*
X447032D01*
X447688D01*
Y312688D01*
X447032Y312032D01*
X446376D01*
X445720Y312688D01*
X449656D02*
X450312Y312032D01*
X451624D01*
X452280Y312688D01*
Y315312D01*
X451624Y315968D01*
X450312D01*
X449656Y315312D01*
Y314656D01*
X450312Y314000D01*
X452280D01*
X277524Y170136D02*
X276212D01*
X276868D01*
Y166856D01*
X276212Y166200D01*
X275556D01*
X274900Y166856D01*
X281460Y170136D02*
X280148Y169480D01*
X278836Y168168D01*
Y166856D01*
X279492Y166200D01*
X280804D01*
X281460Y166856D01*
Y167512D01*
X280804Y168168D01*
X278836D01*
X444344Y265909D02*
X443032D01*
X443688D01*
Y262629D01*
X443032Y261973D01*
X442376D01*
X441720Y262629D01*
X448280Y265909D02*
X445656D01*
Y263941D01*
X446968Y264597D01*
X447624D01*
X448280Y263941D01*
Y262629D01*
X447624Y261973D01*
X446312D01*
X445656Y262629D01*
X448344Y324968D02*
X447032D01*
X447688D01*
Y321688D01*
X447032Y321032D01*
X446376D01*
X445720Y321688D01*
X451624Y321032D02*
Y324968D01*
X449656Y323000D01*
X452280D01*
X449124Y430136D02*
X447812D01*
X448468D01*
Y426856D01*
X447812Y426200D01*
X447156D01*
X446500Y426856D01*
X450436Y426200D02*
X451748D01*
X451092D01*
Y430136D01*
X450436Y429480D01*
X265800Y280236D02*
Y276300D01*
X267768D01*
X268424Y276956D01*
Y279580D01*
X267768Y280236D01*
X265800D01*
X272360Y279580D02*
X271704Y280236D01*
X270392D01*
X269736Y279580D01*
Y278924D01*
X270392Y278268D01*
X271704D01*
X272360Y277612D01*
Y276956D01*
X271704Y276300D01*
X270392D01*
X269736Y276956D01*
X276295Y276300D02*
X273672D01*
X276295Y278924D01*
Y279580D01*
X275639Y280236D01*
X274327D01*
X273672Y279580D01*
X265800Y256236D02*
Y252300D01*
X267768D01*
X268424Y252956D01*
Y255580D01*
X267768Y256236D01*
X265800D01*
X272360Y255580D02*
X271704Y256236D01*
X270392D01*
X269736Y255580D01*
Y254924D01*
X270392Y254268D01*
X271704D01*
X272360Y253612D01*
Y252956D01*
X271704Y252300D01*
X270392D01*
X269736Y252956D01*
X273672Y252300D02*
X274983D01*
X274327D01*
Y256236D01*
X273672Y255580D01*
X443252Y535468D02*
Y531532D01*
X445220D01*
X445876Y532188D01*
Y534812D01*
X445220Y535468D01*
X443252D01*
X447188Y534812D02*
X447844Y535468D01*
X449156D01*
X449812Y534812D01*
Y534156D01*
X449156Y533500D01*
X448500D01*
X449156D01*
X449812Y532844D01*
Y532188D01*
X449156Y531532D01*
X447844D01*
X447188Y532188D01*
X451124D02*
X451780Y531532D01*
X453092D01*
X453748Y532188D01*
Y534812D01*
X453092Y535468D01*
X451780D01*
X451124Y534812D01*
Y534156D01*
X451780Y533500D01*
X453748D01*
X169468Y268780D02*
X165532D01*
Y266812D01*
X166188Y266156D01*
X168812D01*
X169468Y266812D01*
Y268780D01*
X168812Y264844D02*
X169468Y264188D01*
Y262876D01*
X168812Y262220D01*
X168156D01*
X167500Y262876D01*
Y263532D01*
Y262876D01*
X166844Y262220D01*
X166188D01*
X165532Y262876D01*
Y264188D01*
X166188Y264844D01*
X185700Y277036D02*
Y273100D01*
X187668D01*
X188324Y273756D01*
Y276380D01*
X187668Y277036D01*
X185700D01*
X192260Y273100D02*
X189636D01*
X192260Y275724D01*
Y276380D01*
X191604Y277036D01*
X190292D01*
X189636Y276380D01*
X421200Y536536D02*
Y532600D01*
X423168D01*
X423824Y533256D01*
Y535880D01*
X423168Y536536D01*
X421200D01*
X425136Y532600D02*
X426448D01*
X425792D01*
Y536536D01*
X425136Y535880D01*
X158188Y442376D02*
X157532Y441720D01*
Y440408D01*
X158188Y439752D01*
X160812D01*
X161468Y440408D01*
Y441720D01*
X160812Y442376D01*
X161468Y446312D02*
Y443688D01*
X158844Y446312D01*
X158188D01*
X157532Y445656D01*
Y444344D01*
X158188Y443688D01*
X157532Y447624D02*
Y450248D01*
X158188D01*
X160812Y447624D01*
X161468D01*
X104688Y440376D02*
X104032Y439720D01*
Y438408D01*
X104688Y437752D01*
X107312D01*
X107968Y438408D01*
Y439720D01*
X107312Y440376D01*
X107968Y444312D02*
Y441688D01*
X105344Y444312D01*
X104688D01*
X104032Y443656D01*
Y442344D01*
X104688Y441688D01*
X104032Y448248D02*
X104688Y446936D01*
X106000Y445624D01*
X107312D01*
X107968Y446280D01*
Y447592D01*
X107312Y448248D01*
X106656D01*
X106000Y447592D01*
Y445624D01*
X185204Y469312D02*
X184548Y469968D01*
X183236D01*
X182580Y469312D01*
Y466688D01*
X183236Y466032D01*
X184548D01*
X185204Y466688D01*
X186516Y466032D02*
X187828D01*
X187172D01*
Y469968D01*
X186516Y469312D01*
X189796D02*
X190452Y469968D01*
X191764D01*
X192420Y469312D01*
Y466688D01*
X191764Y466032D01*
X190452D01*
X189796Y466688D01*
Y469312D01*
X364265Y432312D02*
X363609Y432968D01*
X362297D01*
X361642Y432312D01*
Y429688D01*
X362297Y429032D01*
X363609D01*
X364265Y429688D01*
X365577D02*
X366233Y429032D01*
X367545D01*
X368201Y429688D01*
Y432312D01*
X367545Y432968D01*
X366233D01*
X365577Y432312D01*
Y431656D01*
X366233Y431000D01*
X368201D01*
X189423Y532812D02*
X188767Y533468D01*
X187455D01*
X186799Y532812D01*
Y530188D01*
X187455Y529532D01*
X188767D01*
X189423Y530188D01*
X190735Y532812D02*
X191391Y533468D01*
X192703D01*
X193359Y532812D01*
Y532156D01*
X192703Y531500D01*
X193359Y530844D01*
Y530188D01*
X192703Y529532D01*
X191391D01*
X190735Y530188D01*
Y530844D01*
X191391Y531500D01*
X190735Y532156D01*
Y532812D01*
X191391Y531500D02*
X192703D01*
X365844Y375812D02*
X365188Y376468D01*
X363876D01*
X363220Y375812D01*
Y373188D01*
X363876Y372532D01*
X365188D01*
X365844Y373188D01*
X367156Y376468D02*
X369780D01*
Y375812D01*
X367156Y373188D01*
Y372532D01*
X370024Y500280D02*
X369368Y500936D01*
X368056D01*
X367400Y500280D01*
Y497656D01*
X368056Y497000D01*
X369368D01*
X370024Y497656D01*
X373960Y500936D02*
X372648Y500280D01*
X371336Y498968D01*
Y497656D01*
X371992Y497000D01*
X373304D01*
X373960Y497656D01*
Y498312D01*
X373304Y498968D01*
X371336D01*
X139812Y242498D02*
X140468Y243154D01*
Y244466D01*
X139812Y245122D01*
X137188D01*
X136532Y244466D01*
Y243154D01*
X137188Y242498D01*
X140468Y238563D02*
Y241186D01*
X138500D01*
X139156Y239875D01*
Y239219D01*
X138500Y238563D01*
X137188D01*
X136532Y239219D01*
Y240531D01*
X137188Y241186D01*
X166924Y407780D02*
X166268Y408436D01*
X164956D01*
X164300Y407780D01*
Y405156D01*
X164956Y404500D01*
X166268D01*
X166924Y405156D01*
X170204Y404500D02*
Y408436D01*
X168236Y406468D01*
X170860D01*
X128024Y323280D02*
X127368Y323936D01*
X126056D01*
X125400Y323280D01*
Y320656D01*
X126056Y320000D01*
X127368D01*
X128024Y320656D01*
X129336Y323280D02*
X129992Y323936D01*
X131304D01*
X131960Y323280D01*
Y322624D01*
X131304Y321968D01*
X130648D01*
X131304D01*
X131960Y321312D01*
Y320656D01*
X131304Y320000D01*
X129992D01*
X129336Y320656D01*
X477124Y475480D02*
X476468Y476136D01*
X475156D01*
X474500Y475480D01*
Y472856D01*
X475156Y472200D01*
X476468D01*
X477124Y472856D01*
X481060Y472200D02*
X478436D01*
X481060Y474824D01*
Y475480D01*
X480404Y476136D01*
X479092D01*
X478436Y475480D01*
X414624Y473280D02*
X413968Y473936D01*
X412656D01*
X412000Y473280D01*
Y470656D01*
X412656Y470000D01*
X413968D01*
X414624Y470656D01*
X415936Y470000D02*
X417248D01*
X416592D01*
Y473936D01*
X415936Y473280D01*
M02*
