G04*
G04 #@! TF.GenerationSoftware,Altium Limited,Altium Designer,23.8.1 (32)*
G04*
G04 Layer_Color=2752767*
%FSLAX25Y25*%
%MOIN*%
G70*
G04*
G04 #@! TF.SameCoordinates,C7E29C90-252A-4D1B-ADA4-5BBD7A111965*
G04*
G04*
G04 #@! TF.FilePolarity,Positive*
G04*
G01*
G75*
%ADD10C,0.00500*%
%ADD66C,0.00667*%
%ADD67C,0.00400*%
D10*
X199154Y365500D02*
Y369500D01*
X203154D01*
Y365500D01*
X199154D01*
X155846D02*
Y369500D01*
X159846D01*
Y365500D01*
X155846D01*
Y352000D02*
Y356000D01*
X159846D01*
Y352000D01*
X155846D01*
X199154D02*
Y356000D01*
X203154D01*
Y352000D01*
X199154D01*
X401654Y332000D02*
Y336000D01*
X405654D01*
Y332000D01*
X401654D01*
X358346D02*
Y336000D01*
X362346D01*
Y332000D01*
X358346D01*
Y344500D02*
Y348500D01*
X362346D01*
Y344500D01*
X358346D01*
X401654D02*
Y348500D01*
X405654D01*
Y344500D01*
X401654D01*
X166500Y432157D02*
Y436157D01*
X170500D01*
Y432157D01*
X166500D01*
Y451843D02*
Y455843D01*
X170500D01*
Y451843D01*
X166500D01*
X113500Y432815D02*
Y436815D01*
X117500D01*
Y432815D01*
X113500D01*
Y452500D02*
Y456500D01*
X117500D01*
Y452500D01*
X113500D01*
X290000Y238500D02*
Y242500D01*
X294000D01*
Y238500D01*
X290000D01*
X333307D02*
Y242500D01*
X337307D01*
Y238500D01*
X333307D01*
X290000Y262500D02*
Y266500D01*
X294000D01*
Y262500D01*
X290000D01*
X333307D02*
Y266500D01*
X337307D01*
Y262500D01*
X333307D01*
X457500Y460988D02*
X458500Y461988D01*
X459500D01*
X458500Y462988D01*
X459500Y463988D01*
X458500D01*
X457500Y464988D01*
X456500Y463988D01*
X455500D01*
X456500Y462988D01*
X455500Y461988D01*
X456500D01*
X457500Y460988D01*
X447500D02*
X448500Y461988D01*
X449500D01*
X448500Y462988D01*
X449500Y463988D01*
X448500D01*
X447500Y464988D01*
X446500Y463988D01*
X445500D01*
X446500Y462988D01*
X445500Y461988D01*
X446500D01*
X447500Y460988D01*
X437500D02*
X438500Y461988D01*
X439500D01*
X438500Y462988D01*
X439500Y463988D01*
X438500D01*
X437500Y464988D01*
X436500Y463988D01*
X435500D01*
X436500Y462988D01*
X435500Y461988D01*
X436500D01*
X437500Y460988D01*
X438000Y523394D02*
X439000Y525394D01*
X438000Y527394D01*
X440000Y526394D01*
X442000Y527394D01*
X441000Y525394D01*
X442000Y523394D01*
X440000Y524394D01*
X438000Y523394D01*
Y482606D02*
X439000Y484606D01*
X438000Y486606D01*
X440000Y485606D01*
X442000Y486606D01*
X441000Y484606D01*
X442000Y482606D01*
X440000Y483606D01*
X438000Y482606D01*
X456500Y347686D02*
Y351686D01*
X460500D01*
Y347686D01*
X456500D01*
X457300Y348486D02*
Y350886D01*
X459700D01*
Y348486D01*
X457300D01*
X456500Y337843D02*
Y341843D01*
X460500D01*
Y337843D01*
X456500D01*
X457300Y338643D02*
Y341043D01*
X459700D01*
Y338643D01*
X457300D01*
X456500Y328000D02*
Y332000D01*
X460500D01*
Y328000D01*
X456500D01*
X457300Y328800D02*
Y331200D01*
X459700D01*
Y328800D01*
X457300D01*
X453500Y213161D02*
X454500D01*
X455500Y214161D01*
X456500Y213161D01*
X457500D01*
Y214161D01*
X456500Y215161D01*
X457500Y216161D01*
Y217161D01*
X456500D01*
X455500Y216161D01*
X454500Y217161D01*
X453500D01*
Y216161D01*
X454500Y215161D01*
X453500Y214161D01*
Y213161D01*
Y226941D02*
X454500D01*
X455500Y227941D01*
X456500Y226941D01*
X457500D01*
Y227941D01*
X456500Y228941D01*
X457500Y229941D01*
Y230941D01*
X456500D01*
X455500Y229941D01*
X454500Y230941D01*
X453500D01*
Y229941D01*
X454500Y228941D01*
X453500Y227941D01*
Y226941D01*
Y240720D02*
X454500D01*
X455500Y241720D01*
X456500Y240720D01*
X457500D01*
Y241720D01*
X456500Y242720D01*
X457500Y243720D01*
Y244720D01*
X456500D01*
X455500Y243720D01*
X454500Y244720D01*
X453500D01*
Y243720D01*
X454500Y242720D01*
X453500Y241720D01*
Y240720D01*
Y254500D02*
X454500D01*
X455500Y255500D01*
X456500Y254500D01*
X457500D01*
Y255500D01*
X456500Y256500D01*
X457500Y257500D01*
Y258500D01*
X456500D01*
X455500Y257500D01*
X454500Y258500D01*
X453500D01*
Y257500D01*
X454500Y256500D01*
X453500Y255500D01*
Y254500D01*
X456500Y306185D02*
Y310185D01*
X460500D01*
Y306185D01*
X456500D01*
X457300Y306985D02*
Y309385D01*
X459700D01*
Y306985D01*
X457300D01*
X456500Y296343D02*
Y300343D01*
X460500D01*
Y296343D01*
X456500D01*
X457300Y297143D02*
Y299543D01*
X459700D01*
Y297143D01*
X457300D01*
X456500Y286500D02*
Y290500D01*
X460500D01*
Y286500D01*
X456500D01*
X457300Y287300D02*
Y289700D01*
X459700D01*
Y287300D01*
X457300D01*
X456500Y276657D02*
Y280657D01*
X460500D01*
Y276657D01*
X456500D01*
X457300Y277457D02*
Y279857D01*
X459700D01*
Y277457D01*
X457300D01*
X174500Y223106D02*
X175500Y225106D01*
X174500Y227106D01*
X176500Y226106D01*
X178500Y227106D01*
X177500Y225106D01*
X178500Y223106D01*
X176500Y224106D01*
X174500Y223106D01*
Y263894D02*
X175500Y265894D01*
X174500Y267894D01*
X176500Y266894D01*
X178500Y267894D01*
X177500Y265894D01*
X178500Y263894D01*
X176500Y264894D01*
X174500Y263894D01*
X402154Y458500D02*
Y462500D01*
X406154D01*
Y458500D01*
X402154D01*
X358846D02*
Y462500D01*
X362846D01*
Y458500D01*
X358846D01*
X358346Y443000D02*
Y447000D01*
X362346D01*
Y443000D01*
X358346D01*
X401654D02*
Y447000D01*
X405654D01*
Y443000D01*
X401654D01*
Y398500D02*
Y402500D01*
X405654D01*
Y398500D01*
X401654D01*
X358346D02*
Y402500D01*
X362346D01*
Y398500D01*
X358346D01*
X401654Y384500D02*
Y388500D01*
X405654D01*
Y384500D01*
X401654D01*
X358346D02*
Y388500D01*
X362346D01*
Y384500D01*
X358346D01*
X183346Y422000D02*
Y426000D01*
X187346D01*
Y422000D01*
X183346D01*
X226654D02*
Y426000D01*
X230654D01*
Y422000D01*
X226654D01*
X183346Y436000D02*
Y440000D01*
X187346D01*
Y436000D01*
X183346D01*
X226654D02*
Y440000D01*
X230654D01*
Y436000D01*
X226654D01*
X183346Y498500D02*
Y502500D01*
X187346D01*
Y498500D01*
X183346D01*
X226654D02*
Y502500D01*
X230654D01*
Y498500D01*
X226654D01*
Y484500D02*
Y488500D01*
X230654D01*
Y484500D01*
X226654D01*
X183346D02*
Y488500D01*
X187346D01*
Y484500D01*
X183346D01*
X342000Y348500D02*
X340000Y352500D01*
X344000D01*
X342000Y348500D01*
Y358500D02*
X340000Y362500D01*
X344000D01*
X342000Y358500D01*
Y368500D02*
X340000Y372500D01*
X344000D01*
X342000Y368500D01*
Y378500D02*
X340000Y382500D01*
X344000D01*
X342000Y378500D01*
Y388500D02*
X340000Y392500D01*
X344000D01*
X342000Y388500D01*
Y398500D02*
X340000Y402500D01*
X344000D01*
X342000Y398500D01*
Y408500D02*
X340000Y412500D01*
X344000D01*
X342000Y408500D01*
Y418500D02*
X340000Y422500D01*
X344000D01*
X342000Y418500D01*
Y428500D02*
X340000Y432500D01*
X344000D01*
X342000Y428500D01*
Y438500D02*
X340000Y442500D01*
X344000D01*
X342000Y438500D01*
Y448500D02*
X340000Y452500D01*
X344000D01*
X342000Y448500D01*
Y458500D02*
X340000Y462500D01*
X344000D01*
X342000Y458500D01*
Y468500D02*
X340000Y472500D01*
X344000D01*
X342000Y468500D01*
Y478500D02*
X340000Y482500D01*
X344000D01*
X342000Y478500D01*
Y488500D02*
X340000Y492500D01*
X344000D01*
X342000Y488500D01*
Y498500D02*
X340000Y502500D01*
X344000D01*
X342000Y498500D01*
Y508500D02*
X340000Y512500D01*
X344000D01*
X342000Y508500D01*
Y518500D02*
X340000Y522500D01*
X344000D01*
X342000Y518500D01*
Y528500D02*
X340000Y532500D01*
X344000D01*
X342000Y528500D01*
X242000D02*
X240000Y532500D01*
X244000D01*
X242000Y528500D01*
Y518500D02*
X240000Y522500D01*
X244000D01*
X242000Y518500D01*
Y508500D02*
X240000Y512500D01*
X244000D01*
X242000Y508500D01*
Y498500D02*
X240000Y502500D01*
X244000D01*
X242000Y498500D01*
Y488500D02*
X240000Y492500D01*
X244000D01*
X242000Y488500D01*
Y478500D02*
X240000Y482500D01*
X244000D01*
X242000Y478500D01*
Y468500D02*
X240000Y472500D01*
X244000D01*
X242000Y468500D01*
Y458500D02*
X240000Y462500D01*
X244000D01*
X242000Y458500D01*
Y448500D02*
X240000Y452500D01*
X244000D01*
X242000Y448500D01*
Y438500D02*
X240000Y442500D01*
X244000D01*
X242000Y438500D01*
Y428500D02*
X240000Y432500D01*
X244000D01*
X242000Y428500D01*
Y418500D02*
X240000Y422500D01*
X244000D01*
X242000Y418500D01*
Y408500D02*
X240000Y412500D01*
X244000D01*
X242000Y408500D01*
Y398500D02*
X240000Y402500D01*
X244000D01*
X242000Y398500D01*
Y388500D02*
X240000Y392500D01*
X244000D01*
X242000Y388500D01*
Y378500D02*
X240000Y382500D01*
X244000D01*
X242000Y378500D01*
Y368500D02*
X240000Y372500D01*
X244000D01*
X242000Y368500D01*
Y358500D02*
X240000Y362500D01*
X244000D01*
X242000Y358500D01*
Y348500D02*
X240000Y352500D01*
X244000D01*
X242000Y348500D01*
X394000Y174500D02*
X392000Y178500D01*
X396000D01*
X394000Y174500D01*
Y164500D02*
X392000Y168500D01*
X396000D01*
X394000Y164500D01*
X384000Y174500D02*
X382000Y178500D01*
X386000D01*
X384000Y174500D01*
Y164500D02*
X382000Y168500D01*
X386000D01*
X384000Y164500D01*
X419748Y174500D02*
X417748Y178500D01*
X421748D01*
X419748Y174500D01*
Y164500D02*
X417748Y168500D01*
X421748D01*
X419748Y164500D01*
X409748Y174500D02*
X407748Y178500D01*
X411748D01*
X409748Y174500D01*
Y164500D02*
X407748Y168500D01*
X411748D01*
X409748Y164500D01*
X444252Y174500D02*
X442252Y178500D01*
X446252D01*
X444252Y174500D01*
Y164500D02*
X442252Y168500D01*
X446252D01*
X444252Y164500D01*
X434252Y174500D02*
X432252Y178500D01*
X436252D01*
X434252Y174500D01*
Y164500D02*
X432252Y168500D01*
X436252D01*
X434252Y164500D01*
X175252Y174500D02*
X173252Y178500D01*
X177252D01*
X175252Y174500D01*
Y164500D02*
X173252Y168500D01*
X177252D01*
X175252Y164500D01*
X165252Y174500D02*
X163252Y178500D01*
X167252D01*
X165252Y174500D01*
Y164500D02*
X163252Y168500D01*
X167252D01*
X165252Y164500D01*
X150748Y174500D02*
X148748Y178500D01*
X152748D01*
X150748Y174500D01*
Y164500D02*
X148748Y168500D01*
X152748D01*
X150748Y164500D01*
X140748Y174500D02*
X138748Y178500D01*
X142748D01*
X140748Y174500D01*
Y164500D02*
X138748Y168500D01*
X142748D01*
X140748Y164500D01*
X201000Y174500D02*
X199000Y178500D01*
X203000D01*
X201000Y174500D01*
Y164500D02*
X199000Y168500D01*
X203000D01*
X201000Y164500D01*
X191000Y174500D02*
X189000Y178500D01*
X193000D01*
X191000Y174500D01*
Y164500D02*
X189000Y168500D01*
X193000D01*
X191000Y164500D01*
X424000Y482606D02*
X425000Y484606D01*
X424000Y486606D01*
X426000Y485606D01*
X428000Y486606D01*
X427000Y484606D01*
X428000Y482606D01*
X426000Y483606D01*
X424000Y482606D01*
Y523394D02*
X425000Y525394D01*
X424000Y527394D01*
X426000Y526394D01*
X428000Y527394D01*
X427000Y525394D01*
X428000Y523394D01*
X426000Y524394D01*
X424000Y523394D01*
X415000Y442000D02*
Y446000D01*
X419000D01*
Y442000D01*
X415000D01*
Y461685D02*
Y465685D01*
X419000D01*
Y461685D01*
X415000D01*
X477500Y444157D02*
Y448157D01*
X481500D01*
Y444157D01*
X477500D01*
Y463843D02*
Y467843D01*
X481500D01*
Y463843D01*
X477500D01*
X117500Y330000D02*
Y329000D01*
X119500D01*
Y330000D01*
X120500D01*
Y332000D01*
X119500D01*
Y333000D01*
X117500D01*
Y332000D01*
X116500D01*
Y330000D01*
X117500D01*
Y340000D02*
Y339000D01*
X119500D01*
Y340000D01*
X120500D01*
Y342000D01*
X119500D01*
Y343000D01*
X117500D01*
Y342000D01*
X116500D01*
Y340000D01*
X117500D01*
Y350000D02*
Y349000D01*
X119500D01*
Y350000D01*
X120500D01*
Y352000D01*
X119500D01*
Y353000D01*
X117500D01*
Y352000D01*
X116500D01*
Y350000D01*
X117500D01*
X188500Y223106D02*
X189500Y225106D01*
X188500Y227106D01*
X190500Y226106D01*
X192500Y227106D01*
X191500Y225106D01*
X192500Y223106D01*
X190500Y224106D01*
X188500Y223106D01*
Y263894D02*
X189500Y265894D01*
X188500Y267894D01*
X190500Y266894D01*
X192500Y267894D01*
X191500Y265894D01*
X192500Y263894D01*
X190500Y264894D01*
X188500Y263894D01*
X453500Y369500D02*
X454500D01*
X455500Y370500D01*
X456500Y369500D01*
X457500D01*
Y370500D01*
X456500Y371500D01*
X457500Y372500D01*
Y373500D01*
X456500D01*
X455500Y372500D01*
X454500Y373500D01*
X453500D01*
Y372500D01*
X454500Y371500D01*
X453500Y370500D01*
Y369500D01*
Y383280D02*
X454500D01*
X455500Y384280D01*
X456500Y383280D01*
X457500D01*
Y384280D01*
X456500Y385280D01*
X457500Y386280D01*
Y387280D01*
X456500D01*
X455500Y386280D01*
X454500Y387280D01*
X453500D01*
Y386280D01*
X454500Y385280D01*
X453500Y384280D01*
Y383280D01*
Y397059D02*
X454500D01*
X455500Y398059D01*
X456500Y397059D01*
X457500D01*
Y398059D01*
X456500Y399059D01*
X457500Y400059D01*
Y401059D01*
X456500D01*
X455500Y400059D01*
X454500Y401059D01*
X453500D01*
Y400059D01*
X454500Y399059D01*
X453500Y398059D01*
Y397059D01*
Y410839D02*
X454500D01*
X455500Y411839D01*
X456500Y410839D01*
X457500D01*
Y411839D01*
X456500Y412839D01*
X457500Y413839D01*
Y414839D01*
X456500D01*
X455500Y413839D01*
X454500Y414839D01*
X453500D01*
Y413839D01*
X454500Y412839D01*
X453500Y411839D01*
Y410839D01*
X269500Y264500D02*
X271500Y266500D01*
X273500Y264500D01*
X271500Y262500D01*
X269500Y264500D01*
X279500D02*
X281500Y266500D01*
X283500Y264500D01*
X281500Y262500D01*
X279500Y264500D01*
X269500Y240500D02*
X271500Y242500D01*
X273500Y240500D01*
X271500Y238500D01*
X269500Y240500D01*
X279500D02*
X281500Y242500D01*
X283500Y240500D01*
X281500Y238500D01*
X279500Y240500D01*
X281500Y155500D02*
X279500Y159500D01*
X283500D01*
X281500Y155500D01*
X291500D02*
X289500Y159500D01*
X293500D01*
X291500Y155500D01*
X301500D02*
X299500Y159500D01*
X303500D01*
X301500Y155500D01*
X311500D02*
X309500Y159500D01*
X313500D01*
X311500Y155500D01*
X118346Y464500D02*
Y468500D01*
X122346D01*
Y464500D01*
X118346D01*
X161654D02*
Y468500D01*
X165654D01*
Y464500D01*
X161654D01*
X134900Y169700D02*
X132900Y173700D01*
X136900D01*
X134900Y169700D01*
Y170500D02*
X133700Y172900D01*
X136100D01*
X134900Y170500D01*
X124400Y247300D02*
X122400Y251300D01*
X126400D01*
X124400Y247300D01*
Y248100D02*
X123200Y250500D01*
X125600D01*
X124400Y248100D01*
X139600Y284500D02*
X137600Y288500D01*
X141600D01*
X139600Y284500D01*
Y285300D02*
X138400Y287700D01*
X140800D01*
X139600Y285300D01*
X471500Y390200D02*
X469500Y394200D01*
X473500D01*
X471500Y390200D01*
Y391000D02*
X470300Y393400D01*
X472700D01*
X471500Y391000D01*
X224000Y318000D02*
X222000Y322000D01*
X226000D01*
X224000Y318000D01*
Y318800D02*
X222800Y321200D01*
X225200D01*
X224000Y318800D01*
X190800Y285700D02*
X188800Y289700D01*
X192800D01*
X190800Y285700D01*
Y286500D02*
X189600Y288900D01*
X192000D01*
X190800Y286500D01*
X346800Y287900D02*
X344800Y291900D01*
X348800D01*
X346800Y287900D01*
Y288700D02*
X345600Y291100D01*
X348000D01*
X346800Y288700D01*
X301500Y242600D02*
X299500Y246600D01*
X303500D01*
X301500Y242600D01*
Y243400D02*
X300300Y245800D01*
X302700D01*
X301500Y243400D01*
X332700Y339100D02*
X330700Y343100D01*
X334700D01*
X332700Y339100D01*
Y339900D02*
X331500Y342300D01*
X333900D01*
X332700Y339900D01*
X338800Y303700D02*
X336800Y307700D01*
X340800D01*
X338800Y303700D01*
Y304500D02*
X337600Y306900D01*
X340000D01*
X338800Y304500D01*
X325900Y306400D02*
X323900Y310400D01*
X327900D01*
X325900Y306400D01*
Y307200D02*
X324700Y309600D01*
X327100D01*
X325900Y307200D01*
X419100Y199652D02*
X417100Y203652D01*
X421100D01*
X419100Y199652D01*
Y200452D02*
X417900Y202852D01*
X420300D01*
X419100Y200452D01*
X175900Y216400D02*
X173900Y220400D01*
X177900D01*
X175900Y216400D01*
Y217200D02*
X174700Y219600D01*
X177100D01*
X175900Y217200D01*
X325600Y293100D02*
X323600Y297100D01*
X327600D01*
X325600Y293100D01*
Y293900D02*
X324400Y296300D01*
X326800D01*
X325600Y293900D01*
X253100Y187900D02*
X251100Y191900D01*
X255100D01*
X253100Y187900D01*
Y188700D02*
X251900Y191100D01*
X254300D01*
X253100Y188700D01*
X121000Y422000D02*
X119000Y426000D01*
X123000D01*
X121000Y422000D01*
Y422800D02*
X119800Y425200D01*
X122200D01*
X121000Y422800D01*
X116908Y426092D02*
X114908Y430092D01*
X118908D01*
X116908Y426092D01*
Y426892D02*
X115708Y429292D01*
X118108D01*
X116908Y426892D01*
D66*
X213921Y459000D02*
X213692Y459929D01*
X213057Y460646D01*
X212162Y460985D01*
X211212Y460870D01*
X210424Y460326D01*
X209979Y459479D01*
Y458521D01*
X210424Y457674D01*
X211212Y457130D01*
X212162Y457015D01*
X213057Y457354D01*
X213692Y458071D01*
X213921Y459000D01*
X204079D02*
X203850Y459929D01*
X203215Y460646D01*
X202320Y460985D01*
X201370Y460870D01*
X200582Y460326D01*
X200137Y459479D01*
Y458521D01*
X200582Y457674D01*
X201370Y457130D01*
X202320Y457015D01*
X203215Y457354D01*
X203850Y458071D01*
X204079Y459000D01*
X379079Y366500D02*
X378850Y367429D01*
X378215Y368146D01*
X377320Y368485D01*
X376370Y368370D01*
X375582Y367826D01*
X375137Y366979D01*
Y366021D01*
X375582Y365174D01*
X376370Y364630D01*
X377320Y364515D01*
X378215Y364854D01*
X378850Y365571D01*
X379079Y366500D01*
X388921D02*
X388692Y367429D01*
X388057Y368146D01*
X387162Y368485D01*
X386212Y368370D01*
X385424Y367826D01*
X384979Y366979D01*
Y366021D01*
X385424Y365174D01*
X386212Y364630D01*
X387162Y364515D01*
X388057Y364854D01*
X388692Y365571D01*
X388921Y366500D01*
X158000Y240000D02*
X157771Y240929D01*
X157136Y241646D01*
X156241Y241985D01*
X155291Y241870D01*
X154503Y241326D01*
X154058Y240479D01*
Y239521D01*
X154503Y238674D01*
X155291Y238130D01*
X156241Y238015D01*
X157136Y238354D01*
X157771Y239071D01*
X158000Y240000D01*
Y249843D02*
X157771Y250772D01*
X157136Y251489D01*
X156241Y251828D01*
X155291Y251713D01*
X154503Y251169D01*
X154058Y250321D01*
Y249364D01*
X154503Y248516D01*
X155291Y247973D01*
X156241Y247857D01*
X157136Y248197D01*
X157771Y248913D01*
X158000Y249843D01*
X379079Y422000D02*
X378850Y422929D01*
X378215Y423646D01*
X377320Y423985D01*
X376370Y423870D01*
X375582Y423326D01*
X375137Y422479D01*
Y421521D01*
X375582Y420674D01*
X376370Y420130D01*
X377320Y420015D01*
X378215Y420354D01*
X378850Y421071D01*
X379079Y422000D01*
X388921D02*
X388692Y422929D01*
X388057Y423646D01*
X387162Y423985D01*
X386212Y423870D01*
X385424Y423326D01*
X384979Y422479D01*
Y421521D01*
X385424Y420674D01*
X386212Y420130D01*
X387162Y420015D01*
X388057Y420354D01*
X388692Y421071D01*
X388921Y422000D01*
X213921Y521500D02*
X213692Y522429D01*
X213057Y523146D01*
X212162Y523485D01*
X211212Y523370D01*
X210424Y522826D01*
X209979Y521979D01*
Y521021D01*
X210424Y520174D01*
X211212Y519630D01*
X212162Y519515D01*
X213057Y519854D01*
X213692Y520571D01*
X213921Y521500D01*
X204079D02*
X203850Y522429D01*
X203215Y523146D01*
X202320Y523485D01*
X201370Y523370D01*
X200582Y522826D01*
X200137Y521979D01*
Y521021D01*
X200582Y520174D01*
X201370Y519630D01*
X202320Y519515D01*
X203215Y519854D01*
X203850Y520571D01*
X204079Y521500D01*
X379579Y480500D02*
X379350Y481429D01*
X378715Y482146D01*
X377820Y482485D01*
X376870Y482370D01*
X376082Y481826D01*
X375637Y480979D01*
Y480021D01*
X376082Y479174D01*
X376870Y478630D01*
X377820Y478515D01*
X378715Y478854D01*
X379350Y479571D01*
X379579Y480500D01*
X389421D02*
X389192Y481429D01*
X388557Y482146D01*
X387662Y482485D01*
X386712Y482370D01*
X385924Y481826D01*
X385479Y480979D01*
Y480021D01*
X385924Y479174D01*
X386712Y478630D01*
X387662Y478515D01*
X388557Y478854D01*
X389192Y479571D01*
X389421Y480500D01*
X176500Y388000D02*
X176271Y388929D01*
X175636Y389646D01*
X174741Y389985D01*
X173791Y389870D01*
X173003Y389326D01*
X172558Y388479D01*
Y387521D01*
X173003Y386674D01*
X173791Y386130D01*
X174741Y386015D01*
X175636Y386354D01*
X176271Y387071D01*
X176500Y388000D01*
X186343D02*
X186114Y388929D01*
X185479Y389646D01*
X184584Y389985D01*
X183633Y389870D01*
X182846Y389326D01*
X182401Y388479D01*
Y387521D01*
X182846Y386674D01*
X183633Y386130D01*
X184584Y386015D01*
X185479Y386354D01*
X186114Y387071D01*
X186343Y388000D01*
X137579Y303500D02*
X137350Y304429D01*
X136715Y305146D01*
X135820Y305485D01*
X134870Y305370D01*
X134082Y304826D01*
X133637Y303979D01*
Y303021D01*
X134082Y302174D01*
X134870Y301630D01*
X135820Y301515D01*
X136715Y301854D01*
X137350Y302571D01*
X137579Y303500D01*
X147421D02*
X147192Y304429D01*
X146557Y305146D01*
X145662Y305485D01*
X144712Y305370D01*
X143924Y304826D01*
X143479Y303979D01*
Y303021D01*
X143924Y302174D01*
X144712Y301630D01*
X145662Y301515D01*
X146557Y301854D01*
X147192Y302571D01*
X147421Y303500D01*
X119500Y511000D02*
X119271Y511929D01*
X118636Y512646D01*
X117741Y512985D01*
X116791Y512870D01*
X116003Y512326D01*
X115558Y511479D01*
Y510521D01*
X116003Y509674D01*
X116791Y509130D01*
X117741Y509015D01*
X118636Y509354D01*
X119271Y510071D01*
X119500Y511000D01*
Y182500D02*
X119271Y183429D01*
X118636Y184146D01*
X117741Y184485D01*
X116791Y184370D01*
X116003Y183826D01*
X115558Y182979D01*
Y182021D01*
X116003Y181174D01*
X116791Y180630D01*
X117741Y180515D01*
X118636Y180854D01*
X119271Y181571D01*
X119500Y182500D01*
X469000Y511000D02*
X468771Y511929D01*
X468136Y512646D01*
X467241Y512985D01*
X466291Y512870D01*
X465503Y512326D01*
X465058Y511479D01*
Y510521D01*
X465503Y509674D01*
X466291Y509130D01*
X467241Y509015D01*
X468136Y509354D01*
X468771Y510071D01*
X469000Y511000D01*
Y182500D02*
X468771Y183429D01*
X468136Y184146D01*
X467241Y184485D01*
X466291Y184370D01*
X465503Y183826D01*
X465058Y182979D01*
Y182021D01*
X465503Y181174D01*
X466291Y180630D01*
X467241Y180515D01*
X468136Y180854D01*
X468771Y181571D01*
X469000Y182500D01*
D67*
X118700Y511000D02*
X118349Y511848D01*
X117500Y512200D01*
X116651Y511848D01*
X116300Y511000D01*
X116651Y510151D01*
X117500Y509800D01*
X118349Y510151D01*
X118700Y511000D01*
Y182500D02*
X118349Y183349D01*
X117500Y183700D01*
X116651Y183349D01*
X116300Y182500D01*
X116651Y181651D01*
X117500Y181300D01*
X118349Y181651D01*
X118700Y182500D01*
X468200Y511000D02*
X467848Y511848D01*
X467000Y512200D01*
X466152Y511848D01*
X465800Y511000D01*
X466152Y510151D01*
X467000Y509800D01*
X467848Y510151D01*
X468200Y511000D01*
Y182500D02*
X467848Y183349D01*
X467000Y183700D01*
X466152Y183349D01*
X465800Y182500D01*
X466152Y181651D01*
X467000Y181300D01*
X467848Y181651D01*
X468200Y182500D01*
M02*
