G04*
G04 #@! TF.GenerationSoftware,Altium Limited,Altium Designer,23.8.1 (32)*
G04*
G04 Layer_Color=32896*
%FSLAX25Y25*%
%MOIN*%
G70*
G04*
G04 #@! TF.SameCoordinates,C7E29C90-252A-4D1B-ADA4-5BBD7A111965*
G04*
G04*
G04 #@! TF.FilePolarity,Positive*
G04*
G01*
G75*
%ADD12C,0.02000*%
%ADD15C,0.01000*%
G36*
X264244Y470366D02*
X248825D01*
Y485785D01*
X264244D01*
Y470366D01*
D02*
G37*
G36*
Y466831D02*
X264208D01*
Y466612D01*
X264171D01*
Y466503D01*
X264135D01*
Y466430D01*
X264098D01*
Y466357D01*
X264062D01*
Y466320D01*
X264025D01*
Y466247D01*
X263989D01*
Y466211D01*
X263953D01*
Y466175D01*
X263880D01*
Y466138D01*
X263843D01*
Y466102D01*
X263770D01*
Y466065D01*
X263697D01*
Y466029D01*
X263588D01*
Y465992D01*
X263442D01*
Y465956D01*
X260490D01*
Y465992D01*
X260344D01*
Y466029D01*
X260271D01*
Y466065D01*
X260162D01*
Y466102D01*
X260125D01*
Y466138D01*
X260089D01*
Y466175D01*
X260016D01*
Y466211D01*
X259979D01*
Y466247D01*
X259943D01*
Y466284D01*
X259906D01*
Y466357D01*
X259870D01*
Y466393D01*
X259834D01*
Y466466D01*
X259797D01*
Y466539D01*
X259761D01*
Y466685D01*
X259724D01*
Y468434D01*
X264244D01*
Y466831D01*
D02*
G37*
G36*
X255897Y467122D02*
X252981D01*
Y465664D01*
X252944D01*
Y465409D01*
X252908D01*
Y465300D01*
X252871D01*
Y465190D01*
X252835D01*
Y465117D01*
X252798D01*
Y465081D01*
X252762D01*
Y465008D01*
X252726D01*
Y464972D01*
X252689D01*
Y464935D01*
X252653D01*
Y464899D01*
X252580D01*
Y464862D01*
X252543D01*
Y464826D01*
X252470D01*
Y464789D01*
X252397D01*
Y464753D01*
X252288D01*
Y464716D01*
X252142D01*
Y464680D01*
X251778D01*
Y464643D01*
X250101D01*
Y464680D01*
X249773D01*
Y464716D01*
X249591D01*
Y464753D01*
X249481D01*
Y464789D01*
X249408D01*
Y464826D01*
X249335D01*
Y464862D01*
X249299D01*
Y464899D01*
X249262D01*
Y464935D01*
X249226D01*
Y464972D01*
X249190D01*
Y465008D01*
X249153D01*
Y465044D01*
X249117D01*
Y465081D01*
X249080D01*
Y465117D01*
X249044D01*
Y465190D01*
X249007D01*
Y465263D01*
X248971D01*
Y465373D01*
X248935D01*
Y465482D01*
X248898D01*
Y468434D01*
X255897D01*
Y467122D01*
D02*
G37*
G36*
X264244Y463112D02*
X263515D01*
Y464534D01*
X262167D01*
Y463295D01*
X262130D01*
Y463258D01*
X261474D01*
Y463295D01*
X261437D01*
Y464534D01*
X260417D01*
Y463404D01*
Y463368D01*
Y463185D01*
X259724D01*
Y465373D01*
X264244D01*
Y463112D01*
D02*
G37*
G36*
X254439Y463951D02*
X254840D01*
Y463914D01*
X254985D01*
Y463878D01*
X255095D01*
Y463841D01*
X255204D01*
Y463805D01*
X255277D01*
Y463769D01*
X255313D01*
Y463732D01*
X255386D01*
Y463696D01*
X255423D01*
Y463659D01*
X255459D01*
Y463623D01*
X255496D01*
Y463586D01*
X255532D01*
Y463550D01*
X255569D01*
Y463514D01*
X255605D01*
Y463477D01*
X255642D01*
Y463441D01*
X255678D01*
Y463368D01*
X255715D01*
Y463331D01*
X255751D01*
Y463258D01*
X255787D01*
Y463185D01*
X255824D01*
Y463112D01*
X255860D01*
Y463040D01*
X255897D01*
Y462930D01*
X255933D01*
Y462821D01*
X255970D01*
Y462639D01*
X256006D01*
Y462384D01*
X256043D01*
Y461654D01*
X256006D01*
Y461363D01*
X255970D01*
Y461217D01*
X255933D01*
Y461108D01*
X255897D01*
Y460998D01*
X255860D01*
Y460889D01*
X255824D01*
Y460816D01*
X255787D01*
Y460743D01*
X255751D01*
Y460707D01*
X255715D01*
Y460634D01*
X255678D01*
Y460597D01*
X255642D01*
Y460561D01*
X255605D01*
Y460524D01*
X255569D01*
Y460488D01*
X255532D01*
Y460452D01*
X255496D01*
Y460415D01*
X255459D01*
Y460379D01*
X255423D01*
Y460342D01*
X255386D01*
Y460306D01*
X255313D01*
Y460269D01*
X255241D01*
Y460233D01*
X255168D01*
Y460196D01*
X255095D01*
Y460160D01*
X254949D01*
Y460123D01*
X254767D01*
Y460087D01*
X250028D01*
Y460123D01*
X249846D01*
Y460160D01*
X249736D01*
Y460196D01*
X249627D01*
Y460233D01*
X249554D01*
Y460269D01*
X249481D01*
Y460306D01*
X249408D01*
Y460342D01*
X249372D01*
Y460379D01*
X249335D01*
Y460415D01*
X249299D01*
Y460452D01*
X249262D01*
Y460488D01*
X249226D01*
Y460524D01*
X249190D01*
Y460561D01*
X249153D01*
Y460597D01*
X249117D01*
Y460670D01*
X249080D01*
Y460707D01*
X249044D01*
Y460780D01*
X249007D01*
Y460816D01*
X248971D01*
Y460889D01*
X248935D01*
Y460998D01*
X248898D01*
Y461071D01*
X248862D01*
Y461181D01*
X248825D01*
Y461326D01*
X248789D01*
Y461509D01*
X248752D01*
Y462493D01*
X248789D01*
Y462711D01*
X248825D01*
Y462857D01*
X248862D01*
Y462967D01*
X248898D01*
Y463076D01*
X248935D01*
Y463149D01*
X248971D01*
Y463222D01*
X249007D01*
Y463295D01*
X249044D01*
Y463368D01*
X249080D01*
Y463404D01*
X249117D01*
Y463477D01*
X249153D01*
Y463514D01*
X249190D01*
Y463550D01*
X249226D01*
Y463586D01*
X249262D01*
Y463623D01*
X249299D01*
Y463659D01*
X249335D01*
Y463696D01*
X249408D01*
Y463732D01*
X249445D01*
Y463769D01*
X249518D01*
Y463805D01*
X249591D01*
Y463841D01*
X249700D01*
Y463878D01*
X249809D01*
Y463914D01*
X249955D01*
Y463951D01*
X250320D01*
Y463987D01*
X254439D01*
Y463951D01*
D02*
G37*
G36*
X264208Y460488D02*
X264244D01*
Y457317D01*
X263151D01*
Y459212D01*
X257245D01*
Y460524D01*
X264208D01*
Y460488D01*
D02*
G37*
G36*
X255897Y455968D02*
X254840D01*
Y456004D01*
X254803D01*
Y457864D01*
X248898D01*
Y459176D01*
X255897D01*
Y455968D01*
D02*
G37*
G36*
Y455239D02*
Y455202D01*
Y454182D01*
X255860D01*
Y454145D01*
X248898D01*
Y455458D01*
X255897D01*
Y455239D01*
D02*
G37*
G36*
X264244Y453307D02*
X263151D01*
Y455494D01*
X261000D01*
Y453526D01*
X259943D01*
Y455494D01*
X258303D01*
Y453380D01*
X257245D01*
Y456806D01*
X264244D01*
Y453307D01*
D02*
G37*
G36*
X264208Y452651D02*
X264244D01*
Y451375D01*
X257245D01*
Y452687D01*
X264208D01*
Y452651D01*
D02*
G37*
G36*
X249919Y452359D02*
X255897D01*
Y451083D01*
X255860D01*
Y451047D01*
X249919D01*
Y449771D01*
X248898D01*
Y453672D01*
X249919D01*
Y452359D01*
D02*
G37*
G36*
X264244Y449115D02*
X261146D01*
Y448605D01*
X261255D01*
Y448568D01*
X261365D01*
Y448532D01*
X261474D01*
Y448495D01*
X261620D01*
Y448459D01*
X261729D01*
Y448422D01*
X261838D01*
Y448386D01*
X261948D01*
Y448350D01*
X262057D01*
Y448313D01*
X262167D01*
Y448277D01*
X262276D01*
Y448240D01*
X262385D01*
Y448204D01*
X262531D01*
Y448167D01*
X262640D01*
Y448131D01*
X262750D01*
Y448094D01*
X262859D01*
Y448058D01*
X262968D01*
Y448022D01*
X263078D01*
Y447985D01*
X263187D01*
Y447949D01*
X263333D01*
Y447912D01*
X263442D01*
Y447876D01*
X263552D01*
Y447839D01*
X263661D01*
Y447803D01*
X263770D01*
Y447766D01*
X263880D01*
Y447730D01*
X263989D01*
Y447693D01*
X264098D01*
Y447657D01*
X264208D01*
Y447620D01*
X264244D01*
Y446308D01*
X264135D01*
Y446345D01*
X264025D01*
Y446381D01*
X263916D01*
Y446418D01*
X263770D01*
Y446454D01*
X263661D01*
Y446490D01*
X263552D01*
Y446527D01*
X263442D01*
Y446563D01*
X263333D01*
Y446600D01*
X263224D01*
Y446636D01*
X263114D01*
Y446673D01*
X263005D01*
Y446709D01*
X262895D01*
Y446746D01*
X262786D01*
Y446782D01*
X262677D01*
Y446819D01*
X262567D01*
Y446855D01*
X262458D01*
Y446891D01*
X262349D01*
Y446928D01*
X262239D01*
Y446964D01*
X262130D01*
Y447001D01*
X262021D01*
Y447037D01*
X261911D01*
Y447074D01*
X261802D01*
Y447110D01*
X261693D01*
Y447147D01*
X261583D01*
Y447183D01*
X261474D01*
Y447220D01*
X261365D01*
Y447256D01*
X261255D01*
Y447292D01*
X261146D01*
Y447329D01*
X261036D01*
Y447365D01*
X260927D01*
Y447256D01*
X260891D01*
Y447147D01*
X260854D01*
Y447074D01*
X260818D01*
Y447001D01*
X260781D01*
Y446964D01*
X260745D01*
Y446891D01*
X260708D01*
Y446855D01*
X260672D01*
Y446819D01*
X260635D01*
Y446782D01*
X260563D01*
Y446746D01*
X260526D01*
Y446709D01*
X260453D01*
Y446673D01*
X260380D01*
Y446636D01*
X260271D01*
Y446600D01*
X260125D01*
Y446563D01*
X258157D01*
Y446600D01*
X257975D01*
Y446636D01*
X257865D01*
Y446673D01*
X257792D01*
Y446709D01*
X257719D01*
Y446746D01*
X257646D01*
Y446782D01*
X257610D01*
Y446819D01*
X257574D01*
Y446855D01*
X257537D01*
Y446891D01*
X257501D01*
Y446928D01*
X257464D01*
Y446964D01*
X257428D01*
Y447037D01*
X257391D01*
Y447110D01*
X257355D01*
Y447183D01*
X257318D01*
Y447292D01*
X257282D01*
Y447438D01*
X257245D01*
Y450391D01*
X264244D01*
Y449115D01*
D02*
G37*
G36*
X248351Y447402D02*
X248315D01*
Y447365D01*
X248278D01*
Y447329D01*
X248242D01*
Y447292D01*
X248205D01*
Y447256D01*
X248169D01*
Y447220D01*
X248132D01*
Y447183D01*
X248096D01*
Y447147D01*
X248060D01*
Y447110D01*
X248023D01*
Y447074D01*
X247987D01*
Y447037D01*
X247950D01*
Y447001D01*
X247914D01*
Y446964D01*
X247841D01*
Y446928D01*
X247804D01*
Y446891D01*
X247768D01*
Y446855D01*
X247732D01*
Y446819D01*
X247695D01*
Y446782D01*
X247659D01*
Y446746D01*
X247622D01*
Y446709D01*
X247586D01*
Y446673D01*
X247549D01*
Y446636D01*
X247513D01*
Y446600D01*
X247476D01*
Y446563D01*
X247440D01*
Y446527D01*
X247404D01*
Y446490D01*
X247367D01*
Y446454D01*
X247331D01*
Y446418D01*
X247294D01*
Y446381D01*
X247258D01*
Y446345D01*
X247221D01*
Y446308D01*
X247185D01*
Y446272D01*
X247112D01*
Y446235D01*
X247075D01*
Y446199D01*
X247039D01*
Y446162D01*
X247003D01*
Y446235D01*
Y446272D01*
Y447693D01*
X247075D01*
Y447730D01*
X247148D01*
Y447766D01*
X247221D01*
Y447803D01*
X247294D01*
Y447839D01*
X247367D01*
Y447876D01*
X247440D01*
Y447912D01*
X247513D01*
Y447949D01*
X247586D01*
Y447985D01*
X247659D01*
Y448022D01*
X247732D01*
Y448058D01*
X247804D01*
Y448094D01*
X247914D01*
Y448131D01*
X247987D01*
Y448167D01*
X248060D01*
Y448204D01*
X248132D01*
Y448240D01*
X248205D01*
Y448277D01*
X248278D01*
Y448313D01*
X248351D01*
Y447402D01*
D02*
G37*
G36*
X255897Y445761D02*
X254803D01*
Y447949D01*
X252653D01*
Y445980D01*
X251595D01*
Y447949D01*
X249955D01*
Y445871D01*
X248898D01*
Y449261D01*
X255897D01*
Y445761D01*
D02*
G37*
G36*
X264244Y444376D02*
X257245D01*
Y445652D01*
X264244D01*
Y444376D01*
D02*
G37*
G36*
X254657Y445178D02*
X254913D01*
Y445142D01*
X255058D01*
Y445105D01*
X255168D01*
Y445069D01*
X255241D01*
Y445032D01*
X255313D01*
Y444996D01*
X255350D01*
Y444959D01*
X255423D01*
Y444923D01*
X255459D01*
Y444887D01*
X255496D01*
Y444850D01*
X255532D01*
Y444814D01*
X255569D01*
Y444777D01*
X255605D01*
Y444741D01*
X255642D01*
Y444668D01*
X255678D01*
Y444631D01*
X255715D01*
Y444559D01*
X255751D01*
Y444522D01*
X255787D01*
Y444449D01*
X255824D01*
Y444340D01*
X255860D01*
Y444267D01*
X255897D01*
Y444121D01*
X255933D01*
Y444012D01*
X255970D01*
Y443829D01*
X256006D01*
Y443538D01*
X256043D01*
Y442918D01*
X256006D01*
Y442699D01*
X255970D01*
Y442517D01*
X255933D01*
Y442408D01*
X255897D01*
Y442299D01*
X255860D01*
Y442189D01*
X255824D01*
Y442116D01*
X255787D01*
Y442043D01*
X255751D01*
Y442007D01*
X255715D01*
Y441934D01*
X255678D01*
Y441898D01*
X255642D01*
Y441825D01*
X255605D01*
Y441788D01*
X255569D01*
Y441752D01*
X255532D01*
Y441715D01*
X255496D01*
Y441679D01*
X255459D01*
Y441642D01*
X255386D01*
Y441606D01*
X255350D01*
Y441570D01*
X255277D01*
Y441533D01*
X255204D01*
Y441497D01*
X255131D01*
Y441460D01*
X255022D01*
Y441424D01*
X254876D01*
Y441387D01*
X254585D01*
Y441351D01*
X253272D01*
Y441387D01*
X253236D01*
Y442627D01*
X253272D01*
Y442663D01*
X254657D01*
Y442699D01*
X254767D01*
Y442736D01*
X254803D01*
Y442772D01*
X254876D01*
Y442809D01*
X254913D01*
Y442882D01*
X254949D01*
Y442918D01*
X254985D01*
Y443064D01*
X255022D01*
Y443465D01*
X254985D01*
Y443574D01*
X254949D01*
Y443647D01*
X254913D01*
Y443684D01*
X254876D01*
Y443720D01*
X254840D01*
Y443757D01*
X254803D01*
Y443793D01*
X254730D01*
Y443829D01*
X254621D01*
Y443866D01*
X250101D01*
Y443829D01*
X250028D01*
Y443793D01*
X249955D01*
Y443757D01*
X249882D01*
Y443720D01*
X249846D01*
Y443647D01*
X249809D01*
Y443611D01*
X249773D01*
Y443465D01*
X249736D01*
Y443101D01*
X249773D01*
Y442955D01*
X249809D01*
Y442882D01*
X249846D01*
Y442845D01*
X249882D01*
Y442809D01*
X249919D01*
Y442772D01*
X249955D01*
Y442736D01*
X250028D01*
Y442699D01*
X250137D01*
Y442663D01*
X251413D01*
Y442627D01*
X251450D01*
Y441351D01*
X249992D01*
Y441387D01*
X249773D01*
Y441424D01*
X249663D01*
Y441460D01*
X249591D01*
Y441497D01*
X249481D01*
Y441533D01*
X249445D01*
Y441570D01*
X249372D01*
Y441606D01*
X249335D01*
Y441642D01*
X249299D01*
Y441679D01*
X249262D01*
Y441715D01*
X249226D01*
Y441752D01*
X249190D01*
Y441788D01*
X249153D01*
Y441825D01*
X249117D01*
Y441861D01*
X249080D01*
Y441898D01*
X249044D01*
Y441970D01*
X249007D01*
Y442007D01*
X248971D01*
Y442080D01*
X248935D01*
Y442189D01*
X248898D01*
Y442262D01*
X248862D01*
Y442372D01*
X248825D01*
Y442517D01*
X248789D01*
Y442699D01*
X248752D01*
Y443757D01*
X248789D01*
Y443975D01*
X248825D01*
Y444085D01*
X248862D01*
Y444194D01*
X248898D01*
Y444303D01*
X248935D01*
Y444376D01*
X248971D01*
Y444449D01*
X249007D01*
Y444522D01*
X249044D01*
Y444559D01*
X249080D01*
Y444631D01*
X249117D01*
Y444668D01*
X249153D01*
Y444704D01*
X249190D01*
Y444741D01*
X249226D01*
Y444777D01*
X249262D01*
Y444814D01*
X249299D01*
Y444850D01*
X249335D01*
Y444887D01*
X249372D01*
Y444923D01*
X249408D01*
Y444959D01*
X249481D01*
Y444996D01*
X249518D01*
Y445032D01*
X249627D01*
Y445069D01*
X249700D01*
Y445105D01*
X249846D01*
Y445142D01*
X250028D01*
Y445178D01*
X250465D01*
Y445215D01*
X254657D01*
Y445178D01*
D02*
G37*
G36*
X264244Y442481D02*
X264062D01*
Y442444D01*
X263843D01*
Y442408D01*
X263625D01*
Y442372D01*
X263406D01*
Y442335D01*
X263187D01*
Y442299D01*
X263114D01*
Y441132D01*
X263187D01*
Y441096D01*
X263406D01*
Y441059D01*
X263661D01*
Y441023D01*
X263916D01*
Y440986D01*
X264171D01*
Y440950D01*
X264244D01*
Y439638D01*
X264135D01*
Y439674D01*
X263916D01*
Y439711D01*
X263734D01*
Y439747D01*
X263552D01*
Y439783D01*
X263333D01*
Y439820D01*
X263151D01*
Y439856D01*
X262932D01*
Y439893D01*
X262750D01*
Y439929D01*
X262567D01*
Y439966D01*
X262349D01*
Y440002D01*
X262167D01*
Y440038D01*
X261984D01*
Y440075D01*
X261766D01*
Y440111D01*
X261583D01*
Y440148D01*
X261401D01*
Y440184D01*
X261182D01*
Y440221D01*
X261000D01*
Y440257D01*
X260818D01*
Y440294D01*
X260599D01*
Y440330D01*
X260417D01*
Y440367D01*
X260234D01*
Y440403D01*
X260016D01*
Y440440D01*
X259834D01*
Y440476D01*
X259651D01*
Y440512D01*
X259433D01*
Y440549D01*
X259250D01*
Y440585D01*
X259032D01*
Y440622D01*
X258849D01*
Y440658D01*
X258667D01*
Y440695D01*
X258448D01*
Y440731D01*
X258266D01*
Y440768D01*
X258084D01*
Y440804D01*
X257865D01*
Y440840D01*
X257683D01*
Y440877D01*
X257501D01*
Y440913D01*
X257282D01*
Y440950D01*
X257245D01*
Y442444D01*
X257391D01*
Y442481D01*
X257574D01*
Y442517D01*
X257756D01*
Y442554D01*
X257938D01*
Y442590D01*
X258120D01*
Y442627D01*
X258339D01*
Y442663D01*
X258521D01*
Y442699D01*
X258703D01*
Y442736D01*
X258886D01*
Y442772D01*
X259068D01*
Y442809D01*
X259250D01*
Y442845D01*
X259433D01*
Y442882D01*
X259651D01*
Y442918D01*
X259834D01*
Y442955D01*
X260016D01*
Y442991D01*
X260198D01*
Y443028D01*
X260380D01*
Y443064D01*
X260563D01*
Y443101D01*
X260781D01*
Y443137D01*
X260964D01*
Y443173D01*
X261146D01*
Y443210D01*
X261328D01*
Y443246D01*
X261510D01*
Y443283D01*
X261693D01*
Y443319D01*
X261911D01*
Y443356D01*
X262094D01*
Y443392D01*
X262276D01*
Y443429D01*
X262458D01*
Y443465D01*
X262640D01*
Y443502D01*
X262823D01*
Y443538D01*
X263005D01*
Y443574D01*
X263224D01*
Y443611D01*
X263406D01*
Y443647D01*
X263588D01*
Y443684D01*
X263770D01*
Y443720D01*
X263953D01*
Y443757D01*
X264135D01*
Y443793D01*
X264244D01*
Y442481D01*
D02*
G37*
G36*
X255860Y440585D02*
X255897D01*
Y439382D01*
X254913D01*
Y439419D01*
X253163D01*
Y439455D01*
X251450D01*
Y439492D01*
X250794D01*
Y439455D01*
X250939D01*
Y439419D01*
X251085D01*
Y439382D01*
X251231D01*
Y439346D01*
X251413D01*
Y439310D01*
X251559D01*
Y439273D01*
X251705D01*
Y439237D01*
X251851D01*
Y439200D01*
X252033D01*
Y439164D01*
X252179D01*
Y439127D01*
X252325D01*
Y439091D01*
X252470D01*
Y439054D01*
X252616D01*
Y439018D01*
X252798D01*
Y438981D01*
X252944D01*
Y438945D01*
X253090D01*
Y438908D01*
X253236D01*
Y438872D01*
X253418D01*
Y438836D01*
X253564D01*
Y438799D01*
X253710D01*
Y438763D01*
X253855D01*
Y438726D01*
X254038D01*
Y438690D01*
X254184D01*
Y438653D01*
X254329D01*
Y438617D01*
X254475D01*
Y438581D01*
X254657D01*
Y438544D01*
X254803D01*
Y438508D01*
X254949D01*
Y438471D01*
X255095D01*
Y438435D01*
X255277D01*
Y438398D01*
X255423D01*
Y438362D01*
X255569D01*
Y438325D01*
X255715D01*
Y438289D01*
X255860D01*
Y438252D01*
X255897D01*
Y436649D01*
X255860D01*
Y436612D01*
X248898D01*
Y437815D01*
X249992D01*
Y437779D01*
X251450D01*
Y437742D01*
X252908D01*
Y437706D01*
X253855D01*
Y437742D01*
X253710D01*
Y437779D01*
X253527D01*
Y437815D01*
X253382D01*
Y437851D01*
X253236D01*
Y437888D01*
X253090D01*
Y437924D01*
X252944D01*
Y437961D01*
X252798D01*
Y437997D01*
X252653D01*
Y438034D01*
X252507D01*
Y438070D01*
X252361D01*
Y438107D01*
X252215D01*
Y438143D01*
X252069D01*
Y438179D01*
X251923D01*
Y438216D01*
X251778D01*
Y438252D01*
X251595D01*
Y438289D01*
X251450D01*
Y438325D01*
X251304D01*
Y438362D01*
X251158D01*
Y438398D01*
X251012D01*
Y438435D01*
X250866D01*
Y438471D01*
X250721D01*
Y438508D01*
X250575D01*
Y438544D01*
X250429D01*
Y438581D01*
X250283D01*
Y438617D01*
X250137D01*
Y438653D01*
X249992D01*
Y438690D01*
X249809D01*
Y438726D01*
X249663D01*
Y438763D01*
X249518D01*
Y438799D01*
X249372D01*
Y438836D01*
X249226D01*
Y438872D01*
X249080D01*
Y438908D01*
X248935D01*
Y438945D01*
X248898D01*
Y440622D01*
X255860D01*
Y440585D01*
D02*
G37*
G36*
X255897Y434352D02*
X248898D01*
Y435664D01*
X255897D01*
Y434352D01*
D02*
G37*
G36*
X254876Y433404D02*
X255022D01*
Y433368D01*
X255131D01*
Y433331D01*
X255204D01*
Y433295D01*
X255277D01*
Y433258D01*
X255350D01*
Y433222D01*
X255386D01*
Y433186D01*
X255423D01*
Y433149D01*
X255496D01*
Y433113D01*
X255532D01*
Y433076D01*
X255569D01*
Y433040D01*
X255605D01*
Y432967D01*
X255642D01*
Y432930D01*
X255678D01*
Y432894D01*
X255715D01*
Y432821D01*
X255751D01*
Y432748D01*
X255787D01*
Y432675D01*
X255824D01*
Y432602D01*
X255860D01*
Y432566D01*
Y432493D01*
X255897D01*
Y432384D01*
X255933D01*
Y432238D01*
X255970D01*
Y432056D01*
X256006D01*
Y431800D01*
X256043D01*
Y431181D01*
X256006D01*
Y430926D01*
X255970D01*
Y430780D01*
X255933D01*
Y430634D01*
X255897D01*
Y430525D01*
X255860D01*
Y430452D01*
X255824D01*
Y430379D01*
X255787D01*
Y430306D01*
X255751D01*
Y430233D01*
X255715D01*
Y430197D01*
X255678D01*
Y430124D01*
X255642D01*
Y430087D01*
X255605D01*
Y430051D01*
X255569D01*
Y430014D01*
X255532D01*
Y429978D01*
X255496D01*
Y429941D01*
X255459D01*
Y429905D01*
X255423D01*
Y429869D01*
X255350D01*
Y429832D01*
X255313D01*
Y429796D01*
X255241D01*
Y429759D01*
X255168D01*
Y429723D01*
X255058D01*
Y429686D01*
X254913D01*
Y429650D01*
X254730D01*
Y429613D01*
X253236D01*
Y430889D01*
X254475D01*
Y430926D01*
X254694D01*
Y430962D01*
X254767D01*
Y430999D01*
X254840D01*
Y431035D01*
X254876D01*
Y431071D01*
X254913D01*
Y431108D01*
X254949D01*
Y431181D01*
X254985D01*
Y431290D01*
X255022D01*
Y431728D01*
X254985D01*
Y431837D01*
X254949D01*
Y431873D01*
X254913D01*
Y431946D01*
X254876D01*
Y431983D01*
X254840D01*
Y432019D01*
X254767D01*
Y432056D01*
X254694D01*
Y432092D01*
X254548D01*
Y432128D01*
X250174D01*
Y432092D01*
X250028D01*
Y432056D01*
X249955D01*
Y432019D01*
X249919D01*
Y431983D01*
X249882D01*
Y431946D01*
X249846D01*
Y431910D01*
X249809D01*
Y431837D01*
X249773D01*
Y431728D01*
X249736D01*
Y431363D01*
X249773D01*
Y431217D01*
X249809D01*
Y431144D01*
X249846D01*
Y431071D01*
X249882D01*
Y431035D01*
X249955D01*
Y430999D01*
X249992D01*
Y430962D01*
X250101D01*
Y430926D01*
X250283D01*
Y430889D01*
X251450D01*
Y429613D01*
X249882D01*
Y429650D01*
X249736D01*
Y429686D01*
X249627D01*
Y429723D01*
X249554D01*
Y429759D01*
X249481D01*
Y429796D01*
X249408D01*
Y429832D01*
X249372D01*
Y429869D01*
X249299D01*
Y429905D01*
X249262D01*
Y429941D01*
X249226D01*
Y429978D01*
X249190D01*
Y430014D01*
X249153D01*
Y430051D01*
X249117D01*
Y430124D01*
X249080D01*
Y430160D01*
X249044D01*
Y430197D01*
X249007D01*
Y430269D01*
X248971D01*
Y430342D01*
X248935D01*
Y430415D01*
X248898D01*
Y430525D01*
X248862D01*
Y430634D01*
X248825D01*
Y430780D01*
X248789D01*
Y430962D01*
X248752D01*
Y432019D01*
X248789D01*
Y432201D01*
X248825D01*
Y432347D01*
X248862D01*
Y432457D01*
X248898D01*
Y432566D01*
X248935D01*
Y432639D01*
X248971D01*
Y432712D01*
X249007D01*
Y432748D01*
X249044D01*
Y432821D01*
X249080D01*
Y432858D01*
X249117D01*
Y432930D01*
X249153D01*
Y432967D01*
X249190D01*
Y433003D01*
X249226D01*
Y433040D01*
X249262D01*
Y433076D01*
X249299D01*
Y433113D01*
X249335D01*
Y433149D01*
X249372D01*
Y433186D01*
X249445D01*
Y433222D01*
X249481D01*
Y433258D01*
X249554D01*
Y433295D01*
X249663D01*
Y433331D01*
X249736D01*
Y433368D01*
X249882D01*
Y433404D01*
X250137D01*
Y433441D01*
X254876D01*
Y433404D01*
D02*
G37*
G36*
X254657Y428884D02*
X254876D01*
Y428848D01*
X255022D01*
Y428811D01*
X255131D01*
Y428775D01*
X255204D01*
Y428738D01*
X255277D01*
Y428702D01*
X255350D01*
Y428666D01*
X255386D01*
Y428629D01*
X255423D01*
Y428593D01*
X255496D01*
Y428556D01*
X255532D01*
Y428520D01*
X255569D01*
Y428483D01*
X255605D01*
Y428410D01*
X255642D01*
Y428374D01*
X255678D01*
Y428337D01*
X255715D01*
Y428265D01*
X255751D01*
Y428228D01*
X255787D01*
Y428155D01*
X255824D01*
Y428082D01*
X255860D01*
Y427973D01*
X255897D01*
Y427864D01*
X255933D01*
Y427754D01*
X255970D01*
Y427608D01*
X256006D01*
Y427317D01*
X256043D01*
Y426588D01*
X256006D01*
Y426333D01*
X255970D01*
Y426150D01*
X255933D01*
Y426041D01*
X255897D01*
Y425932D01*
X255860D01*
Y425859D01*
X255824D01*
Y425786D01*
X255787D01*
Y425713D01*
X255751D01*
Y425640D01*
X255715D01*
Y425604D01*
X255678D01*
Y425531D01*
X255642D01*
Y425494D01*
X255605D01*
Y425458D01*
X255569D01*
Y425421D01*
X255532D01*
Y425385D01*
X255496D01*
Y425349D01*
X255459D01*
Y425312D01*
X255423D01*
Y425276D01*
X255350D01*
Y425239D01*
X255313D01*
Y425203D01*
X255241D01*
Y425166D01*
X255131D01*
Y425130D01*
X255022D01*
Y425093D01*
X254913D01*
Y425057D01*
X254657D01*
Y425020D01*
X250137D01*
Y425057D01*
X249882D01*
Y425093D01*
X249736D01*
Y425130D01*
X249663D01*
Y425166D01*
X249554D01*
Y425203D01*
X249481D01*
Y425239D01*
X249445D01*
Y425276D01*
X249372D01*
Y425312D01*
X249335D01*
Y425349D01*
X249299D01*
Y425385D01*
X249262D01*
Y425421D01*
X249226D01*
Y425458D01*
X249190D01*
Y425494D01*
X249153D01*
Y425567D01*
X249117D01*
Y425604D01*
X249080D01*
Y425640D01*
X249044D01*
Y425713D01*
X249007D01*
Y425786D01*
X248971D01*
Y425859D01*
X248935D01*
Y425932D01*
X248898D01*
Y426041D01*
X248862D01*
Y426150D01*
X248825D01*
Y426296D01*
X248789D01*
Y426478D01*
X248752D01*
Y427463D01*
X248789D01*
Y427645D01*
X248825D01*
Y427791D01*
X248862D01*
Y427900D01*
X248898D01*
Y428010D01*
X248935D01*
Y428082D01*
X248971D01*
Y428155D01*
X249007D01*
Y428228D01*
X249044D01*
Y428301D01*
X249080D01*
Y428337D01*
X249117D01*
Y428410D01*
X249153D01*
Y428447D01*
X249190D01*
Y428483D01*
X249226D01*
Y428520D01*
X249262D01*
Y428556D01*
X249299D01*
Y428593D01*
X249335D01*
Y428629D01*
X249372D01*
Y428666D01*
X249445D01*
Y428702D01*
X249518D01*
Y428738D01*
X249591D01*
Y428775D01*
X249663D01*
Y428811D01*
X249773D01*
Y428848D01*
X249919D01*
Y428884D01*
X250137D01*
Y428921D01*
X254657D01*
Y428884D01*
D02*
G37*
%LPC*%
G36*
X257136Y483124D02*
X255933D01*
Y483088D01*
X255678D01*
Y483052D01*
X255459D01*
Y483015D01*
X255313D01*
Y482979D01*
X255168D01*
Y482942D01*
X255058D01*
Y482906D01*
X254913D01*
Y482869D01*
X254840D01*
Y482833D01*
X254730D01*
Y482796D01*
X254621D01*
Y482760D01*
X254548D01*
Y482724D01*
X254475D01*
Y482687D01*
X254366D01*
Y482651D01*
X254293D01*
Y482614D01*
X254220D01*
Y482578D01*
X254147D01*
Y482541D01*
X254111D01*
Y482505D01*
X254038D01*
Y482468D01*
X253965D01*
Y482432D01*
X253892D01*
Y482396D01*
X253855D01*
Y482359D01*
X253783D01*
Y482323D01*
X253746D01*
Y482286D01*
X253673D01*
Y482250D01*
X253637D01*
Y482213D01*
X253564D01*
Y482177D01*
X253527D01*
Y482140D01*
X253454D01*
Y482104D01*
X253418D01*
Y482067D01*
X253382D01*
Y482031D01*
X253345D01*
Y481994D01*
X253272D01*
Y481958D01*
X253236D01*
Y481922D01*
X253199D01*
Y481885D01*
X253163D01*
Y481849D01*
X253126D01*
Y481812D01*
X253090D01*
Y481776D01*
X253053D01*
Y481739D01*
X253017D01*
Y481703D01*
X252981D01*
Y481667D01*
X252944D01*
Y481630D01*
X252908D01*
Y481594D01*
X252871D01*
Y481557D01*
X252835D01*
Y481521D01*
X252798D01*
Y481484D01*
X252762D01*
Y481448D01*
X252726D01*
Y481411D01*
X252689D01*
Y481375D01*
X252653D01*
Y481338D01*
X252616D01*
Y481265D01*
X252580D01*
Y481229D01*
X252543D01*
Y481193D01*
X252507D01*
Y481156D01*
X252470D01*
Y481083D01*
X252434D01*
Y481047D01*
X252397D01*
Y481010D01*
X252361D01*
Y480937D01*
X252325D01*
Y480901D01*
X252288D01*
Y480828D01*
X252252D01*
Y480792D01*
X252215D01*
Y480719D01*
X252179D01*
Y480646D01*
X252142D01*
Y480609D01*
X252106D01*
Y480536D01*
X252069D01*
Y480464D01*
X252033D01*
Y480391D01*
X251996D01*
Y480318D01*
X251960D01*
Y480245D01*
X251923D01*
Y480172D01*
X251887D01*
Y480099D01*
X251851D01*
Y479990D01*
X251814D01*
Y479917D01*
X251778D01*
Y479807D01*
X251741D01*
Y479698D01*
X251705D01*
Y479589D01*
X251668D01*
Y479479D01*
X251632D01*
Y479334D01*
X251595D01*
Y479188D01*
X251559D01*
Y479005D01*
X251522D01*
Y478787D01*
X251486D01*
Y478422D01*
X251450D01*
Y477766D01*
X251486D01*
Y477402D01*
X251522D01*
Y477146D01*
X251559D01*
Y476964D01*
X251595D01*
Y476818D01*
X251632D01*
Y476709D01*
X251668D01*
Y476563D01*
X251705D01*
Y476454D01*
X251741D01*
Y476344D01*
X251778D01*
Y476272D01*
X251814D01*
Y476162D01*
X251851D01*
Y476089D01*
X251887D01*
Y476016D01*
X251923D01*
Y475907D01*
X251960D01*
Y475834D01*
X251996D01*
Y475761D01*
X252033D01*
Y475725D01*
X252069D01*
Y475652D01*
X252106D01*
Y475579D01*
X252142D01*
Y475506D01*
X252179D01*
Y475470D01*
X252215D01*
Y475397D01*
X252252D01*
Y475324D01*
X252288D01*
Y475287D01*
X252325D01*
Y475214D01*
X252361D01*
Y475178D01*
X252397D01*
Y475142D01*
X252434D01*
Y475069D01*
X252470D01*
Y475032D01*
X252507D01*
Y474996D01*
X252543D01*
Y474923D01*
X252580D01*
Y474886D01*
X252616D01*
Y474850D01*
X252653D01*
Y474814D01*
X252689D01*
Y474741D01*
X252726D01*
Y474704D01*
X252762D01*
Y474668D01*
X252798D01*
Y474631D01*
X252835D01*
Y474595D01*
X252871D01*
Y474558D01*
X252908D01*
Y474522D01*
X252944D01*
Y474485D01*
X252981D01*
Y474449D01*
X253017D01*
Y474413D01*
X253053D01*
Y474376D01*
X253090D01*
Y474340D01*
X253126D01*
Y474303D01*
X253163D01*
Y474267D01*
X253236D01*
Y474230D01*
X253272D01*
Y474194D01*
X253309D01*
Y474157D01*
X253345D01*
Y474121D01*
X253418D01*
Y474085D01*
X253454D01*
Y474048D01*
X253491D01*
Y474012D01*
X253564D01*
Y473975D01*
X253600D01*
Y473939D01*
X253637D01*
Y473902D01*
X253710D01*
Y473866D01*
X253746D01*
Y473829D01*
X253819D01*
Y473793D01*
X253892D01*
Y473756D01*
X253928D01*
Y473720D01*
X254001D01*
Y473684D01*
X254074D01*
Y473647D01*
X254147D01*
Y473611D01*
X254184D01*
Y473574D01*
X254256D01*
Y473538D01*
X254329D01*
Y473501D01*
X254439D01*
Y473465D01*
X254512D01*
Y473428D01*
X254585D01*
Y473392D01*
X254694D01*
Y473355D01*
X254767D01*
Y473319D01*
X254876D01*
Y473282D01*
X254985D01*
Y473246D01*
X255095D01*
Y473210D01*
X255241D01*
Y473173D01*
X255386D01*
Y473137D01*
X255569D01*
Y473100D01*
X255787D01*
Y473064D01*
X256116D01*
Y473027D01*
X256917D01*
Y473064D01*
X257245D01*
Y473100D01*
X257464D01*
Y473137D01*
X257646D01*
Y473173D01*
X257792D01*
Y473210D01*
X257938D01*
Y473246D01*
X258047D01*
Y473282D01*
X258157D01*
Y473319D01*
X258266D01*
Y473355D01*
X258376D01*
Y473392D01*
X258448D01*
Y473428D01*
X258558D01*
Y473465D01*
X258631D01*
Y473501D01*
X258703D01*
Y473538D01*
X258776D01*
Y473574D01*
X258849D01*
Y473611D01*
X258922D01*
Y473647D01*
X258995D01*
Y473684D01*
X259068D01*
Y473720D01*
X259104D01*
Y473756D01*
X259177D01*
Y473793D01*
X259250D01*
Y473829D01*
X259287D01*
Y473866D01*
X259360D01*
Y473902D01*
X259396D01*
Y473939D01*
X259469D01*
Y473975D01*
X259506D01*
Y474012D01*
X259542D01*
Y474048D01*
X259615D01*
Y474085D01*
X259651D01*
Y474121D01*
X259688D01*
Y474157D01*
X259724D01*
Y474194D01*
X259797D01*
Y474230D01*
X259834D01*
Y474267D01*
X259870D01*
Y474303D01*
X259906D01*
Y474340D01*
X259943D01*
Y474376D01*
X259979D01*
Y474413D01*
X260016D01*
Y474449D01*
X260052D01*
Y474485D01*
X260089D01*
Y474522D01*
X260125D01*
Y474558D01*
X260162D01*
Y474595D01*
X260198D01*
Y474631D01*
X260234D01*
Y474668D01*
X260271D01*
Y474704D01*
X260307D01*
Y474741D01*
X260344D01*
Y474777D01*
X260380D01*
Y474814D01*
X260417D01*
Y474886D01*
X260453D01*
Y474923D01*
X260490D01*
Y474959D01*
X260526D01*
Y474996D01*
X260563D01*
Y475069D01*
X260599D01*
Y475105D01*
X260635D01*
Y475142D01*
X260672D01*
Y475214D01*
X260708D01*
Y475251D01*
X260745D01*
Y475324D01*
X260781D01*
Y475360D01*
X260818D01*
Y475433D01*
X260854D01*
Y475506D01*
X260891D01*
Y475543D01*
X260927D01*
Y475616D01*
X260964D01*
Y475688D01*
X261000D01*
Y475761D01*
X261036D01*
Y475834D01*
X261073D01*
Y475907D01*
X261109D01*
Y475980D01*
X261146D01*
Y476053D01*
X261182D01*
Y476126D01*
X261219D01*
Y476235D01*
X261255D01*
Y476308D01*
X261292D01*
Y476417D01*
X261328D01*
Y476527D01*
X261365D01*
Y476636D01*
X261401D01*
Y476782D01*
X261437D01*
Y476928D01*
X261474D01*
Y477073D01*
X261510D01*
Y477292D01*
X261547D01*
Y477584D01*
X261583D01*
Y478605D01*
X261547D01*
Y478896D01*
X261510D01*
Y479078D01*
X261474D01*
Y479261D01*
X261437D01*
Y479406D01*
X261401D01*
Y479516D01*
X261365D01*
Y479662D01*
X261328D01*
Y479771D01*
X261292D01*
Y479844D01*
X261255D01*
Y479953D01*
X261219D01*
Y480026D01*
X261182D01*
Y480135D01*
X261146D01*
Y480208D01*
X261109D01*
Y480281D01*
X261073D01*
Y480354D01*
X261036D01*
Y480427D01*
X261000D01*
Y480500D01*
X260964D01*
Y480573D01*
X260927D01*
Y480609D01*
X260891D01*
Y480682D01*
X260854D01*
Y480755D01*
X260818D01*
Y480792D01*
X260781D01*
Y480864D01*
X260745D01*
Y480901D01*
X260708D01*
Y480974D01*
X260672D01*
Y481010D01*
X260635D01*
Y481083D01*
X260599D01*
Y481120D01*
X260563D01*
Y481156D01*
X260526D01*
Y481229D01*
X260490D01*
Y481265D01*
X260453D01*
Y481302D01*
X260417D01*
Y481338D01*
X260380D01*
Y481375D01*
X260344D01*
Y481448D01*
X260307D01*
Y481484D01*
X260271D01*
Y481521D01*
X260234D01*
Y481557D01*
X260198D01*
Y481594D01*
X260162D01*
Y481630D01*
X260125D01*
Y481667D01*
X260089D01*
Y481703D01*
X260052D01*
Y481739D01*
X260016D01*
Y481776D01*
X259979D01*
Y481812D01*
X259943D01*
Y481849D01*
X259906D01*
Y481885D01*
X259834D01*
Y481922D01*
X259797D01*
Y481958D01*
X259761D01*
Y481994D01*
X259724D01*
Y482031D01*
X259688D01*
Y482067D01*
X259615D01*
Y482104D01*
X259578D01*
Y482140D01*
X259542D01*
Y482177D01*
X259469D01*
Y482213D01*
X259433D01*
Y482250D01*
X259360D01*
Y482286D01*
X259323D01*
Y482323D01*
X259250D01*
Y482359D01*
X259214D01*
Y482396D01*
X259141D01*
Y482432D01*
X259068D01*
Y482468D01*
X259032D01*
Y482505D01*
X258959D01*
Y482541D01*
X258886D01*
Y482578D01*
X258813D01*
Y482614D01*
X258740D01*
Y482651D01*
X258667D01*
Y482687D01*
X258594D01*
Y482724D01*
X258521D01*
Y482760D01*
X258412D01*
Y482796D01*
X258339D01*
Y482833D01*
X258230D01*
Y482869D01*
X258120D01*
Y482906D01*
X258011D01*
Y482942D01*
X257865D01*
Y482979D01*
X257719D01*
Y483015D01*
X257574D01*
Y483052D01*
X257391D01*
Y483088D01*
X257136D01*
Y483124D01*
D02*
G37*
%LPD*%
G36*
X256808Y481557D02*
X257100D01*
Y481521D01*
X257282D01*
Y481484D01*
X257428D01*
Y481448D01*
X257574D01*
Y481411D01*
X257683D01*
Y481375D01*
X257756D01*
Y481338D01*
X257865D01*
Y481302D01*
X257938D01*
Y481265D01*
X258047D01*
Y481229D01*
X258120D01*
Y481193D01*
X258193D01*
Y481156D01*
X258230D01*
Y481120D01*
X258303D01*
Y481083D01*
X258376D01*
Y481047D01*
X258412D01*
Y481010D01*
X258485D01*
Y480974D01*
X258521D01*
Y480937D01*
X258594D01*
Y480901D01*
X258631D01*
Y480864D01*
X258667D01*
Y480828D01*
X258740D01*
Y480792D01*
X258776D01*
Y480755D01*
X258813D01*
Y480719D01*
X258849D01*
Y480682D01*
X258886D01*
Y480646D01*
X258922D01*
Y480609D01*
X258959D01*
Y480573D01*
X258995D01*
Y480536D01*
X259032D01*
Y480500D01*
X259068D01*
Y480464D01*
X259104D01*
Y480427D01*
X259141D01*
Y480391D01*
X259177D01*
Y480354D01*
X259214D01*
Y480318D01*
X259250D01*
Y480281D01*
X259287D01*
Y480208D01*
X259323D01*
Y480172D01*
X259360D01*
Y480135D01*
X259396D01*
Y480063D01*
X259433D01*
Y480026D01*
X259469D01*
Y479953D01*
X259506D01*
Y479917D01*
X259542D01*
Y479844D01*
X259578D01*
Y479771D01*
X259615D01*
Y479698D01*
X259651D01*
Y479625D01*
X259688D01*
Y479552D01*
X259724D01*
Y479479D01*
X259761D01*
Y479406D01*
X259797D01*
Y479297D01*
X259834D01*
Y479188D01*
X259870D01*
Y479078D01*
X259906D01*
Y478933D01*
X259943D01*
Y478787D01*
X259979D01*
Y478568D01*
X260016D01*
Y477584D01*
X259979D01*
Y477365D01*
X259943D01*
Y477219D01*
X259906D01*
Y477110D01*
X259870D01*
Y476964D01*
X259834D01*
Y476891D01*
X259797D01*
Y476782D01*
X259761D01*
Y476673D01*
X259724D01*
Y476600D01*
X259688D01*
Y476527D01*
X259651D01*
Y476454D01*
X259615D01*
Y476381D01*
X259578D01*
Y476344D01*
X259542D01*
Y476272D01*
X259506D01*
Y476199D01*
X259469D01*
Y476162D01*
X259433D01*
Y476089D01*
X259396D01*
Y476053D01*
X259360D01*
Y476016D01*
X259323D01*
Y475944D01*
X259287D01*
Y475907D01*
X259250D01*
Y475871D01*
X259214D01*
Y475834D01*
X259177D01*
Y475761D01*
X259141D01*
Y475725D01*
X259104D01*
Y475688D01*
X259068D01*
Y475652D01*
X259032D01*
Y475616D01*
X258995D01*
Y475579D01*
X258959D01*
Y475543D01*
X258922D01*
Y475506D01*
X258886D01*
Y475470D01*
X258849D01*
Y475433D01*
X258776D01*
Y475397D01*
X258740D01*
Y475360D01*
X258703D01*
Y475324D01*
X258667D01*
Y475287D01*
X258594D01*
Y475251D01*
X258558D01*
Y475214D01*
X258521D01*
Y475178D01*
X258448D01*
Y475142D01*
X258412D01*
Y475105D01*
X258339D01*
Y475069D01*
X258266D01*
Y475032D01*
X258193D01*
Y474996D01*
X258157D01*
Y474959D01*
X258084D01*
Y474923D01*
X257975D01*
Y474886D01*
X257902D01*
Y474850D01*
X257829D01*
Y474814D01*
X257719D01*
Y474777D01*
X257610D01*
Y474741D01*
X257501D01*
Y474704D01*
X257355D01*
Y474668D01*
X257209D01*
Y474631D01*
X256990D01*
Y474595D01*
X256079D01*
Y474631D01*
X255860D01*
Y474668D01*
X255678D01*
Y474704D01*
X255569D01*
Y474741D01*
X255423D01*
Y474777D01*
X255313D01*
Y474814D01*
X255241D01*
Y474850D01*
X255131D01*
Y474886D01*
X255058D01*
Y474923D01*
X254985D01*
Y474959D01*
X254913D01*
Y474996D01*
X254840D01*
Y475032D01*
X254767D01*
Y475069D01*
X254694D01*
Y475105D01*
X254657D01*
Y475142D01*
X254585D01*
Y475178D01*
X254548D01*
Y475214D01*
X254475D01*
Y475251D01*
X254439D01*
Y475287D01*
X254402D01*
Y475324D01*
X254329D01*
Y475360D01*
X254293D01*
Y475397D01*
X254256D01*
Y475433D01*
X254220D01*
Y475470D01*
X254184D01*
Y475506D01*
X254147D01*
Y475543D01*
X254111D01*
Y475579D01*
X254074D01*
Y475616D01*
X254038D01*
Y475652D01*
X254001D01*
Y475688D01*
X253965D01*
Y475725D01*
X253928D01*
Y475761D01*
X253892D01*
Y475798D01*
X253855D01*
Y475834D01*
X253819D01*
Y475871D01*
X253783D01*
Y475907D01*
X253746D01*
Y475980D01*
X253710D01*
Y476016D01*
X253673D01*
Y476053D01*
X253637D01*
Y476126D01*
X253600D01*
Y476162D01*
X253564D01*
Y476235D01*
X253527D01*
Y476308D01*
X253491D01*
Y476344D01*
X253454D01*
Y476417D01*
X253418D01*
Y476490D01*
X253382D01*
Y476563D01*
X253345D01*
Y476636D01*
X253309D01*
Y476709D01*
X253272D01*
Y476818D01*
X253236D01*
Y476928D01*
X253199D01*
Y477037D01*
X253163D01*
Y477146D01*
X253126D01*
Y477292D01*
X253090D01*
Y477474D01*
X253053D01*
Y477693D01*
X253017D01*
Y478459D01*
X253053D01*
Y478714D01*
X253090D01*
Y478896D01*
X253126D01*
Y479042D01*
X253163D01*
Y479151D01*
X253199D01*
Y479261D01*
X253236D01*
Y479370D01*
X253272D01*
Y479443D01*
X253309D01*
Y479516D01*
X253345D01*
Y479625D01*
X253382D01*
Y479698D01*
X253418D01*
Y479735D01*
X253454D01*
Y479807D01*
X253491D01*
Y479880D01*
X253527D01*
Y479953D01*
X253564D01*
Y479990D01*
X253600D01*
Y480063D01*
X253637D01*
Y480099D01*
X253673D01*
Y480135D01*
X253710D01*
Y480208D01*
X253746D01*
Y480245D01*
X253783D01*
Y480281D01*
X253819D01*
Y480318D01*
X253855D01*
Y480391D01*
X253892D01*
Y480427D01*
X253928D01*
Y480464D01*
X253965D01*
Y480500D01*
X254001D01*
Y480536D01*
X254038D01*
Y480573D01*
X254074D01*
Y480609D01*
X254111D01*
Y480646D01*
X254147D01*
Y480682D01*
X254184D01*
Y480719D01*
X254220D01*
Y480755D01*
X254293D01*
Y480792D01*
X254329D01*
Y480828D01*
X254366D01*
Y480864D01*
X254402D01*
Y480901D01*
X254475D01*
Y480937D01*
X254512D01*
Y480974D01*
X254585D01*
Y481010D01*
X254621D01*
Y481047D01*
X254694D01*
Y481083D01*
X254730D01*
Y481120D01*
X254803D01*
Y481156D01*
X254876D01*
Y481193D01*
X254949D01*
Y481229D01*
X255022D01*
Y481265D01*
X255095D01*
Y481302D01*
X255168D01*
Y481338D01*
X255277D01*
Y481375D01*
X255386D01*
Y481411D01*
X255496D01*
Y481448D01*
X255605D01*
Y481484D01*
X255751D01*
Y481521D01*
X255933D01*
Y481557D01*
X256261D01*
Y481594D01*
X256808D01*
Y481557D01*
D02*
G37*
%LPC*%
G36*
X256662Y481010D02*
X256407D01*
Y480974D01*
X256225D01*
Y480937D01*
X256152D01*
Y480901D01*
X256079D01*
Y480864D01*
X256006D01*
Y480828D01*
X255970D01*
Y480792D01*
X255933D01*
Y480755D01*
X255897D01*
Y480719D01*
X255860D01*
Y480682D01*
X255824D01*
Y480646D01*
X255787D01*
Y480573D01*
X255751D01*
Y480500D01*
X255715D01*
Y480427D01*
X255678D01*
Y480318D01*
X255642D01*
Y479917D01*
X255678D01*
Y479807D01*
X255715D01*
Y479735D01*
X255751D01*
Y479662D01*
X255787D01*
Y479589D01*
X255824D01*
Y479552D01*
X255860D01*
Y479516D01*
X255897D01*
Y479479D01*
X255933D01*
Y479443D01*
X255970D01*
Y479406D01*
X256043D01*
Y479370D01*
X256079D01*
Y479334D01*
X256152D01*
Y479297D01*
X256261D01*
Y479261D01*
X256407D01*
Y479224D01*
X256626D01*
Y479261D01*
X256808D01*
Y479297D01*
X256881D01*
Y479334D01*
X256954D01*
Y479370D01*
X257027D01*
Y479406D01*
X257063D01*
Y479443D01*
X257100D01*
Y479479D01*
X257136D01*
Y479516D01*
X257173D01*
Y479552D01*
X257209D01*
Y479589D01*
X257245D01*
Y479625D01*
X257282D01*
Y479698D01*
X257318D01*
Y479771D01*
X257355D01*
Y479880D01*
X257391D01*
Y480354D01*
X257355D01*
Y480464D01*
X257318D01*
Y480536D01*
X257282D01*
Y480609D01*
X257245D01*
Y480646D01*
X257209D01*
Y480682D01*
X257173D01*
Y480755D01*
X257136D01*
Y480792D01*
X257063D01*
Y480828D01*
X257027D01*
Y480864D01*
X256954D01*
Y480901D01*
X256881D01*
Y480937D01*
X256808D01*
Y480974D01*
X256662D01*
Y481010D01*
D02*
G37*
G36*
X263552Y467596D02*
X260380D01*
Y467049D01*
X260417D01*
Y466940D01*
X260453D01*
Y466903D01*
X260490D01*
Y466867D01*
X260526D01*
Y466831D01*
X260599D01*
Y466794D01*
X263297D01*
Y466831D01*
X263406D01*
Y466867D01*
X263442D01*
Y466903D01*
X263479D01*
Y466940D01*
X263515D01*
Y467013D01*
X263552D01*
Y467596D01*
D02*
G37*
G36*
X251960Y467122D02*
X249919D01*
Y466284D01*
X249955D01*
Y466175D01*
X249992D01*
Y466102D01*
X250028D01*
Y466065D01*
X250064D01*
Y466029D01*
X250101D01*
Y465992D01*
X250174D01*
Y465956D01*
X251705D01*
Y465992D01*
X251814D01*
Y466029D01*
X251851D01*
Y466065D01*
X251887D01*
Y466138D01*
X251923D01*
Y466211D01*
X251960D01*
Y467122D01*
D02*
G37*
G36*
X250502Y462675D02*
X250429D01*
Y462639D01*
X250137D01*
Y462602D01*
X250028D01*
Y462566D01*
X249992D01*
Y462529D01*
X249919D01*
Y462493D01*
X249882D01*
Y462420D01*
X249846D01*
Y462384D01*
X249809D01*
Y462311D01*
X249773D01*
Y462238D01*
X249736D01*
Y461764D01*
X249773D01*
Y461691D01*
X249809D01*
Y461618D01*
X249846D01*
Y461582D01*
X249882D01*
Y461545D01*
X249919D01*
Y461509D01*
X249992D01*
Y461472D01*
X250064D01*
Y461436D01*
X250174D01*
Y461399D01*
X254585D01*
Y461436D01*
X254694D01*
Y461472D01*
X254767D01*
Y461509D01*
X254803D01*
Y461545D01*
X254840D01*
Y461582D01*
X254876D01*
Y461618D01*
X254913D01*
Y461691D01*
X254949D01*
Y461764D01*
X254985D01*
Y461910D01*
X255022D01*
Y462165D01*
X254985D01*
Y462311D01*
X254949D01*
Y462384D01*
X254913D01*
Y462456D01*
X254876D01*
Y462493D01*
X254840D01*
Y462529D01*
X254803D01*
Y462566D01*
X254730D01*
Y462602D01*
X254621D01*
Y462639D01*
X250502D01*
Y462675D01*
D02*
G37*
G36*
X260089Y449115D02*
X258230D01*
Y448313D01*
X258266D01*
Y448094D01*
X258303D01*
Y448022D01*
X258339D01*
Y447985D01*
X258376D01*
Y447949D01*
X258412D01*
Y447912D01*
X258485D01*
Y447876D01*
X258631D01*
Y447839D01*
X259651D01*
Y447876D01*
X259797D01*
Y447912D01*
X259870D01*
Y447949D01*
X259943D01*
Y447985D01*
X259979D01*
Y448022D01*
X260016D01*
Y448094D01*
X260052D01*
Y448204D01*
X260089D01*
Y449115D01*
D02*
G37*
G36*
X261984Y442116D02*
X261729D01*
Y442080D01*
X261510D01*
Y442043D01*
X261255D01*
Y442007D01*
X261036D01*
Y441970D01*
X260781D01*
Y441934D01*
X260563D01*
Y441898D01*
X260344D01*
Y441861D01*
X260089D01*
Y441825D01*
X259870D01*
Y441788D01*
X259615D01*
Y441752D01*
X259396D01*
Y441715D01*
X259141D01*
Y441679D01*
X259214D01*
Y441642D01*
X259469D01*
Y441606D01*
X259724D01*
Y441570D01*
X259979D01*
Y441533D01*
X260234D01*
Y441497D01*
X260526D01*
Y441460D01*
X260781D01*
Y441424D01*
X261036D01*
Y441387D01*
X261292D01*
Y441351D01*
X261547D01*
Y441314D01*
X261802D01*
Y441278D01*
X261984D01*
Y442116D01*
D02*
G37*
G36*
X254512Y427608D02*
X250247D01*
Y427572D01*
X250101D01*
Y427536D01*
X250028D01*
Y427499D01*
X249955D01*
Y427463D01*
X249919D01*
Y427426D01*
X249882D01*
Y427390D01*
X249846D01*
Y427317D01*
X249809D01*
Y427280D01*
X249773D01*
Y427171D01*
X249736D01*
Y426734D01*
X249773D01*
Y426624D01*
X249809D01*
Y426588D01*
X249846D01*
Y426515D01*
X249919D01*
Y426478D01*
X249955D01*
Y426442D01*
X250028D01*
Y426406D01*
X250101D01*
Y426369D01*
X250247D01*
Y426333D01*
X254512D01*
Y426369D01*
X254657D01*
Y426406D01*
X254730D01*
Y426442D01*
X254803D01*
Y426478D01*
X254840D01*
Y426515D01*
X254876D01*
Y426551D01*
X254913D01*
Y426624D01*
X254949D01*
Y426697D01*
X254985D01*
Y426843D01*
X255022D01*
Y427098D01*
X254985D01*
Y427244D01*
X254949D01*
Y427353D01*
X254913D01*
Y427390D01*
X254876D01*
Y427426D01*
X254840D01*
Y427463D01*
X254803D01*
Y427499D01*
X254767D01*
Y427536D01*
X254657D01*
Y427572D01*
X254512D01*
Y427608D01*
D02*
G37*
%LPD*%
D12*
X457000Y198631D02*
X456649Y199595D01*
X455760Y200108D01*
X454750Y199930D01*
X454090Y199144D01*
Y198118D01*
X454750Y197332D01*
X455760Y197153D01*
X456649Y197667D01*
X457000Y198631D01*
Y354969D02*
X456649Y355933D01*
X455760Y356447D01*
X454750Y356268D01*
X454090Y355482D01*
Y354456D01*
X454750Y353670D01*
X455760Y353492D01*
X456649Y354005D01*
X457000Y354969D01*
D15*
X296500Y379000D02*
X296600Y516278D01*
X307369Y513810D02*
Y515122D01*
X308025Y515778D01*
X310649D01*
X311305Y515122D01*
Y513810D01*
X310649Y513154D01*
X308025D01*
X307369Y513810D01*
X308681Y511842D02*
X311305D01*
X309993D01*
X309337Y511186D01*
X308681Y510530D01*
Y509874D01*
X311305Y507906D02*
Y506595D01*
Y507251D01*
X308681D01*
Y507906D01*
X311305Y502659D02*
Y503971D01*
X310649Y504627D01*
X309337D01*
X308681Y503971D01*
Y502659D01*
X309337Y502003D01*
X309993D01*
Y504627D01*
X311305Y500691D02*
X308681D01*
Y498723D01*
X309337Y498067D01*
X311305D01*
X308025Y496099D02*
X308681D01*
Y496755D01*
Y495443D01*
Y496099D01*
X310649D01*
X311305Y495443D01*
X308681Y492819D02*
Y491508D01*
X309337Y490852D01*
X311305D01*
Y492819D01*
X310649Y493475D01*
X309993Y492819D01*
Y490852D01*
X307369Y486916D02*
X311305D01*
Y488884D01*
X310649Y489540D01*
X309337D01*
X308681Y488884D01*
Y486916D01*
X311305Y484948D02*
Y483636D01*
X310649Y482980D01*
X309337D01*
X308681Y483636D01*
Y484948D01*
X309337Y485604D01*
X310649D01*
X311305Y484948D01*
Y477733D02*
X307369D01*
Y475765D01*
X308025Y475109D01*
X309337D01*
X309993Y475765D01*
Y477733D01*
X311305Y473141D02*
Y471829D01*
X310649Y471173D01*
X309337D01*
X308681Y471829D01*
Y473141D01*
X309337Y473797D01*
X310649D01*
X311305Y473141D01*
X308681Y469861D02*
X311305D01*
X309993D01*
X309337Y469205D01*
X308681Y468549D01*
Y467893D01*
Y465925D02*
Y465269D01*
X309337D01*
Y465925D01*
X308681D01*
X310649D02*
Y465269D01*
X311305D01*
Y465925D01*
X310649D01*
X323366Y515778D02*
X327302D01*
Y513810D01*
X326646Y513154D01*
X324022D01*
X323366Y513810D01*
Y515778D01*
X327302Y511186D02*
Y509874D01*
X326646Y509218D01*
X325334D01*
X324678Y509874D01*
Y511186D01*
X325334Y511842D01*
X326646D01*
X327302Y511186D01*
X324678Y507906D02*
X326646D01*
X327302Y507251D01*
Y505283D01*
X324678D01*
X324022Y503315D02*
X324678D01*
Y503971D01*
Y502659D01*
Y503315D01*
X326646D01*
X327302Y502659D01*
Y500035D02*
Y498723D01*
X326646Y498067D01*
X325334D01*
X324678Y498723D01*
Y500035D01*
X325334Y500691D01*
X326646D01*
X327302Y500035D01*
X324678Y496755D02*
X327302D01*
X325990D01*
X325334Y496099D01*
X324678Y495443D01*
Y494787D01*
Y492164D02*
Y490852D01*
X325334Y490196D01*
X327302D01*
Y492164D01*
X326646Y492819D01*
X325990Y492164D01*
Y490196D01*
X327302Y484948D02*
X323366D01*
X327302Y482324D01*
X323366D01*
X324678Y480356D02*
Y479044D01*
X325334Y478389D01*
X327302D01*
Y480356D01*
X326646Y481012D01*
X325990Y480356D01*
Y478389D01*
X324022Y476421D02*
X324678D01*
Y477077D01*
Y475765D01*
Y476421D01*
X326646D01*
X327302Y475765D01*
X324678Y473141D02*
Y471829D01*
X325334Y471173D01*
X327302D01*
Y473141D01*
X326646Y473797D01*
X325990Y473141D01*
Y471173D01*
X327302Y469861D02*
Y468549D01*
Y469205D01*
X323366D01*
Y469861D01*
X327302Y466581D02*
Y465269D01*
Y465925D01*
X324678D01*
Y466581D01*
Y462645D02*
Y461334D01*
X325334Y460678D01*
X327302D01*
Y462645D01*
X326646Y463302D01*
X325990Y462645D01*
Y460678D01*
X324022Y452806D02*
X323366Y453462D01*
Y454774D01*
X324022Y455430D01*
X326646D01*
X327302Y454774D01*
Y453462D01*
X326646Y452806D01*
X325334D01*
Y454118D01*
X324678Y450838D02*
Y449526D01*
X325334Y448870D01*
X327302D01*
Y450838D01*
X326646Y451494D01*
X325990Y450838D01*
Y448870D01*
X327302Y447558D02*
X324678D01*
Y446903D01*
X325334Y446247D01*
X327302D01*
X325334D01*
X324678Y445591D01*
X325334Y444935D01*
X327302D01*
Y441655D02*
Y442967D01*
X326646Y443623D01*
X325334D01*
X324678Y442967D01*
Y441655D01*
X325334Y440999D01*
X325990D01*
Y443623D01*
X327302Y439687D02*
Y438375D01*
Y439031D01*
X324678D01*
Y439687D01*
Y436407D02*
X327302D01*
X325990D01*
X325334Y435751D01*
X324678Y435095D01*
Y434439D01*
X327302Y431815D02*
Y430504D01*
X326646Y429848D01*
X325334D01*
X324678Y430504D01*
Y431815D01*
X325334Y432472D01*
X326646D01*
X327302Y431815D01*
X315368Y515778D02*
X319303D01*
Y513810D01*
X318648Y513154D01*
X316024D01*
X315368Y513810D01*
Y515778D01*
X319303Y511186D02*
Y509874D01*
X318648Y509218D01*
X317336D01*
X316680Y509874D01*
Y511186D01*
X317336Y511842D01*
X318648D01*
X319303Y511186D01*
X316680Y507906D02*
X318648D01*
X319303Y507251D01*
Y505283D01*
X316680D01*
X316024Y503315D02*
X316680D01*
Y503971D01*
Y502659D01*
Y503315D01*
X318648D01*
X319303Y502659D01*
Y500035D02*
Y498723D01*
X318648Y498067D01*
X317336D01*
X316680Y498723D01*
Y500035D01*
X317336Y500691D01*
X318648D01*
X319303Y500035D01*
X316680Y496755D02*
X319303D01*
X317991D01*
X317336Y496099D01*
X316680Y495443D01*
Y494787D01*
X315368Y488884D02*
X319303D01*
Y486260D01*
X316680Y484948D02*
X318648D01*
X319303Y484292D01*
Y482324D01*
X316680D01*
X319303Y481012D02*
Y479700D01*
Y480356D01*
X316680D01*
Y481012D01*
X319303Y477733D02*
Y475765D01*
X318648Y475109D01*
X317991Y475765D01*
Y477077D01*
X317336Y477733D01*
X316680Y477077D01*
Y475109D01*
X319303Y469861D02*
X315368D01*
X319303Y467237D01*
X315368D01*
X319303Y463957D02*
Y465269D01*
X318648Y465925D01*
X317336D01*
X316680Y465269D01*
Y463957D01*
X317336Y463302D01*
X317991D01*
Y465925D01*
X316680Y461990D02*
X319303Y460678D01*
X316680Y459366D01*
X319303Y456086D02*
Y457398D01*
X318648Y458054D01*
X317336D01*
X316680Y457398D01*
Y456086D01*
X317336Y455430D01*
X317991D01*
Y458054D01*
X319303Y454118D02*
Y452150D01*
X318648Y451494D01*
X317991Y452150D01*
Y453462D01*
X317336Y454118D01*
X316680Y453462D01*
Y451494D01*
X331364Y515778D02*
X335300D01*
Y513810D01*
X334644Y513154D01*
X332020D01*
X331364Y513810D01*
Y515778D01*
X335300Y511186D02*
Y509874D01*
X334644Y509218D01*
X333332D01*
X332676Y509874D01*
Y511186D01*
X333332Y511842D01*
X334644D01*
X335300Y511186D01*
X332676Y507906D02*
X334644D01*
X335300Y507251D01*
Y505283D01*
X332676D01*
X332020Y503315D02*
X332676D01*
Y503971D01*
Y502659D01*
Y503315D01*
X334644D01*
X335300Y502659D01*
Y500035D02*
Y498723D01*
X334644Y498067D01*
X333332D01*
X332676Y498723D01*
Y500035D01*
X333332Y500691D01*
X334644D01*
X335300Y500035D01*
X332676Y496755D02*
X335300D01*
X333988D01*
X333332Y496099D01*
X332676Y495443D01*
Y494787D01*
X335300Y488884D02*
X331364D01*
X335300Y486260D01*
X331364D01*
X332676Y484948D02*
X334644D01*
X335300Y484292D01*
Y482324D01*
X332676D01*
X335300Y481012D02*
X332676D01*
Y479044D01*
X333332Y478389D01*
X335300D01*
Y476421D02*
Y475109D01*
X334644Y474453D01*
X333332D01*
X332676Y475109D01*
Y476421D01*
X333332Y477077D01*
X334644D01*
X335300Y476421D01*
X332020Y466581D02*
X331364Y467237D01*
Y468549D01*
X332020Y469205D01*
X334644D01*
X335300Y468549D01*
Y467237D01*
X334644Y466581D01*
X333332D01*
Y467893D01*
X335300Y465269D02*
Y463957D01*
Y464613D01*
X332676D01*
Y465269D01*
X335300Y461990D02*
Y460678D01*
Y461334D01*
X331364D01*
Y461990D01*
X293000Y365376D02*
Y368000D01*
X290376Y365376D01*
X289720D01*
X289064Y366032D01*
Y367344D01*
X289720Y368000D01*
Y364064D02*
X289064Y363408D01*
Y362096D01*
X289720Y361440D01*
X292344D01*
X293000Y362096D01*
Y363408D01*
X292344Y364064D01*
X289720D01*
X293000Y357505D02*
Y360128D01*
X290376Y357505D01*
X289720D01*
X289064Y358161D01*
Y359473D01*
X289720Y360128D01*
X293000Y354225D02*
X289064D01*
X291032Y356193D01*
Y353569D01*
X276688Y515778D02*
X272752D01*
Y513810D01*
X273408Y513154D01*
X274720D01*
X275376Y513810D01*
Y515778D01*
X274064Y511842D02*
X276688D01*
X275376D01*
X274720Y511186D01*
X274064Y510530D01*
Y509874D01*
X276688Y507251D02*
Y505939D01*
X276032Y505283D01*
X274720D01*
X274064Y505939D01*
Y507251D01*
X274720Y507906D01*
X276032D01*
X276688Y507251D01*
X278000Y503971D02*
Y503315D01*
X277344Y502659D01*
X274064D01*
X276688Y498067D02*
Y499379D01*
X276032Y500035D01*
X274720D01*
X274064Y499379D01*
Y498067D01*
X274720Y497411D01*
X275376D01*
Y500035D01*
X273408Y495443D02*
X274064D01*
Y496099D01*
Y494787D01*
Y495443D01*
X276032D01*
X276688Y494787D01*
Y492164D02*
Y490852D01*
X276032Y490196D01*
X274720D01*
X274064Y490852D01*
Y492164D01*
X274720Y492819D01*
X276032D01*
X276688Y492164D01*
X272752Y482324D02*
Y484948D01*
X274720D01*
Y483636D01*
Y484948D01*
X276688D01*
Y481012D02*
Y479700D01*
Y480356D01*
X274064D01*
Y481012D01*
X276688Y477733D02*
X274064D01*
Y475765D01*
X274720Y475109D01*
X276688D01*
X274064Y473141D02*
Y471829D01*
X274720Y471173D01*
X276688D01*
Y473141D01*
X276032Y473797D01*
X275376Y473141D01*
Y471173D01*
X276688Y469861D02*
Y468549D01*
Y469205D01*
X272752D01*
Y469861D01*
Y460022D02*
X276688D01*
Y461990D01*
X276032Y462645D01*
X274720D01*
X274064Y461990D01*
Y460022D01*
X276688Y456742D02*
Y458054D01*
X276032Y458710D01*
X274720D01*
X274064Y458054D01*
Y456742D01*
X274720Y456086D01*
X275376D01*
Y458710D01*
X273408Y448214D02*
X272752Y448870D01*
Y450182D01*
X273408Y450838D01*
X276032D01*
X276688Y450182D01*
Y448870D01*
X276032Y448214D01*
X274064Y446903D02*
X276032D01*
X276688Y446247D01*
Y444279D01*
X274064D01*
Y442967D02*
X276688D01*
X275376D01*
X274720Y442311D01*
X274064Y441655D01*
Y440999D01*
X276688Y439031D02*
Y437063D01*
X276032Y436407D01*
X275376Y437063D01*
Y438375D01*
X274720Y439031D01*
X274064Y438375D01*
Y436407D01*
X276688Y434439D02*
Y433127D01*
X276032Y432472D01*
X274720D01*
X274064Y433127D01*
Y434439D01*
X274720Y435095D01*
X276032D01*
X276688Y434439D01*
X303307Y515778D02*
X299371D01*
Y513810D01*
X300027Y513154D01*
X301339D01*
X301995Y513810D01*
Y515778D01*
X300683Y511842D02*
X303307D01*
X301995D01*
X301339Y511186D01*
X300683Y510530D01*
Y509874D01*
X303307Y507251D02*
Y505939D01*
X302651Y505283D01*
X301339D01*
X300683Y505939D01*
Y507251D01*
X301339Y507906D01*
X302651D01*
X303307Y507251D01*
X304619Y503971D02*
Y503315D01*
X303963Y502659D01*
X300683D01*
X303307Y498067D02*
Y499379D01*
X302651Y500035D01*
X301339D01*
X300683Y499379D01*
Y498067D01*
X301339Y497411D01*
X301995D01*
Y500035D01*
X300027Y495443D02*
X300683D01*
Y496099D01*
Y494787D01*
Y495443D01*
X302651D01*
X303307Y494787D01*
Y492164D02*
Y490852D01*
X302651Y490196D01*
X301339D01*
X300683Y490852D01*
Y492164D01*
X301339Y492819D01*
X302651D01*
X303307Y492164D01*
X299371Y482324D02*
X303307D01*
Y484292D01*
X302651Y484948D01*
X301339D01*
X300683Y484292D01*
Y482324D01*
X303307Y479044D02*
Y480356D01*
X302651Y481012D01*
X301339D01*
X300683Y480356D01*
Y479044D01*
X301339Y478389D01*
X301995D01*
Y481012D01*
X300683Y477077D02*
Y476421D01*
X301339D01*
Y477077D01*
X300683D01*
X302651D02*
Y476421D01*
X303307D01*
Y477077D01*
X302651D01*
X300027Y467237D02*
X299371Y467893D01*
Y469205D01*
X300027Y469861D01*
X302651D01*
X303307Y469205D01*
Y467893D01*
X302651Y467237D01*
X301339D01*
Y468549D01*
X300683Y465925D02*
X302651D01*
X303307Y465269D01*
Y463302D01*
X300683D01*
X303307Y461990D02*
Y460678D01*
Y461334D01*
X300683D01*
Y461990D01*
X303307Y458710D02*
Y457398D01*
Y458054D01*
X299371D01*
Y458710D01*
Y455430D02*
X303307D01*
X301339D01*
X300683Y454774D01*
Y453462D01*
X301339Y452806D01*
X303307D01*
Y449526D02*
Y450838D01*
X302651Y451494D01*
X301339D01*
X300683Y450838D01*
Y449526D01*
X301339Y448870D01*
X301995D01*
Y451494D01*
X300683Y447558D02*
X303307D01*
X301995D01*
X301339Y446903D01*
X300683Y446247D01*
Y445591D01*
X303307Y443623D02*
X300683D01*
Y442967D01*
X301339Y442311D01*
X303307D01*
X301339D01*
X300683Y441655D01*
X301339Y440999D01*
X303307D01*
Y437719D02*
Y439031D01*
X302651Y439687D01*
X301339D01*
X300683Y439031D01*
Y437719D01*
X301339Y437063D01*
X301995D01*
Y439687D01*
X300027Y429192D02*
X299371Y429848D01*
Y431160D01*
X300027Y431816D01*
X302651D01*
X303307Y431160D01*
Y429848D01*
X302651Y429192D01*
X300683Y427224D02*
Y425912D01*
X301339Y425256D01*
X303307D01*
Y427224D01*
X302651Y427880D01*
X301995Y427224D01*
Y425256D01*
X303307Y423944D02*
X300683D01*
Y421976D01*
X301339Y421320D01*
X303307D01*
X299371Y417384D02*
X303307D01*
Y419352D01*
X302651Y420008D01*
X301339D01*
X300683Y419352D01*
Y417384D01*
X303307Y416073D02*
Y414761D01*
Y415417D01*
X300683D01*
Y416073D01*
X299371Y410169D02*
X303307D01*
Y412137D01*
X302651Y412793D01*
X301339D01*
X300683Y412137D01*
Y410169D01*
X303307Y408201D02*
Y406889D01*
X302651Y406233D01*
X301339D01*
X300683Y406889D01*
Y408201D01*
X301339Y408857D01*
X302651D01*
X303307Y408201D01*
X290717Y513154D02*
X290061Y513810D01*
Y515122D01*
X290717Y515778D01*
X293341D01*
X293997Y515122D01*
Y513810D01*
X293341Y513154D01*
X293997Y511186D02*
Y509874D01*
X293341Y509218D01*
X292029D01*
X291373Y509874D01*
Y511186D01*
X292029Y511842D01*
X293341D01*
X293997Y511186D01*
Y507906D02*
X291373D01*
Y505939D01*
X292029Y505283D01*
X293997D01*
X291373Y503971D02*
X293997Y502659D01*
X291373Y501347D01*
X293997Y498067D02*
Y499379D01*
X293341Y500035D01*
X292029D01*
X291373Y499379D01*
Y498067D01*
X292029Y497411D01*
X292685D01*
Y500035D01*
X291373Y496099D02*
X293997D01*
X292685D01*
X292029Y495443D01*
X291373Y494787D01*
Y494131D01*
X293997Y492164D02*
Y490196D01*
X293341Y489540D01*
X292685Y490196D01*
Y491508D01*
X292029Y492164D01*
X291373Y491508D01*
Y489540D01*
X293997Y487572D02*
Y486260D01*
X293341Y485604D01*
X292029D01*
X291373Y486260D01*
Y487572D01*
X292029Y488228D01*
X293341D01*
X293997Y487572D01*
X291373Y484292D02*
X293997D01*
X292685D01*
X292029Y483636D01*
X291373Y482980D01*
Y482324D01*
X290061Y476421D02*
X293997D01*
Y474453D01*
X293341Y473797D01*
X292685D01*
X292029Y474453D01*
Y476421D01*
Y474453D01*
X291373Y473797D01*
X290717D01*
X290061Y474453D01*
Y476421D01*
X293997Y472485D02*
Y471173D01*
Y471829D01*
X291373D01*
Y472485D01*
X292029Y469205D02*
Y466581D01*
X290061Y465269D02*
X293997D01*
Y463302D01*
X293341Y462645D01*
X290717D01*
X290061Y463302D01*
Y465269D01*
X293997Y461334D02*
Y460022D01*
Y460678D01*
X291373D01*
Y461334D01*
Y458054D02*
X293997D01*
X292685D01*
X292029Y457398D01*
X291373Y456742D01*
Y456086D01*
X293997Y452150D02*
Y453462D01*
X293341Y454118D01*
X292029D01*
X291373Y453462D01*
Y452150D01*
X292029Y451494D01*
X292685D01*
Y454118D01*
X291373Y447558D02*
Y449526D01*
X292029Y450182D01*
X293341D01*
X293997Y449526D01*
Y447558D01*
Y446247D02*
Y444935D01*
Y445591D01*
X291373D01*
Y446247D01*
X293997Y442311D02*
Y440999D01*
X293341Y440343D01*
X292029D01*
X291373Y440999D01*
Y442311D01*
X292029Y442967D01*
X293341D01*
X293997Y442311D01*
Y439031D02*
X291373D01*
Y437063D01*
X292029Y436407D01*
X293997D01*
X291373Y434439D02*
Y433127D01*
X292029Y432472D01*
X293997D01*
Y434439D01*
X293341Y435095D01*
X292685Y434439D01*
Y432472D01*
X293997Y431160D02*
Y429848D01*
Y430504D01*
X290061D01*
Y431160D01*
X292029Y423944D02*
Y421320D01*
X290717Y413449D02*
X290061Y414105D01*
Y415417D01*
X290717Y416073D01*
X293341D01*
X293997Y415417D01*
Y414105D01*
X293341Y413449D01*
X293997Y411481D02*
Y410169D01*
X293341Y409513D01*
X292029D01*
X291373Y410169D01*
Y411481D01*
X292029Y412137D01*
X293341D01*
X293997Y411481D01*
Y408201D02*
X291373D01*
Y406233D01*
X292029Y405577D01*
X293997D01*
X290717Y403609D02*
X291373D01*
Y404265D01*
Y402953D01*
Y403609D01*
X293341D01*
X293997Y402953D01*
X291373Y400986D02*
X293997D01*
X292685D01*
X292029Y400330D01*
X291373Y399674D01*
Y399018D01*
X293997Y396394D02*
Y395082D01*
X293341Y394426D01*
X292029D01*
X291373Y395082D01*
Y396394D01*
X292029Y397050D01*
X293341D01*
X293997Y396394D01*
Y393114D02*
Y391802D01*
Y392458D01*
X290061D01*
Y393114D01*
Y385899D02*
X293997D01*
Y383931D01*
X293341Y383275D01*
X292685D01*
X292029Y383931D01*
Y385899D01*
Y383931D01*
X291373Y383275D01*
X290717D01*
X290061Y383931D01*
Y385899D01*
X293997Y381307D02*
Y379995D01*
X293341Y379339D01*
X292029D01*
X291373Y379995D01*
Y381307D01*
X292029Y381963D01*
X293341D01*
X293997Y381307D01*
X291373Y377371D02*
Y376059D01*
X292029Y375403D01*
X293997D01*
Y377371D01*
X293341Y378027D01*
X292685Y377371D01*
Y375403D01*
X291373Y374091D02*
X293997D01*
X292685D01*
X292029Y373435D01*
X291373Y372779D01*
Y372124D01*
X290061Y367532D02*
X293997D01*
Y369500D01*
X293341Y370156D01*
X292029D01*
X291373Y369500D01*
Y367532D01*
X282063Y513154D02*
Y515778D01*
X285998D01*
Y513154D01*
X284031Y515778D02*
Y514466D01*
X285998Y511842D02*
X283375D01*
Y509874D01*
X284031Y509218D01*
X285998D01*
X287310Y506595D02*
Y505939D01*
X286654Y505283D01*
X283375D01*
Y507251D01*
X284031Y507906D01*
X285342D01*
X285998Y507251D01*
Y505283D01*
Y502003D02*
Y503315D01*
X285342Y503971D01*
X284031D01*
X283375Y503315D01*
Y502003D01*
X284031Y501347D01*
X284686D01*
Y503971D01*
X285998Y500035D02*
X283375D01*
Y498067D01*
X284031Y497411D01*
X285998D01*
X282063Y496099D02*
X285998D01*
X284031D01*
X283375Y495443D01*
Y494131D01*
X284031Y493475D01*
X285998D01*
X283375Y491508D02*
Y490196D01*
X284031Y489540D01*
X285998D01*
Y491508D01*
X285342Y492164D01*
X284686Y491508D01*
Y489540D01*
X283375Y488228D02*
X285998D01*
X284686D01*
X284031Y487572D01*
X283375Y486916D01*
Y486260D01*
X285998Y484292D02*
Y482980D01*
Y483636D01*
X283375D01*
Y484292D01*
Y480356D02*
Y479044D01*
X284031Y478389D01*
X285998D01*
Y480356D01*
X285342Y481012D01*
X284686Y480356D01*
Y478389D01*
X282063Y470517D02*
Y473141D01*
X285998D01*
Y470517D01*
X284031Y473141D02*
Y471829D01*
X285998Y469205D02*
Y467893D01*
Y468549D01*
X282063D01*
Y469205D01*
X285998Y463957D02*
Y465269D01*
X285342Y465925D01*
X284031D01*
X283375Y465269D01*
Y463957D01*
X284031Y463302D01*
X284686D01*
Y465925D01*
X282719Y461334D02*
X283375D01*
Y461990D01*
Y460678D01*
Y461334D01*
X285342D01*
X285998Y460678D01*
X283375Y458710D02*
X285998D01*
X284686D01*
X284031Y458054D01*
X283375Y457398D01*
Y456742D01*
X285998Y454118D02*
Y452806D01*
X285342Y452150D01*
X284031D01*
X283375Y452806D01*
Y454118D01*
X284031Y454774D01*
X285342D01*
X285998Y454118D01*
X282719Y450182D02*
X283375D01*
Y450838D01*
Y449526D01*
Y450182D01*
X285342D01*
X285998Y449526D01*
Y445591D02*
Y446903D01*
X285342Y447558D01*
X284031D01*
X283375Y446903D01*
Y445591D01*
X284031Y444935D01*
X284686D01*
Y447558D01*
X283375Y440999D02*
Y442967D01*
X284031Y443623D01*
X285342D01*
X285998Y442967D01*
Y440999D01*
Y439687D02*
X283375D01*
Y437719D01*
X284031Y437063D01*
X285998D01*
Y435751D02*
Y434439D01*
Y435095D01*
X283375D01*
Y435751D01*
Y429848D02*
Y431816D01*
X284031Y432472D01*
X285342D01*
X285998Y431816D01*
Y429848D01*
X283375Y427880D02*
Y426568D01*
X284031Y425912D01*
X285998D01*
Y427880D01*
X285342Y428536D01*
X284686Y427880D01*
Y425912D01*
X285998Y418696D02*
Y420008D01*
X285342Y420664D01*
X284031D01*
X283375Y420008D01*
Y418696D01*
X284031Y418041D01*
X284686D01*
Y420664D01*
X282063Y410169D02*
X285998D01*
Y412137D01*
X285342Y412793D01*
X284031D01*
X283375Y412137D01*
Y410169D01*
X285998Y406889D02*
Y408201D01*
X285342Y408857D01*
X284031D01*
X283375Y408201D01*
Y406889D01*
X284031Y406233D01*
X284686D01*
Y408857D01*
X282719Y398362D02*
X282063Y399018D01*
Y400330D01*
X282719Y400986D01*
X285342D01*
X285998Y400330D01*
Y399018D01*
X285342Y398362D01*
X285998Y396394D02*
Y395082D01*
X285342Y394426D01*
X284031D01*
X283375Y395082D01*
Y396394D01*
X284031Y397050D01*
X285342D01*
X285998Y396394D01*
Y393114D02*
X283375D01*
Y392458D01*
X284031Y391802D01*
X285998D01*
X284031D01*
X283375Y391146D01*
X284031Y390490D01*
X285998D01*
X287310Y389178D02*
X283375D01*
Y387210D01*
X284031Y386555D01*
X285342D01*
X285998Y387210D01*
Y389178D01*
X283375Y385243D02*
X285342D01*
X285998Y384587D01*
Y382619D01*
X283375D01*
X282719Y380651D02*
X283375D01*
Y381307D01*
Y379995D01*
Y380651D01*
X285342D01*
X285998Y379995D01*
X283375Y377371D02*
Y376059D01*
X284031Y375403D01*
X285998D01*
Y377371D01*
X285342Y378027D01*
X284686Y377371D01*
Y375403D01*
X282063Y371468D02*
X285998D01*
Y373435D01*
X285342Y374091D01*
X284031D01*
X283375Y373435D01*
Y371468D01*
X285998Y369500D02*
Y368188D01*
X285342Y367532D01*
X284031D01*
X283375Y368188D01*
Y369500D01*
X284031Y370156D01*
X285342D01*
X285998Y369500D01*
X283375Y366220D02*
X285998D01*
X284686D01*
X284031Y365564D01*
X283375Y364908D01*
Y364252D01*
X285998Y360316D02*
Y361628D01*
X285342Y362284D01*
X284031D01*
X283375Y361628D01*
Y360316D01*
X284031Y359660D01*
X284686D01*
Y362284D01*
X285998Y358348D02*
Y356381D01*
X285342Y355725D01*
X284686Y356381D01*
Y357693D01*
X284031Y358348D01*
X283375Y357693D01*
Y355725D01*
M02*
