M48
;Layer_Color=9474304
;FILE_FORMAT=2:4
INCH,TZ
;TYPE=PLATED
T01F00S00C0.0280
T02F00S00C0.0295
T03F00S00C0.0315
T04F00S00C0.0354
T05F00S00C0.0390
T06F00S00C0.0402
T07F00S00C0.0417
T08F00S00C0.0421
T09F00S00C0.0488
T10F00S00C0.0550
T11F00S00C0.1378
%
T01
X32560Y29510
X32590Y30840
X33880Y30570
X34680Y28990
X41910Y20165
X30150Y24460
X25310Y18990
X17590Y21840
X19080Y28770
X13960Y28650
X12440Y24930
X13490Y17170
X12100Y42400
X11691Y42809
X22400Y32000
X33270Y34110
X47150Y39220
T02
X15600Y24000
Y24984
X14542Y30350
X13558
X17450Y38800
X18434
X20208Y45900
X21192
X37708Y42200
X38692
Y36650
X37708
X37758Y48050
X38742
X21192Y52150
X20208
T03
X33531Y24050
Y26450
X29200
Y24050
X11550Y43481
Y45450
X12035Y46650
X16365
X16850Y45384
Y43416
X18535Y43800
Y42400
X22865
Y43800
X20115Y36750
Y35400
X15785
Y36750
X36035Y38650
Y40050
X40365
Y38650
Y34650
Y33400
X36035
Y34650
Y44500
X36085Y46050
X40415
X40365Y44500
X41700Y44400
Y46368
X47950Y46584
Y44616
X22865Y48650
Y50050
X18535
Y48650
T04
X27150Y24050
X28150
Y26450
X27150
T05
X45850Y27866
Y28850
Y29834
Y30819
Y33000
Y33984
Y34969
T06
X38400Y16650
X39400
Y17650
X38400
X40975
X41975
Y16650
X40975
X43425
X44425
Y17650
X43425
X31150Y15750
X30150
X29150
X28150
X20100Y16650
Y17650
X19100
Y16650
X17525
Y17650
X16525
Y16650
X15075
Y17650
X14075
Y16650
X24200Y35050
Y36050
Y37050
Y38050
Y39050
Y40050
Y41050
Y42050
Y43050
Y44050
Y45050
Y46050
X34200
Y45050
Y44050
Y43050
Y42050
Y41050
Y40050
Y39050
Y38050
Y37050
Y36050
Y35050
Y47050
Y48050
Y49050
Y50050
Y51050
Y52050
Y53050
X24200
Y52050
Y51050
Y50050
Y49050
Y48050
Y47050
T07
X17650Y22511
X19050
Y26589
X17650
X42600Y48461
X44000
Y52539
X42600
T08
X43750Y46299
X44750
X45750
T09
X11850Y33100
Y34100
Y35100
T10
X45550Y21516
Y22894
Y24272
Y25650
Y37150
Y38528
Y39906
Y41284
T11
X46700Y18250
X11750
X46700Y51100
X11750
M30
