G04*
G04 #@! TF.GenerationSoftware,Altium Limited,Altium Designer,23.8.1 (32)*
G04*
G04 Layer_Physical_Order=2*
G04 Layer_Color=16711680*
%FSLAX25Y25*%
%MOIN*%
G70*
G04*
G04 #@! TF.SameCoordinates,C7E29C90-252A-4D1B-ADA4-5BBD7A111965*
G04*
G04*
G04 #@! TF.FilePolarity,Positive*
G04*
G01*
G75*
%ADD26C,0.05900*%
%ADD27C,0.07500*%
%ADD41C,0.01500*%
%ADD42C,0.01968*%
%ADD43R,0.04331X0.04331*%
%ADD44C,0.04331*%
%ADD45C,0.04724*%
%ADD46C,0.04528*%
%ADD47R,0.06319X0.06319*%
%ADD48C,0.06319*%
%ADD49R,0.06260X0.06260*%
%ADD50C,0.06260*%
%ADD51R,0.04331X0.04331*%
%ADD52R,0.06024X0.06024*%
%ADD53C,0.06024*%
%ADD54R,0.07323X0.07323*%
%ADD55C,0.07323*%
%ADD56R,0.05512X0.05512*%
%ADD57C,0.05512*%
%ADD58R,0.05394X0.05394*%
%ADD59C,0.05394*%
%ADD60C,0.17717*%
%ADD61C,0.05000*%
G36*
X479390Y539100D02*
Y539100D01*
X479872Y539057D01*
X480700Y538975D01*
X481959Y538593D01*
X483120Y537973D01*
X484138Y537138D01*
X484973Y536120D01*
X485593Y534959D01*
X485975Y533700D01*
X486057Y532872D01*
X486100Y532390D01*
X486100Y531893D01*
X486100Y531892D01*
Y158871D01*
X486100Y158374D01*
X486057Y157892D01*
X485975Y157064D01*
X485593Y155804D01*
X484973Y154644D01*
X484138Y153626D01*
X483120Y152791D01*
X481959Y152171D01*
X480700Y151788D01*
X479406Y151661D01*
X479390Y151664D01*
X398174D01*
X397967Y152164D01*
X408503Y162701D01*
X413547D01*
Y169494D01*
X414200D01*
X416106Y167587D01*
X415949Y167000D01*
Y166000D01*
X416208Y165034D01*
X416708Y164167D01*
X417415Y163460D01*
X418282Y162960D01*
X419248Y162701D01*
X420248D01*
X421214Y162960D01*
X422081Y163460D01*
X422788Y164167D01*
X423288Y165034D01*
X423547Y166000D01*
Y167000D01*
X423288Y167966D01*
X422788Y168833D01*
X422081Y169540D01*
X421214Y170040D01*
X420248Y170299D01*
X419248D01*
X418661Y170142D01*
X416225Y172577D01*
X415639Y172969D01*
X414948Y173106D01*
X412735D01*
X412528Y173606D01*
X412958Y174037D01*
X413486Y174952D01*
X413760Y175972D01*
Y176000D01*
X405736D01*
Y175972D01*
X406010Y174952D01*
X406538Y174037D01*
X406968Y173606D01*
X406761Y173106D01*
X405800D01*
X405109Y172969D01*
X404523Y172577D01*
X398299Y166354D01*
X397799Y166561D01*
Y167000D01*
X397540Y167966D01*
X397040Y168833D01*
X396333Y169540D01*
X395466Y170040D01*
X394500Y170299D01*
X393500D01*
X392534Y170040D01*
X391667Y169540D01*
X390960Y168833D01*
X390460Y167966D01*
X390201Y167000D01*
Y166000D01*
X390460Y165034D01*
X390960Y164167D01*
X391159Y163968D01*
X390967Y163506D01*
X387799D01*
Y170299D01*
X380201D01*
Y163506D01*
X370434D01*
X370191Y163669D01*
X369500Y163806D01*
X286000D01*
X285309Y163669D01*
X284723Y163277D01*
X282430Y160984D01*
X280570D01*
X273777Y167777D01*
X273191Y168169D01*
X272500Y168306D01*
X204344D01*
X204040Y168833D01*
X203479Y169394D01*
X203686Y169894D01*
X260400D01*
X261091Y170031D01*
X261677Y170423D01*
X270748Y179494D01*
X380667D01*
X380858Y179032D01*
X380790Y178963D01*
X380262Y178049D01*
X379988Y177028D01*
Y177000D01*
X388012D01*
Y177028D01*
X387738Y178049D01*
X387210Y178963D01*
X387142Y179032D01*
X387333Y179494D01*
X388452D01*
X390358Y177587D01*
X390201Y177000D01*
Y176000D01*
X390460Y175034D01*
X390960Y174167D01*
X391667Y173460D01*
X392534Y172960D01*
X393500Y172701D01*
X394500D01*
X395466Y172960D01*
X396333Y173460D01*
X397040Y174167D01*
X397540Y175034D01*
X397799Y176000D01*
Y177000D01*
X397540Y177966D01*
X397040Y178833D01*
X396333Y179540D01*
X395466Y180040D01*
X394500Y180299D01*
X393500D01*
X392913Y180142D01*
X390477Y182577D01*
X389891Y182969D01*
X389200Y183106D01*
X270000D01*
X269309Y182969D01*
X268723Y182577D01*
X259652Y173506D01*
X204032D01*
X203841Y173968D01*
X204040Y174167D01*
X204344Y174694D01*
X251500D01*
X252191Y174831D01*
X252777Y175223D01*
X262048Y184494D01*
X409200D01*
X416106Y177587D01*
X415949Y177000D01*
Y176000D01*
X416208Y175034D01*
X416708Y174167D01*
X417415Y173460D01*
X418282Y172960D01*
X419248Y172701D01*
X420248D01*
X421214Y172960D01*
X422081Y173460D01*
X422788Y174167D01*
X423288Y175034D01*
X423547Y176000D01*
Y177000D01*
X423288Y177966D01*
X422788Y178833D01*
X422081Y179540D01*
X421214Y180040D01*
X420248Y180299D01*
X419248D01*
X418661Y180142D01*
X411225Y187577D01*
X411201Y187594D01*
X411352Y188094D01*
X420104D01*
X430610Y177587D01*
X430453Y177000D01*
Y176000D01*
X430712Y175034D01*
X431212Y174167D01*
X431919Y173460D01*
X432786Y172960D01*
X433752Y172701D01*
X434752D01*
X435718Y172960D01*
X436585Y173460D01*
X437292Y174167D01*
X437792Y175034D01*
X438051Y176000D01*
Y177000D01*
X437792Y177966D01*
X437292Y178833D01*
X436585Y179540D01*
X435718Y180040D01*
X434752Y180299D01*
X433752D01*
X433165Y180142D01*
X422129Y191177D01*
X421543Y191569D01*
X420852Y191706D01*
X256068D01*
X255917Y191932D01*
X256185Y192432D01*
X405066D01*
X405666Y192552D01*
X406175Y192892D01*
X415313Y202029D01*
X415813Y201822D01*
Y201219D01*
X416037Y200383D01*
X416469Y199634D01*
X417081Y199021D01*
X417831Y198589D01*
X418667Y198365D01*
X419533D01*
X419769Y198428D01*
X440610Y177587D01*
X440453Y177000D01*
Y176000D01*
X440712Y175034D01*
X441212Y174167D01*
X441919Y173460D01*
X442786Y172960D01*
X443752Y172701D01*
X444752D01*
X445718Y172960D01*
X446585Y173460D01*
X447292Y174167D01*
X447792Y175034D01*
X448051Y176000D01*
Y177000D01*
X447792Y177966D01*
X447292Y178833D01*
X446585Y179540D01*
X445718Y180040D01*
X444752Y180299D01*
X443752D01*
X443165Y180142D01*
X422324Y200983D01*
X422387Y201219D01*
Y202085D01*
X422163Y202921D01*
X421731Y203671D01*
X421118Y204283D01*
X420369Y204715D01*
X419533Y204939D01*
X418930D01*
X418723Y205439D01*
X432517Y219234D01*
X449211D01*
X451367Y217078D01*
X451272Y216913D01*
X450963Y215759D01*
Y214564D01*
X451272Y213410D01*
X451869Y212375D01*
X452714Y211531D01*
X453749Y210933D01*
X454903Y210624D01*
X456097D01*
X457251Y210933D01*
X458286Y211531D01*
X459131Y212375D01*
X459728Y213410D01*
X460037Y214564D01*
Y215759D01*
X459728Y216913D01*
X459131Y217947D01*
X458286Y218792D01*
X457251Y219390D01*
X456097Y219699D01*
X454903D01*
X453749Y219390D01*
X453584Y219294D01*
X451159Y221719D01*
X451122Y221812D01*
Y222290D01*
X451159Y222383D01*
X453584Y224808D01*
X453749Y224713D01*
X454903Y224404D01*
X456097D01*
X457251Y224713D01*
X458286Y225310D01*
X459131Y226155D01*
X459728Y227190D01*
X460037Y228344D01*
Y229538D01*
X459728Y230692D01*
X459131Y231727D01*
X458286Y232572D01*
X457251Y233169D01*
X456097Y233478D01*
X454903D01*
X453749Y233169D01*
X452714Y232572D01*
X451869Y231727D01*
X451272Y230692D01*
X450963Y229538D01*
Y228344D01*
X451272Y227190D01*
X451367Y227025D01*
X449211Y224869D01*
X430832D01*
X430232Y224749D01*
X429724Y224410D01*
X403382Y198067D01*
X110567D01*
Y413675D01*
X118622Y421729D01*
X118982Y421369D01*
X119731Y420937D01*
X120567Y420713D01*
X121433D01*
X122269Y420937D01*
X123019Y421369D01*
X123631Y421981D01*
X124063Y422731D01*
X124287Y423567D01*
Y424433D01*
X124063Y425269D01*
X123631Y426018D01*
X123019Y426631D01*
X122269Y427063D01*
X121433Y427287D01*
X120613D01*
X120480Y427342D01*
X120249Y427573D01*
X120195Y427705D01*
Y428525D01*
X119971Y429361D01*
X119538Y430111D01*
X118926Y430723D01*
X118176Y431156D01*
X117340Y431380D01*
X117078D01*
X116944Y431880D01*
X117504Y432203D01*
X118112Y432811D01*
X118541Y433555D01*
X118745Y434315D01*
X115500D01*
X112255D01*
X112459Y433555D01*
X112888Y432811D01*
X113496Y432203D01*
X114240Y431774D01*
X115070Y431551D01*
X115324D01*
X115458Y431051D01*
X114889Y430723D01*
X114277Y430111D01*
X113844Y429361D01*
X113620Y428525D01*
Y427660D01*
X113844Y426824D01*
X114277Y426074D01*
X114637Y425714D01*
X105392Y416468D01*
X105052Y415960D01*
X104932Y415360D01*
Y196343D01*
X105052Y195743D01*
X105392Y195235D01*
X107735Y192892D01*
X108243Y192552D01*
X108843Y192432D01*
X115429D01*
X115478Y191932D01*
X114687Y191775D01*
X112931Y191048D01*
X111351Y189992D01*
X110008Y188649D01*
X108952Y187069D01*
X108225Y185313D01*
X107854Y183450D01*
Y181550D01*
X108225Y179686D01*
X108952Y177931D01*
X110008Y176351D01*
X111351Y175008D01*
X112931Y173952D01*
X114687Y173225D01*
X116550Y172854D01*
X118450D01*
X120314Y173225D01*
X122069Y173952D01*
X123649Y175008D01*
X124992Y176351D01*
X126048Y177931D01*
X126775Y179686D01*
X127146Y181550D01*
Y183450D01*
X126775Y185313D01*
X126048Y187069D01*
X124992Y188649D01*
X123649Y189992D01*
X122069Y191048D01*
X120314Y191775D01*
X119522Y191932D01*
X119571Y192432D01*
X250330D01*
X250521Y191971D01*
X250469Y191919D01*
X250037Y191169D01*
X249813Y190333D01*
Y189467D01*
X250037Y188631D01*
X250469Y187882D01*
X251081Y187269D01*
X251831Y186837D01*
X252667Y186613D01*
X253533D01*
X254369Y186837D01*
X255118Y187269D01*
X255731Y187882D01*
X255853Y188094D01*
X259895D01*
X260047Y187594D01*
X260023Y187577D01*
X250752Y178306D01*
X204344D01*
X204040Y178833D01*
X203333Y179540D01*
X202466Y180040D01*
X201500Y180299D01*
X200500D01*
X199534Y180040D01*
X198667Y179540D01*
X197960Y178833D01*
X197460Y177966D01*
X197201Y177000D01*
Y176000D01*
X197460Y175034D01*
X197960Y174167D01*
X198159Y173968D01*
X197968Y173506D01*
X194333D01*
X194142Y173968D01*
X194210Y174037D01*
X194738Y174952D01*
X195012Y175972D01*
Y176000D01*
X186988D01*
Y175972D01*
X187262Y174952D01*
X187790Y174037D01*
X187858Y173968D01*
X187667Y173506D01*
X178285D01*
X178093Y173968D01*
X178292Y174167D01*
X178792Y175034D01*
X179051Y176000D01*
Y177000D01*
X178792Y177966D01*
X178292Y178833D01*
X177585Y179540D01*
X176718Y180040D01*
X175752Y180299D01*
X174752D01*
X173786Y180040D01*
X172919Y179540D01*
X172212Y178833D01*
X171712Y177966D01*
X171453Y177000D01*
Y176000D01*
X171712Y175034D01*
X172212Y174167D01*
X172411Y173968D01*
X172220Y173506D01*
X168284D01*
X168093Y173968D01*
X168292Y174167D01*
X168792Y175034D01*
X169051Y176000D01*
Y177000D01*
X168792Y177966D01*
X168292Y178833D01*
X167585Y179540D01*
X166718Y180040D01*
X165752Y180299D01*
X164752D01*
X163786Y180040D01*
X162919Y179540D01*
X162212Y178833D01*
X161712Y177966D01*
X161453Y177000D01*
Y176000D01*
X161712Y175034D01*
X162212Y174167D01*
X162411Y173968D01*
X162220Y173506D01*
X156296D01*
X154390Y175413D01*
X154547Y176000D01*
Y177000D01*
X154288Y177966D01*
X153788Y178833D01*
X153081Y179540D01*
X152214Y180040D01*
X151248Y180299D01*
X150248D01*
X149282Y180040D01*
X148415Y179540D01*
X147708Y178833D01*
X147208Y177966D01*
X146949Y177000D01*
Y176000D01*
X147106Y175413D01*
X145200Y173506D01*
X144081D01*
X143890Y173968D01*
X143958Y174037D01*
X144486Y174952D01*
X144760Y175972D01*
Y176000D01*
X136736D01*
Y175972D01*
X137010Y174952D01*
X137093Y174807D01*
X136727Y174441D01*
X136169Y174763D01*
X135333Y174987D01*
X134467D01*
X133631Y174763D01*
X132881Y174331D01*
X132269Y173719D01*
X131837Y172969D01*
X131613Y172133D01*
Y171267D01*
X131837Y170431D01*
X132269Y169682D01*
X132881Y169069D01*
X133631Y168637D01*
X134467Y168413D01*
X135333D01*
X136169Y168637D01*
X136449Y168798D01*
X136949Y168509D01*
Y162701D01*
X144547D01*
Y169894D01*
X145948D01*
X146639Y170031D01*
X147225Y170423D01*
X149661Y172858D01*
X150248Y172701D01*
X151248D01*
X151835Y172858D01*
X154271Y170423D01*
X154857Y170031D01*
X155548Y169894D01*
X161453D01*
Y162701D01*
X169051D01*
Y169894D01*
X172566D01*
X172773Y169394D01*
X172212Y168833D01*
X171712Y167966D01*
X171453Y167000D01*
Y166000D01*
X171712Y165034D01*
X172212Y164167D01*
X172919Y163460D01*
X173786Y162960D01*
X174752Y162701D01*
X175752D01*
X176718Y162960D01*
X177585Y163460D01*
X178292Y164167D01*
X178792Y165034D01*
X179051Y166000D01*
Y167000D01*
X178792Y167966D01*
X178292Y168833D01*
X177731Y169394D01*
X177938Y169894D01*
X187201D01*
Y162701D01*
X192245D01*
X202781Y152164D01*
X202574Y151664D01*
X105374D01*
X105358Y151661D01*
X104064Y151788D01*
X102804Y152171D01*
X101644Y152791D01*
X100626Y153626D01*
X99791Y154644D01*
X99171Y155804D01*
X98788Y157064D01*
X98661Y158358D01*
X98664Y158374D01*
Y532390D01*
X98661Y532406D01*
X98788Y533700D01*
X99171Y534959D01*
X99791Y536120D01*
X100626Y537138D01*
X101644Y537973D01*
X102804Y538593D01*
X104064Y538975D01*
X104892Y539057D01*
X105374Y539100D01*
Y539100D01*
X105374Y539100D01*
X478893D01*
X479390Y539100D01*
D02*
G37*
G36*
X405949Y168241D02*
Y165255D01*
X395500Y154806D01*
X314665D01*
X314502Y155306D01*
X314945Y156073D01*
X315193Y157000D01*
X311500D01*
Y158000D01*
X315193D01*
X314945Y158927D01*
X314502Y159694D01*
X314665Y160194D01*
X368865D01*
X369109Y160031D01*
X369800Y159894D01*
X396200D01*
X396891Y160031D01*
X397477Y160423D01*
X405487Y168432D01*
X405949Y168241D01*
D02*
G37*
%LPC*%
G36*
X242500Y534299D02*
X241500D01*
X240534Y534040D01*
X239667Y533540D01*
X238960Y532833D01*
X238460Y531966D01*
X238201Y531000D01*
Y530000D01*
X238460Y529034D01*
X238960Y528167D01*
X239667Y527460D01*
X240534Y526960D01*
X241500Y526701D01*
X242500D01*
X243466Y526960D01*
X244333Y527460D01*
X245040Y528167D01*
X245540Y529034D01*
X245799Y530000D01*
Y531000D01*
X245540Y531966D01*
X245040Y532833D01*
X244333Y533540D01*
X243466Y534040D01*
X242500Y534299D01*
D02*
G37*
G36*
X202579Y524643D02*
Y522000D01*
X205222D01*
X205028Y522722D01*
X204612Y523444D01*
X204022Y524033D01*
X203301Y524450D01*
X202579Y524643D01*
D02*
G37*
G36*
X201579D02*
X200857Y524450D01*
X200135Y524033D01*
X199546Y523444D01*
X199129Y522722D01*
X198936Y522000D01*
X201579D01*
Y524643D01*
D02*
G37*
G36*
X342500Y534299D02*
X341500D01*
X340534Y534040D01*
X339667Y533540D01*
X338960Y532833D01*
X338460Y531966D01*
X338201Y531000D01*
Y530000D01*
X338460Y529034D01*
X338960Y528167D01*
X339667Y527460D01*
X340534Y526960D01*
X341500Y526701D01*
X342500D01*
X343466Y526960D01*
X344333Y527460D01*
X345040Y528167D01*
X345344Y528694D01*
X420146D01*
X422262Y526578D01*
X422083Y525910D01*
Y524878D01*
X422350Y523882D01*
X422865Y522989D01*
X423595Y522259D01*
X424488Y521743D01*
X425484Y521477D01*
X426516D01*
X427512Y521743D01*
X428405Y522259D01*
X429135Y522989D01*
X429480Y523587D01*
X436083D01*
Y521477D01*
X443917D01*
Y529311D01*
X436083D01*
Y527200D01*
X429480D01*
X429135Y527799D01*
X428405Y528528D01*
X427512Y529044D01*
X426516Y529311D01*
X425484D01*
X424816Y529132D01*
X422171Y531777D01*
X421585Y532169D01*
X420894Y532306D01*
X345344D01*
X345040Y532833D01*
X344333Y533540D01*
X343466Y534040D01*
X342500Y534299D01*
D02*
G37*
G36*
X214874Y524453D02*
X208968D01*
Y518547D01*
X214874D01*
Y524453D01*
D02*
G37*
G36*
X205222Y521000D02*
X202579D01*
Y518357D01*
X203301Y518550D01*
X204022Y518967D01*
X204612Y519556D01*
X205028Y520278D01*
X205222Y521000D01*
D02*
G37*
G36*
X201579D02*
X198936D01*
X199129Y520278D01*
X199546Y519556D01*
X200135Y518967D01*
X200857Y518550D01*
X201579Y518357D01*
Y521000D01*
D02*
G37*
G36*
X342500Y524299D02*
X341500D01*
X340534Y524040D01*
X339667Y523540D01*
X338960Y522833D01*
X338460Y521966D01*
X338201Y521000D01*
Y520000D01*
X338460Y519034D01*
X338960Y518167D01*
X339667Y517460D01*
X340534Y516960D01*
X341500Y516701D01*
X342500D01*
X343466Y516960D01*
X344333Y517460D01*
X345040Y518167D01*
X345540Y519034D01*
X345799Y520000D01*
Y521000D01*
X345540Y521966D01*
X345040Y522833D01*
X344333Y523540D01*
X343466Y524040D01*
X342500Y524299D01*
D02*
G37*
G36*
X242500D02*
X241500D01*
X240534Y524040D01*
X239667Y523540D01*
X238960Y522833D01*
X238460Y521966D01*
X238201Y521000D01*
Y520000D01*
X238460Y519034D01*
X238960Y518167D01*
X239667Y517460D01*
X240534Y516960D01*
X241500Y516701D01*
X242500D01*
X243466Y516960D01*
X244333Y517460D01*
X245040Y518167D01*
X245540Y519034D01*
X245799Y520000D01*
Y521000D01*
X245540Y521966D01*
X245040Y522833D01*
X244333Y523540D01*
X243466Y524040D01*
X242500Y524299D01*
D02*
G37*
G36*
X342500Y514299D02*
X341500D01*
X340534Y514040D01*
X339667Y513540D01*
X338960Y512833D01*
X338460Y511966D01*
X338201Y511000D01*
Y510000D01*
X338460Y509034D01*
X338960Y508167D01*
X339667Y507460D01*
X340534Y506960D01*
X341500Y506701D01*
X342500D01*
X343466Y506960D01*
X344333Y507460D01*
X345040Y508167D01*
X345540Y509034D01*
X345799Y510000D01*
Y511000D01*
X345540Y511966D01*
X345040Y512833D01*
X344333Y513540D01*
X343466Y514040D01*
X342500Y514299D01*
D02*
G37*
G36*
X242500D02*
X241500D01*
X240534Y514040D01*
X239667Y513540D01*
X238960Y512833D01*
X238460Y511966D01*
X238201Y511000D01*
Y510000D01*
X238460Y509034D01*
X238960Y508167D01*
X239667Y507460D01*
X240534Y506960D01*
X241500Y506701D01*
X242500D01*
X243466Y506960D01*
X244333Y507460D01*
X245040Y508167D01*
X245540Y509034D01*
X245799Y510000D01*
Y511000D01*
X245540Y511966D01*
X245040Y512833D01*
X244333Y513540D01*
X243466Y514040D01*
X242500Y514299D01*
D02*
G37*
G36*
Y504299D02*
X241500D01*
X240534Y504040D01*
X239667Y503540D01*
X238960Y502833D01*
X238656Y502306D01*
X231247D01*
X231174Y502434D01*
X230588Y503020D01*
X229869Y503435D01*
X229068Y503650D01*
X228239D01*
X227438Y503435D01*
X226720Y503020D01*
X226133Y502434D01*
X225719Y501716D01*
X225504Y500915D01*
Y500085D01*
X225719Y499284D01*
X226133Y498566D01*
X226720Y497980D01*
X227438Y497565D01*
X228239Y497350D01*
X229068D01*
X229869Y497565D01*
X230588Y497980D01*
X231174Y498566D01*
X231247Y498694D01*
X238656D01*
X238960Y498167D01*
X239667Y497460D01*
X240534Y496960D01*
X241500Y496701D01*
X242500D01*
X243466Y496960D01*
X244333Y497460D01*
X245040Y498167D01*
X245540Y499034D01*
X245799Y500000D01*
Y501000D01*
X245540Y501966D01*
X245040Y502833D01*
X244333Y503540D01*
X243466Y504040D01*
X242500Y504299D01*
D02*
G37*
G36*
X467950Y520646D02*
X466050D01*
X464186Y520275D01*
X462431Y519548D01*
X460851Y518492D01*
X459508Y517149D01*
X458452Y515569D01*
X457725Y513813D01*
X457354Y511950D01*
Y510050D01*
X457725Y508186D01*
X458452Y506431D01*
X459508Y504851D01*
X460851Y503508D01*
X462431Y502452D01*
X464186Y501725D01*
X466050Y501354D01*
X467950D01*
X469813Y501725D01*
X471569Y502452D01*
X473149Y503508D01*
X474492Y504851D01*
X475548Y506431D01*
X476275Y508186D01*
X476646Y510050D01*
Y511950D01*
X476275Y513813D01*
X475548Y515569D01*
X474492Y517149D01*
X473149Y518492D01*
X471569Y519548D01*
X469813Y520275D01*
X467950Y520646D01*
D02*
G37*
G36*
X118450D02*
X116550D01*
X114687Y520275D01*
X112931Y519548D01*
X111351Y518492D01*
X110008Y517149D01*
X108952Y515569D01*
X108225Y513813D01*
X107854Y511950D01*
Y510050D01*
X108225Y508186D01*
X108952Y506431D01*
X110008Y504851D01*
X111351Y503508D01*
X112931Y502452D01*
X114687Y501725D01*
X116550Y501354D01*
X118450D01*
X120314Y501725D01*
X122069Y502452D01*
X123649Y503508D01*
X124992Y504851D01*
X126048Y506431D01*
X126775Y508186D01*
X127146Y510050D01*
Y511950D01*
X126775Y513813D01*
X126048Y515569D01*
X124992Y517149D01*
X123649Y518492D01*
X122069Y519548D01*
X120314Y520275D01*
X118450Y520646D01*
D02*
G37*
G36*
X185846Y503847D02*
Y501000D01*
X188693D01*
X188479Y501798D01*
X188037Y502564D01*
X187411Y503190D01*
X186644Y503633D01*
X185846Y503847D01*
D02*
G37*
G36*
X184846D02*
X184049Y503633D01*
X183282Y503190D01*
X182656Y502564D01*
X182213Y501798D01*
X182000Y501000D01*
X184846D01*
Y503847D01*
D02*
G37*
G36*
X188693Y500000D02*
X185846D01*
Y497153D01*
X186644Y497367D01*
X187411Y497810D01*
X188037Y498436D01*
X188479Y499202D01*
X188693Y500000D01*
D02*
G37*
G36*
X184846D02*
X182000D01*
X182213Y499202D01*
X182656Y498436D01*
X183282Y497810D01*
X184049Y497367D01*
X184846Y497153D01*
Y500000D01*
D02*
G37*
G36*
X342500Y504299D02*
X341500D01*
X340534Y504040D01*
X339667Y503540D01*
X338960Y502833D01*
X338460Y501966D01*
X338201Y501000D01*
Y500000D01*
X338460Y499034D01*
X338960Y498167D01*
X339667Y497460D01*
X340534Y496960D01*
X341500Y496701D01*
X342500D01*
X343466Y496960D01*
X344333Y497460D01*
X345040Y498167D01*
X345540Y499034D01*
X345799Y500000D01*
Y501000D01*
X345540Y501966D01*
X345040Y502833D01*
X344333Y503540D01*
X343466Y504040D01*
X342500Y504299D01*
D02*
G37*
G36*
Y494299D02*
X341500D01*
X340534Y494040D01*
X339667Y493540D01*
X338960Y492833D01*
X338460Y491966D01*
X338201Y491000D01*
Y490000D01*
X338460Y489034D01*
X338960Y488167D01*
X339667Y487460D01*
X340534Y486960D01*
X341500Y486701D01*
X342500D01*
X343466Y486960D01*
X344333Y487460D01*
X345040Y488167D01*
X345540Y489034D01*
X345799Y490000D01*
Y491000D01*
X345540Y491966D01*
X345040Y492833D01*
X344333Y493540D01*
X343466Y494040D01*
X342500Y494299D01*
D02*
G37*
G36*
X242500D02*
X241500D01*
X240534Y494040D01*
X239667Y493540D01*
X238960Y492833D01*
X238460Y491966D01*
X238201Y491000D01*
Y490000D01*
X238460Y489034D01*
X238960Y488167D01*
X239667Y487460D01*
X240534Y486960D01*
X241500Y486701D01*
X242500D01*
X243466Y486960D01*
X244333Y487460D01*
X245040Y488167D01*
X245540Y489034D01*
X245799Y490000D01*
Y491000D01*
X245540Y491966D01*
X245040Y492833D01*
X244333Y493540D01*
X243466Y494040D01*
X242500Y494299D01*
D02*
G37*
G36*
X440516Y488524D02*
X439484D01*
X438488Y488257D01*
X437595Y487741D01*
X436865Y487012D01*
X436520Y486413D01*
X429917D01*
Y488524D01*
X422083D01*
Y480689D01*
X429917D01*
Y482800D01*
X436520D01*
X436865Y482201D01*
X437595Y481472D01*
X438488Y480956D01*
X439484Y480689D01*
X440516D01*
X441512Y480956D01*
X442405Y481472D01*
X443135Y482201D01*
X443650Y483094D01*
X443917Y484091D01*
Y485122D01*
X443650Y486118D01*
X443135Y487012D01*
X442405Y487741D01*
X441512Y488257D01*
X440516Y488524D01*
D02*
G37*
G36*
X229068Y489650D02*
X228239D01*
X227438Y489435D01*
X226720Y489020D01*
X226133Y488434D01*
X225719Y487716D01*
X225504Y486915D01*
Y486085D01*
X225719Y485284D01*
X226133Y484566D01*
X226720Y483980D01*
X227438Y483565D01*
X228239Y483350D01*
X229068D01*
X229869Y483565D01*
X230588Y483980D01*
X231174Y484566D01*
X231589Y485284D01*
X231803Y486085D01*
Y486915D01*
X231589Y487716D01*
X231174Y488434D01*
X230588Y489020D01*
X229869Y489435D01*
X229068Y489650D01*
D02*
G37*
G36*
X185761D02*
X184932D01*
X184131Y489435D01*
X183413Y489020D01*
X182826Y488434D01*
X182411Y487716D01*
X182197Y486915D01*
Y486085D01*
X182411Y485284D01*
X182826Y484566D01*
X183413Y483980D01*
X184131Y483565D01*
X184932Y483350D01*
X185761D01*
X186562Y483565D01*
X187280Y483980D01*
X187867Y484566D01*
X188281Y485284D01*
X188496Y486085D01*
Y486915D01*
X188281Y487716D01*
X187867Y488434D01*
X187280Y489020D01*
X186562Y489435D01*
X185761Y489650D01*
D02*
G37*
G36*
X342528Y484512D02*
X342500D01*
Y481000D01*
X346012D01*
Y481028D01*
X345738Y482049D01*
X345210Y482963D01*
X344463Y483710D01*
X343548Y484238D01*
X342528Y484512D01*
D02*
G37*
G36*
X387921Y483643D02*
Y481000D01*
X390564D01*
X390371Y481722D01*
X389954Y482444D01*
X389365Y483033D01*
X388643Y483450D01*
X387921Y483643D01*
D02*
G37*
G36*
X386921D02*
X386199Y483450D01*
X385478Y483033D01*
X384888Y482444D01*
X384472Y481722D01*
X384278Y481000D01*
X386921D01*
Y483643D01*
D02*
G37*
G36*
X341500Y484512D02*
X341472D01*
X340452Y484238D01*
X339537Y483710D01*
X338790Y482963D01*
X338262Y482049D01*
X337988Y481028D01*
Y481000D01*
X341500D01*
Y484512D01*
D02*
G37*
G36*
X380532Y483453D02*
X374626D01*
Y477547D01*
X380532D01*
Y483453D01*
D02*
G37*
G36*
X390564Y480000D02*
X387921D01*
Y477357D01*
X388643Y477550D01*
X389365Y477967D01*
X389954Y478556D01*
X390371Y479278D01*
X390564Y480000D01*
D02*
G37*
G36*
X386921D02*
X384278D01*
X384472Y479278D01*
X384888Y478556D01*
X385478Y477967D01*
X386199Y477550D01*
X386921Y477357D01*
Y480000D01*
D02*
G37*
G36*
X242500Y484299D02*
X241500D01*
X240534Y484040D01*
X239667Y483540D01*
X238960Y482833D01*
X238460Y481966D01*
X238201Y481000D01*
Y480000D01*
X238460Y479034D01*
X238960Y478167D01*
X239667Y477460D01*
X240534Y476960D01*
X241500Y476701D01*
X242500D01*
X243466Y476960D01*
X244333Y477460D01*
X245040Y478167D01*
X245540Y479034D01*
X245799Y480000D01*
Y481000D01*
X245540Y481966D01*
X245040Y482833D01*
X244333Y483540D01*
X243466Y484040D01*
X242500Y484299D01*
D02*
G37*
G36*
X346012Y480000D02*
X342500D01*
Y476488D01*
X342528D01*
X343548Y476762D01*
X344463Y477290D01*
X345210Y478037D01*
X345738Y478952D01*
X346012Y479972D01*
Y480000D01*
D02*
G37*
G36*
X341500D02*
X337988D01*
Y479972D01*
X338262Y478952D01*
X338790Y478037D01*
X339537Y477290D01*
X340452Y476762D01*
X341472Y476488D01*
X341500D01*
Y480000D01*
D02*
G37*
G36*
X342500Y474299D02*
X341500D01*
X340534Y474040D01*
X339667Y473540D01*
X338960Y472833D01*
X338460Y471966D01*
X338201Y471000D01*
Y470000D01*
X338460Y469034D01*
X338960Y468167D01*
X339667Y467460D01*
X340534Y466960D01*
X341500Y466701D01*
X342500D01*
X343466Y466960D01*
X344333Y467460D01*
X345040Y468167D01*
X345540Y469034D01*
X345799Y470000D01*
Y471000D01*
X345540Y471966D01*
X345040Y472833D01*
X344333Y473540D01*
X343466Y474040D01*
X342500Y474299D01*
D02*
G37*
G36*
X242500D02*
X241500D01*
X240534Y474040D01*
X239667Y473540D01*
X238960Y472833D01*
X238656Y472306D01*
X223421D01*
X222730Y472169D01*
X222144Y471777D01*
X212319Y461953D01*
X208968D01*
Y456149D01*
X208968Y456047D01*
X208723Y455649D01*
X203605D01*
X203471Y456149D01*
X204022Y456467D01*
X204612Y457056D01*
X205028Y457778D01*
X205222Y458500D01*
X202079D01*
X198936D01*
X199129Y457778D01*
X199546Y457056D01*
X200135Y456467D01*
X200686Y456149D01*
X200552Y455649D01*
X170980D01*
X170942Y455716D01*
X170373Y456284D01*
X169678Y456686D01*
X168902Y456894D01*
X168098D01*
X167322Y456686D01*
X166627Y456284D01*
X166058Y455716D01*
X165657Y455020D01*
X165449Y454244D01*
Y453441D01*
X165657Y452665D01*
X166058Y451969D01*
X166627Y451401D01*
X167322Y450999D01*
X168098Y450791D01*
X168902D01*
X169678Y450999D01*
X170373Y451401D01*
X170942Y451969D01*
X170980Y452036D01*
X229743D01*
X230434Y452174D01*
X231020Y452565D01*
X232348Y453894D01*
X239314D01*
X239521Y453394D01*
X238960Y452833D01*
X238460Y451966D01*
X238201Y451000D01*
Y450000D01*
X238460Y449034D01*
X238960Y448167D01*
X239159Y447968D01*
X238967Y447506D01*
X207046D01*
X206355Y447369D01*
X205769Y446977D01*
X185903Y427111D01*
X185761Y427150D01*
X184932D01*
X184131Y426935D01*
X183413Y426520D01*
X182826Y425934D01*
X182411Y425216D01*
X182197Y424415D01*
Y423585D01*
X182411Y422784D01*
X182826Y422066D01*
X183413Y421480D01*
X184131Y421065D01*
X184932Y420850D01*
X185761D01*
X186562Y421065D01*
X187280Y421480D01*
X187867Y422066D01*
X188281Y422784D01*
X188496Y423585D01*
Y424415D01*
X188458Y424557D01*
X207795Y443894D01*
X239314D01*
X239521Y443394D01*
X238960Y442833D01*
X238460Y441966D01*
X238201Y441000D01*
Y440000D01*
X238460Y439034D01*
X238960Y438167D01*
X239667Y437460D01*
X240534Y436960D01*
X241500Y436701D01*
X242500D01*
X243466Y436960D01*
X244333Y437460D01*
X245040Y438167D01*
X245540Y439034D01*
X245799Y440000D01*
Y441000D01*
X245540Y441966D01*
X245040Y442833D01*
X244479Y443394D01*
X244686Y443894D01*
X339314D01*
X339521Y443394D01*
X338960Y442833D01*
X338460Y441966D01*
X338201Y441000D01*
Y440000D01*
X338460Y439034D01*
X338960Y438167D01*
X339667Y437460D01*
X340534Y436960D01*
X341500Y436701D01*
X342500D01*
X343466Y436960D01*
X344333Y437460D01*
X345040Y438167D01*
X345540Y439034D01*
X345799Y440000D01*
Y441000D01*
X345540Y441966D01*
X345040Y442833D01*
X344479Y443394D01*
X344686Y443894D01*
X353500D01*
X354191Y444031D01*
X354777Y444423D01*
X357194Y446840D01*
X357594Y446533D01*
X357411Y446216D01*
X357197Y445415D01*
Y444585D01*
X357411Y443784D01*
X357826Y443066D01*
X358413Y442480D01*
X359131Y442065D01*
X359932Y441850D01*
X360761D01*
X361562Y442065D01*
X362280Y442480D01*
X362867Y443066D01*
X363281Y443784D01*
X363496Y444585D01*
Y445415D01*
X363281Y446216D01*
X362867Y446934D01*
X362280Y447520D01*
X361980Y447694D01*
X362114Y448194D01*
X401886D01*
X402020Y447694D01*
X401720Y447520D01*
X401133Y446934D01*
X400719Y446216D01*
X400504Y445415D01*
Y444585D01*
X400719Y443784D01*
X401133Y443066D01*
X401720Y442480D01*
X402438Y442065D01*
X403239Y441850D01*
X404068D01*
X404869Y442065D01*
X405587Y442480D01*
X406174Y443066D01*
X406589Y443784D01*
X406803Y444585D01*
Y445415D01*
X406589Y446216D01*
X406174Y446934D01*
X405587Y447520D01*
X405287Y447694D01*
X405421Y448194D01*
X418452D01*
X419197Y447448D01*
X419153Y447023D01*
X418698Y446788D01*
X418260Y447041D01*
X417500Y447245D01*
Y444000D01*
Y440755D01*
X418260Y440959D01*
X418794Y441267D01*
X419294Y441007D01*
Y415500D01*
X419431Y414809D01*
X419823Y414223D01*
X443123Y390923D01*
X443709Y390531D01*
X444400Y390394D01*
X454301D01*
X454367Y389894D01*
X453667Y389706D01*
X452583Y389081D01*
X451699Y388196D01*
X451074Y387113D01*
X450750Y385905D01*
Y385780D01*
X455500D01*
X460250D01*
Y385905D01*
X459926Y387113D01*
X459301Y388196D01*
X458417Y389081D01*
X457333Y389706D01*
X456633Y389894D01*
X456699Y390394D01*
X468747D01*
X468869Y390181D01*
X469482Y389569D01*
X470231Y389137D01*
X471067Y388913D01*
X471933D01*
X472769Y389137D01*
X473519Y389569D01*
X474131Y390181D01*
X474563Y390931D01*
X474787Y391767D01*
Y392633D01*
X474563Y393469D01*
X474131Y394218D01*
X473519Y394831D01*
X472769Y395263D01*
X471933Y395487D01*
X471067D01*
X470231Y395263D01*
X469482Y394831D01*
X468869Y394218D01*
X468747Y394006D01*
X445148D01*
X422906Y416248D01*
Y428445D01*
X423368Y428636D01*
X451255Y400749D01*
X450963Y399656D01*
Y398462D01*
X451272Y397308D01*
X451869Y396273D01*
X452714Y395428D01*
X453749Y394831D01*
X454903Y394522D01*
X456097D01*
X457251Y394831D01*
X458286Y395428D01*
X459131Y396273D01*
X459728Y397308D01*
X460037Y398462D01*
Y399656D01*
X459728Y400810D01*
X459131Y401845D01*
X458286Y402690D01*
X457251Y403287D01*
X456097Y403596D01*
X454903D01*
X453810Y403304D01*
X425706Y431407D01*
Y456785D01*
X425569Y457476D01*
X425177Y458062D01*
X421823Y461417D01*
X422014Y461879D01*
X431250D01*
X431417Y461711D01*
X432003Y461319D01*
X432695Y461182D01*
X433986D01*
X434342Y460565D01*
X435077Y459830D01*
X435977Y459310D01*
X436980Y459041D01*
X438020D01*
X439023Y459310D01*
X439923Y459830D01*
X440658Y460565D01*
X441178Y461465D01*
X441447Y462469D01*
Y463508D01*
X441178Y464512D01*
X440658Y465412D01*
X439923Y466147D01*
X439023Y466666D01*
X438020Y466935D01*
X436980D01*
X435977Y466666D01*
X435077Y466147D01*
X434342Y465412D01*
X433986Y464795D01*
X433443D01*
X433275Y464962D01*
X432689Y465354D01*
X431998Y465491D01*
X419480D01*
X419442Y465558D01*
X418874Y466127D01*
X418178Y466528D01*
X417402Y466736D01*
X416598D01*
X415822Y466528D01*
X415127Y466127D01*
X414558Y465558D01*
X414157Y464863D01*
X413949Y464087D01*
Y463283D01*
X413969Y463208D01*
X408267Y457506D01*
X406622D01*
X406415Y458006D01*
X406844Y458436D01*
X407287Y459202D01*
X407500Y460000D01*
X404154D01*
X400807D01*
X401020Y459202D01*
X401463Y458436D01*
X401892Y458006D01*
X401685Y457506D01*
X362961D01*
X362816Y457886D01*
X362807Y458006D01*
X363367Y458566D01*
X363781Y459284D01*
X363996Y460085D01*
Y460915D01*
X363781Y461716D01*
X363367Y462434D01*
X362780Y463020D01*
X362062Y463435D01*
X361261Y463650D01*
X360432D01*
X359631Y463435D01*
X358912Y463020D01*
X358326Y462434D01*
X358253Y462306D01*
X345344D01*
X345040Y462833D01*
X344333Y463540D01*
X343466Y464040D01*
X342500Y464299D01*
X341500D01*
X340534Y464040D01*
X339667Y463540D01*
X338960Y462833D01*
X338460Y461966D01*
X338201Y461000D01*
Y460000D01*
X338460Y459034D01*
X338960Y458167D01*
X339159Y457968D01*
X338967Y457506D01*
X245033D01*
X244841Y457968D01*
X245040Y458167D01*
X245540Y459034D01*
X245799Y460000D01*
Y461000D01*
X245540Y461966D01*
X245040Y462833D01*
X244333Y463540D01*
X243466Y464040D01*
X242500Y464299D01*
X241500D01*
X240534Y464040D01*
X239667Y463540D01*
X238960Y462833D01*
X238460Y461966D01*
X238201Y461000D01*
Y460000D01*
X238460Y459034D01*
X238960Y458167D01*
X239159Y457968D01*
X238967Y457506D01*
X231600D01*
X230909Y457369D01*
X230323Y456977D01*
X228994Y455649D01*
X215120D01*
X214874Y456047D01*
X214874Y456149D01*
Y459398D01*
X224169Y468694D01*
X238656D01*
X238960Y468167D01*
X239667Y467460D01*
X240534Y466960D01*
X241500Y466701D01*
X242500D01*
X243466Y466960D01*
X244333Y467460D01*
X245040Y468167D01*
X245540Y469034D01*
X245799Y470000D01*
Y471000D01*
X245540Y471966D01*
X245040Y472833D01*
X244333Y473540D01*
X243466Y474040D01*
X242500Y474299D01*
D02*
G37*
G36*
X479902Y468894D02*
X479098D01*
X478322Y468686D01*
X477627Y468284D01*
X477058Y467716D01*
X476657Y467020D01*
X476449Y466244D01*
Y465441D01*
X476469Y465366D01*
X475897Y464795D01*
X461447D01*
Y466935D01*
X453553D01*
Y459041D01*
X461447D01*
Y461182D01*
X476646D01*
X477337Y461319D01*
X477923Y461711D01*
X479023Y462812D01*
X479098Y462791D01*
X479902D01*
X480678Y462999D01*
X481374Y463401D01*
X481942Y463969D01*
X482343Y464665D01*
X482551Y465441D01*
Y466244D01*
X482343Y467020D01*
X481942Y467716D01*
X481374Y468284D01*
X480678Y468686D01*
X479902Y468894D01*
D02*
G37*
G36*
X448048Y467148D02*
X448000D01*
Y463488D01*
X451659D01*
Y463536D01*
X451376Y464594D01*
X450828Y465542D01*
X450054Y466317D01*
X449106Y466864D01*
X448048Y467148D01*
D02*
G37*
G36*
X447000D02*
X446952D01*
X445894Y466864D01*
X444946Y466317D01*
X444172Y465542D01*
X443624Y464594D01*
X443340Y463536D01*
Y463488D01*
X447000D01*
Y467148D01*
D02*
G37*
G36*
X164068Y469650D02*
X163239D01*
X162438Y469435D01*
X161720Y469020D01*
X161133Y468434D01*
X160719Y467716D01*
X160504Y466915D01*
Y466085D01*
X160719Y465284D01*
X161133Y464566D01*
X161720Y463980D01*
X162438Y463565D01*
X163239Y463350D01*
X164068D01*
X164869Y463565D01*
X165587Y463980D01*
X166174Y464566D01*
X166589Y465284D01*
X166803Y466085D01*
Y466915D01*
X166589Y467716D01*
X166174Y468434D01*
X165587Y469020D01*
X164869Y469435D01*
X164068Y469650D01*
D02*
G37*
G36*
X120761D02*
X119932D01*
X119131Y469435D01*
X118412Y469020D01*
X117826Y468434D01*
X117411Y467716D01*
X117197Y466915D01*
Y466085D01*
X117411Y465284D01*
X117826Y464566D01*
X118412Y463980D01*
X119131Y463565D01*
X119932Y463350D01*
X120761D01*
X121562Y463565D01*
X122280Y463980D01*
X122867Y464566D01*
X123281Y465284D01*
X123496Y466085D01*
Y466915D01*
X123281Y467716D01*
X122867Y468434D01*
X122280Y469020D01*
X121562Y469435D01*
X120761Y469650D01*
D02*
G37*
G36*
X404654Y463847D02*
Y461000D01*
X407500D01*
X407287Y461798D01*
X406844Y462564D01*
X406218Y463190D01*
X405451Y463633D01*
X404654Y463847D01*
D02*
G37*
G36*
X403654D02*
X402856Y463633D01*
X402089Y463190D01*
X401463Y462564D01*
X401020Y461798D01*
X400807Y461000D01*
X403654D01*
Y463847D01*
D02*
G37*
G36*
X202579Y462143D02*
Y459500D01*
X205222D01*
X205028Y460222D01*
X204612Y460944D01*
X204022Y461533D01*
X203301Y461950D01*
X202579Y462143D01*
D02*
G37*
G36*
X201579D02*
X200857Y461950D01*
X200135Y461533D01*
X199546Y460944D01*
X199129Y460222D01*
X198936Y459500D01*
X201579D01*
Y462143D01*
D02*
G37*
G36*
X451659Y462488D02*
X448000D01*
Y458829D01*
X448048D01*
X449106Y459112D01*
X450054Y459660D01*
X450828Y460434D01*
X451376Y461383D01*
X451659Y462441D01*
Y462488D01*
D02*
G37*
G36*
X447000D02*
X443340D01*
Y462441D01*
X443624Y461383D01*
X444172Y460434D01*
X444946Y459660D01*
X445894Y459112D01*
X446952Y458829D01*
X447000D01*
Y462488D01*
D02*
G37*
G36*
X115902Y457551D02*
X115098D01*
X114322Y457343D01*
X113627Y456942D01*
X113058Y456374D01*
X112657Y455678D01*
X112449Y454902D01*
Y454098D01*
X112657Y453322D01*
X113058Y452627D01*
X113627Y452058D01*
X114322Y451657D01*
X115098Y451449D01*
X115902D01*
X116678Y451657D01*
X117374Y452058D01*
X117942Y452627D01*
X118343Y453322D01*
X118551Y454098D01*
Y454902D01*
X118343Y455678D01*
X117942Y456374D01*
X117374Y456942D01*
X116678Y457343D01*
X115902Y457551D01*
D02*
G37*
G36*
X480000Y449402D02*
Y446657D01*
X482745D01*
X482541Y447417D01*
X482112Y448161D01*
X481504Y448769D01*
X480760Y449199D01*
X480000Y449402D01*
D02*
G37*
G36*
X479000D02*
X478240Y449199D01*
X477496Y448769D01*
X476888Y448161D01*
X476459Y447417D01*
X476255Y446657D01*
X479000D01*
Y449402D01*
D02*
G37*
G36*
X416500Y447245D02*
X415740Y447041D01*
X414996Y446612D01*
X414388Y446004D01*
X413959Y445260D01*
X413755Y444500D01*
X416500D01*
Y447245D01*
D02*
G37*
G36*
X482745Y445657D02*
X480000D01*
Y442912D01*
X480760Y443116D01*
X481504Y443546D01*
X482112Y444153D01*
X482541Y444898D01*
X482745Y445657D01*
D02*
G37*
G36*
X479000D02*
X476255D01*
X476459Y444898D01*
X476888Y444153D01*
X477496Y443546D01*
X478240Y443116D01*
X479000Y442912D01*
Y445657D01*
D02*
G37*
G36*
X416500Y443500D02*
X413755D01*
X413959Y442740D01*
X414388Y441996D01*
X414996Y441388D01*
X415740Y440959D01*
X416500Y440755D01*
Y443500D01*
D02*
G37*
G36*
X185846Y441347D02*
Y438500D01*
X188693D01*
X188479Y439298D01*
X188037Y440064D01*
X187411Y440690D01*
X186644Y441133D01*
X185846Y441347D01*
D02*
G37*
G36*
X184846D02*
X184049Y441133D01*
X183282Y440690D01*
X182656Y440064D01*
X182213Y439298D01*
X182000Y438500D01*
X184846D01*
Y441347D01*
D02*
G37*
G36*
X116000Y438060D02*
Y435315D01*
X118745D01*
X118541Y436075D01*
X118112Y436819D01*
X117504Y437427D01*
X116760Y437856D01*
X116000Y438060D01*
D02*
G37*
G36*
X115000D02*
X114240Y437856D01*
X113496Y437427D01*
X112888Y436819D01*
X112459Y436075D01*
X112255Y435315D01*
X115000D01*
Y438060D01*
D02*
G37*
G36*
X229068Y441150D02*
X228239D01*
X227438Y440935D01*
X226720Y440520D01*
X226133Y439934D01*
X225719Y439216D01*
X225504Y438415D01*
Y437585D01*
X225719Y436784D01*
X226133Y436066D01*
X226720Y435480D01*
X227438Y435065D01*
X228239Y434850D01*
X229068D01*
X229869Y435065D01*
X230588Y435480D01*
X231174Y436066D01*
X231589Y436784D01*
X231803Y437585D01*
Y438415D01*
X231589Y439216D01*
X231174Y439934D01*
X230588Y440520D01*
X229869Y440935D01*
X229068Y441150D01*
D02*
G37*
G36*
X169000Y437402D02*
Y434657D01*
X171745D01*
X171541Y435417D01*
X171112Y436161D01*
X170504Y436769D01*
X169760Y437199D01*
X169000Y437402D01*
D02*
G37*
G36*
X168000D02*
X167240Y437199D01*
X166496Y436769D01*
X165888Y436161D01*
X165459Y435417D01*
X165255Y434657D01*
X168000D01*
Y437402D01*
D02*
G37*
G36*
X188693Y437500D02*
X185846D01*
Y434653D01*
X186644Y434867D01*
X187411Y435310D01*
X188037Y435936D01*
X188479Y436702D01*
X188693Y437500D01*
D02*
G37*
G36*
X184846D02*
X182000D01*
X182213Y436702D01*
X182656Y435936D01*
X183282Y435310D01*
X184049Y434867D01*
X184846Y434653D01*
Y437500D01*
D02*
G37*
G36*
X171745Y433657D02*
X169000D01*
Y430912D01*
X169760Y431116D01*
X170504Y431546D01*
X171112Y432153D01*
X171541Y432898D01*
X171745Y433657D01*
D02*
G37*
G36*
X168000D02*
X165255D01*
X165459Y432898D01*
X165888Y432153D01*
X166496Y431546D01*
X167240Y431116D01*
X168000Y430912D01*
Y433657D01*
D02*
G37*
G36*
X342500Y434299D02*
X341500D01*
X340534Y434040D01*
X339667Y433540D01*
X338960Y432833D01*
X338460Y431966D01*
X338201Y431000D01*
Y430000D01*
X338460Y429034D01*
X338960Y428167D01*
X339667Y427460D01*
X340534Y426960D01*
X341500Y426701D01*
X342500D01*
X343466Y426960D01*
X344333Y427460D01*
X345040Y428167D01*
X345540Y429034D01*
X345799Y430000D01*
Y431000D01*
X345540Y431966D01*
X345040Y432833D01*
X344333Y433540D01*
X343466Y434040D01*
X342500Y434299D01*
D02*
G37*
G36*
X242500D02*
X241500D01*
X240534Y434040D01*
X239667Y433540D01*
X238960Y432833D01*
X238460Y431966D01*
X238201Y431000D01*
Y430000D01*
X238460Y429034D01*
X238960Y428167D01*
X239667Y427460D01*
X240534Y426960D01*
X241500Y426701D01*
X242500D01*
X243466Y426960D01*
X244333Y427460D01*
X245040Y428167D01*
X245540Y429034D01*
X245799Y430000D01*
Y431000D01*
X245540Y431966D01*
X245040Y432833D01*
X244333Y433540D01*
X243466Y434040D01*
X242500Y434299D01*
D02*
G37*
G36*
X387421Y425143D02*
Y422500D01*
X390064D01*
X389871Y423222D01*
X389454Y423944D01*
X388865Y424533D01*
X388143Y424950D01*
X387421Y425143D01*
D02*
G37*
G36*
X386421D02*
X385699Y424950D01*
X384978Y424533D01*
X384388Y423944D01*
X383972Y423222D01*
X383778Y422500D01*
X386421D01*
Y425143D01*
D02*
G37*
G36*
X229068Y427150D02*
X228239D01*
X227438Y426935D01*
X226720Y426520D01*
X226133Y425934D01*
X225719Y425216D01*
X225504Y424415D01*
Y423585D01*
X225719Y422784D01*
X226133Y422066D01*
X226720Y421480D01*
X227438Y421065D01*
X228239Y420850D01*
X229068D01*
X229869Y421065D01*
X230588Y421480D01*
X231174Y422066D01*
X231589Y422784D01*
X231803Y423585D01*
Y424415D01*
X231589Y425216D01*
X231174Y425934D01*
X230588Y426520D01*
X229869Y426935D01*
X229068Y427150D01*
D02*
G37*
G36*
X380032Y424953D02*
X374126D01*
Y419047D01*
X380032D01*
Y424953D01*
D02*
G37*
G36*
X390064Y421500D02*
X387421D01*
Y418857D01*
X388143Y419050D01*
X388865Y419467D01*
X389454Y420056D01*
X389871Y420778D01*
X390064Y421500D01*
D02*
G37*
G36*
X386421D02*
X383778D01*
X383972Y420778D01*
X384388Y420056D01*
X384978Y419467D01*
X385699Y419050D01*
X386421Y418857D01*
Y421500D01*
D02*
G37*
G36*
X342500Y424299D02*
X341500D01*
X340534Y424040D01*
X339667Y423540D01*
X338960Y422833D01*
X338460Y421966D01*
X338201Y421000D01*
Y420000D01*
X338460Y419034D01*
X338960Y418167D01*
X339667Y417460D01*
X340534Y416960D01*
X341500Y416701D01*
X342500D01*
X343466Y416960D01*
X344333Y417460D01*
X345040Y418167D01*
X345540Y419034D01*
X345799Y420000D01*
Y421000D01*
X345540Y421966D01*
X345040Y422833D01*
X344333Y423540D01*
X343466Y424040D01*
X342500Y424299D01*
D02*
G37*
G36*
X242500D02*
X241500D01*
X240534Y424040D01*
X239667Y423540D01*
X238960Y422833D01*
X238460Y421966D01*
X238201Y421000D01*
Y420000D01*
X238460Y419034D01*
X238960Y418167D01*
X239667Y417460D01*
X240534Y416960D01*
X241500Y416701D01*
X242500D01*
X243466Y416960D01*
X244333Y417460D01*
X245040Y418167D01*
X245540Y419034D01*
X245799Y420000D01*
Y421000D01*
X245540Y421966D01*
X245040Y422833D01*
X244333Y423540D01*
X243466Y424040D01*
X242500Y424299D01*
D02*
G37*
G36*
X456125Y417589D02*
X456000D01*
Y413339D01*
X460250D01*
Y413464D01*
X459926Y414672D01*
X459301Y415755D01*
X458417Y416640D01*
X457333Y417265D01*
X456125Y417589D01*
D02*
G37*
G36*
X455000D02*
X454875D01*
X453667Y417265D01*
X452583Y416640D01*
X451699Y415755D01*
X451074Y414672D01*
X450750Y413464D01*
Y413339D01*
X455000D01*
Y417589D01*
D02*
G37*
G36*
X242528Y414512D02*
X242500D01*
Y411000D01*
X246012D01*
Y411028D01*
X245738Y412048D01*
X245210Y412963D01*
X244463Y413710D01*
X243548Y414238D01*
X242528Y414512D01*
D02*
G37*
G36*
X241500D02*
X241472D01*
X240452Y414238D01*
X239537Y413710D01*
X238790Y412963D01*
X238262Y412048D01*
X237988Y411028D01*
Y411000D01*
X241500D01*
Y414512D01*
D02*
G37*
G36*
X460250Y412339D02*
X456000D01*
Y408089D01*
X456125D01*
X457333Y408412D01*
X458417Y409038D01*
X459301Y409922D01*
X459926Y411005D01*
X460250Y412213D01*
Y412339D01*
D02*
G37*
G36*
X455000D02*
X450750D01*
Y412213D01*
X451074Y411005D01*
X451699Y409922D01*
X452583Y409038D01*
X453667Y408412D01*
X454875Y408089D01*
X455000D01*
Y412339D01*
D02*
G37*
G36*
X246012Y410000D02*
X242500D01*
Y406488D01*
X242528D01*
X243548Y406762D01*
X244463Y407290D01*
X245210Y408037D01*
X245738Y408952D01*
X246012Y409972D01*
Y410000D01*
D02*
G37*
G36*
X241500D02*
X237988D01*
Y409972D01*
X238262Y408952D01*
X238790Y408037D01*
X239537Y407290D01*
X240452Y406762D01*
X241472Y406488D01*
X241500D01*
Y410000D01*
D02*
G37*
G36*
X404154Y403847D02*
Y401000D01*
X407000D01*
X406787Y401798D01*
X406344Y402564D01*
X405718Y403190D01*
X404951Y403633D01*
X404154Y403847D01*
D02*
G37*
G36*
X403154D02*
X402356Y403633D01*
X401589Y403190D01*
X400963Y402564D01*
X400521Y401798D01*
X400307Y401000D01*
X403154D01*
Y403847D01*
D02*
G37*
G36*
X407000Y400000D02*
X404154D01*
Y397153D01*
X404951Y397367D01*
X405718Y397810D01*
X406344Y398436D01*
X406787Y399202D01*
X407000Y400000D01*
D02*
G37*
G36*
X403154D02*
X400307D01*
X400521Y399202D01*
X400963Y398436D01*
X401589Y397810D01*
X402356Y397367D01*
X403154Y397153D01*
Y400000D01*
D02*
G37*
G36*
X242500Y404299D02*
X241500D01*
X240534Y404040D01*
X239667Y403540D01*
X238960Y402833D01*
X238460Y401966D01*
X238201Y401000D01*
Y400000D01*
X238460Y399034D01*
X238960Y398167D01*
X239667Y397460D01*
X240534Y396960D01*
X241500Y396701D01*
X242500D01*
X243466Y396960D01*
X244333Y397460D01*
X245040Y398167D01*
X245540Y399034D01*
X245799Y400000D01*
Y401000D01*
X245540Y401966D01*
X245040Y402833D01*
X244333Y403540D01*
X243466Y404040D01*
X242500Y404299D01*
D02*
G37*
G36*
X184843Y391143D02*
Y388500D01*
X187486D01*
X187292Y389222D01*
X186875Y389944D01*
X186286Y390533D01*
X185564Y390950D01*
X184843Y391143D01*
D02*
G37*
G36*
X183843D02*
X183121Y390950D01*
X182399Y390533D01*
X181810Y389944D01*
X181393Y389222D01*
X181200Y388500D01*
X183843D01*
Y391143D01*
D02*
G37*
G36*
X342500Y394299D02*
X341500D01*
X340534Y394040D01*
X339667Y393540D01*
X338960Y392833D01*
X338460Y391966D01*
X338201Y391000D01*
Y390000D01*
X338358Y389413D01*
X296452Y347506D01*
X245333D01*
X245142Y347968D01*
X245210Y348037D01*
X245738Y348952D01*
X246012Y349972D01*
Y350000D01*
X242000D01*
X237988D01*
Y349972D01*
X238262Y348952D01*
X238790Y348037D01*
X238858Y347968D01*
X238667Y347506D01*
X234700D01*
X234009Y347369D01*
X233423Y346977D01*
X189523Y303077D01*
X189131Y302491D01*
X188994Y301800D01*
Y290453D01*
X188781Y290331D01*
X188169Y289719D01*
X187737Y288969D01*
X187513Y288133D01*
Y287267D01*
X187737Y286431D01*
X188169Y285682D01*
X188781Y285069D01*
X189531Y284637D01*
X190367Y284413D01*
X191233D01*
X192069Y284637D01*
X192818Y285069D01*
X193431Y285682D01*
X193863Y286431D01*
X194087Y287267D01*
Y288133D01*
X193863Y288969D01*
X193431Y289719D01*
X192818Y290331D01*
X192606Y290453D01*
Y301052D01*
X235448Y343894D01*
X297200D01*
X297891Y344031D01*
X298477Y344423D01*
X340913Y386858D01*
X341500Y386701D01*
X342500D01*
X343466Y386960D01*
X344333Y387460D01*
X345040Y388167D01*
X345540Y389034D01*
X345799Y390000D01*
Y391000D01*
X345540Y391966D01*
X345040Y392833D01*
X344333Y393540D01*
X343466Y394040D01*
X342500Y394299D01*
D02*
G37*
G36*
X242500D02*
X241500D01*
X240534Y394040D01*
X239667Y393540D01*
X238960Y392833D01*
X238460Y391966D01*
X238201Y391000D01*
Y390000D01*
X238460Y389034D01*
X238960Y388167D01*
X239667Y387460D01*
X240534Y386960D01*
X241500Y386701D01*
X242500D01*
X243466Y386960D01*
X244333Y387460D01*
X245040Y388167D01*
X245540Y389034D01*
X245799Y390000D01*
Y391000D01*
X245540Y391966D01*
X245040Y392833D01*
X244333Y393540D01*
X243466Y394040D01*
X242500Y394299D01*
D02*
G37*
G36*
X177453Y390953D02*
X171547D01*
Y385047D01*
X177453D01*
Y390953D01*
D02*
G37*
G36*
X187486Y387500D02*
X184843D01*
Y384857D01*
X185564Y385050D01*
X186286Y385467D01*
X186875Y386056D01*
X187292Y386778D01*
X187486Y387500D01*
D02*
G37*
G36*
X183843D02*
X181200D01*
X181393Y386778D01*
X181810Y386056D01*
X182399Y385467D01*
X183121Y385050D01*
X183843Y384857D01*
Y387500D01*
D02*
G37*
G36*
X342500Y404299D02*
X341500D01*
X340534Y404040D01*
X339667Y403540D01*
X338960Y402833D01*
X338460Y401966D01*
X338201Y401000D01*
Y400000D01*
X338460Y399034D01*
X338960Y398167D01*
X339667Y397460D01*
X340534Y396960D01*
X341500Y396701D01*
X342500D01*
X343466Y396960D01*
X344333Y397460D01*
X345040Y398167D01*
X345344Y398694D01*
X357752D01*
X357826Y398566D01*
X358413Y397980D01*
X359131Y397565D01*
X359932Y397350D01*
X360761D01*
X360903Y397389D01*
X373069Y385223D01*
X373655Y384831D01*
X374346Y384694D01*
X401060D01*
X401133Y384566D01*
X401720Y383980D01*
X402438Y383565D01*
X403239Y383350D01*
X404068D01*
X404869Y383565D01*
X405587Y383980D01*
X406174Y384566D01*
X406589Y385284D01*
X406803Y386085D01*
Y386915D01*
X406589Y387716D01*
X406174Y388434D01*
X405587Y389020D01*
X404869Y389435D01*
X404068Y389650D01*
X403239D01*
X402438Y389435D01*
X401720Y389020D01*
X401133Y388434D01*
X401060Y388306D01*
X375095D01*
X363458Y399943D01*
X363496Y400085D01*
Y400915D01*
X363281Y401716D01*
X362867Y402434D01*
X362280Y403020D01*
X361562Y403435D01*
X360761Y403650D01*
X359932D01*
X359131Y403435D01*
X358413Y403020D01*
X357826Y402434D01*
X357752Y402306D01*
X345344D01*
X345040Y402833D01*
X344333Y403540D01*
X343466Y404040D01*
X342500Y404299D01*
D02*
G37*
G36*
X360761Y389650D02*
X359932D01*
X359131Y389435D01*
X358413Y389020D01*
X357826Y388434D01*
X357411Y387716D01*
X357197Y386915D01*
Y386085D01*
X357411Y385284D01*
X357826Y384566D01*
X358413Y383980D01*
X359131Y383565D01*
X359932Y383350D01*
X360761D01*
X361562Y383565D01*
X362280Y383980D01*
X362867Y384566D01*
X363281Y385284D01*
X363496Y386085D01*
Y386915D01*
X363281Y387716D01*
X362867Y388434D01*
X362280Y389020D01*
X361562Y389435D01*
X360761Y389650D01*
D02*
G37*
G36*
X242500Y384299D02*
X241500D01*
X240534Y384040D01*
X239667Y383540D01*
X238960Y382833D01*
X238460Y381966D01*
X238201Y381000D01*
Y380000D01*
X238460Y379034D01*
X238960Y378167D01*
X239667Y377460D01*
X240534Y376960D01*
X241500Y376701D01*
X242500D01*
X243466Y376960D01*
X244333Y377460D01*
X245040Y378167D01*
X245540Y379034D01*
X245799Y380000D01*
Y381000D01*
X245540Y381966D01*
X245040Y382833D01*
X244333Y383540D01*
X243466Y384040D01*
X242500Y384299D01*
D02*
G37*
G36*
X387421Y369643D02*
Y367000D01*
X390064D01*
X389871Y367722D01*
X389454Y368444D01*
X388865Y369033D01*
X388143Y369450D01*
X387421Y369643D01*
D02*
G37*
G36*
X386421D02*
X385699Y369450D01*
X384978Y369033D01*
X384388Y368444D01*
X383972Y367722D01*
X383778Y367000D01*
X386421D01*
Y369643D01*
D02*
G37*
G36*
X342500Y374299D02*
X341500D01*
X340534Y374040D01*
X339667Y373540D01*
X338960Y372833D01*
X338460Y371966D01*
X338201Y371000D01*
Y370000D01*
X338460Y369034D01*
X338960Y368167D01*
X339667Y367460D01*
X340534Y366960D01*
X341500Y366701D01*
X342500D01*
X343466Y366960D01*
X344333Y367460D01*
X345040Y368167D01*
X345540Y369034D01*
X345799Y370000D01*
Y371000D01*
X345540Y371966D01*
X345040Y372833D01*
X344333Y373540D01*
X343466Y374040D01*
X342500Y374299D01*
D02*
G37*
G36*
X242500D02*
X241500D01*
X240534Y374040D01*
X239667Y373540D01*
X238960Y372833D01*
X238460Y371966D01*
X238201Y371000D01*
Y370000D01*
X238460Y369034D01*
X238960Y368167D01*
X239667Y367460D01*
X240534Y366960D01*
X241500Y366701D01*
X242500D01*
X243466Y366960D01*
X244333Y367460D01*
X245040Y368167D01*
X245540Y369034D01*
X245799Y370000D01*
Y371000D01*
X245540Y371966D01*
X245040Y372833D01*
X244333Y373540D01*
X243466Y374040D01*
X242500Y374299D01*
D02*
G37*
G36*
X201568Y370650D02*
X200739D01*
X199938Y370435D01*
X199220Y370020D01*
X198633Y369434D01*
X198219Y368716D01*
X198004Y367915D01*
Y367085D01*
X198219Y366284D01*
X198633Y365566D01*
X199220Y364980D01*
X199938Y364565D01*
X200739Y364350D01*
X201568D01*
X202369Y364565D01*
X203087Y364980D01*
X203674Y365566D01*
X204089Y366284D01*
X204303Y367085D01*
Y367915D01*
X204089Y368716D01*
X203674Y369434D01*
X203087Y370020D01*
X202369Y370435D01*
X201568Y370650D01*
D02*
G37*
G36*
X158261D02*
X157432D01*
X156631Y370435D01*
X155912Y370020D01*
X155326Y369434D01*
X155253Y369306D01*
X135000D01*
X134309Y369169D01*
X133723Y368777D01*
X120118Y355172D01*
X119086Y355449D01*
X117914D01*
X116783Y355146D01*
X115768Y354560D01*
X114940Y353732D01*
X114354Y352717D01*
X114051Y351586D01*
Y350414D01*
X114354Y349283D01*
X114940Y348268D01*
X115768Y347440D01*
X116783Y346854D01*
X117914Y346551D01*
X119086D01*
X120217Y346854D01*
X121232Y347440D01*
X122060Y348268D01*
X122646Y349283D01*
X122949Y350414D01*
Y351586D01*
X122672Y352618D01*
X135748Y365694D01*
X155253D01*
X155326Y365566D01*
X155912Y364980D01*
X156631Y364565D01*
X157432Y364350D01*
X158261D01*
X159062Y364565D01*
X159780Y364980D01*
X160367Y365566D01*
X160781Y366284D01*
X160996Y367085D01*
Y367915D01*
X160781Y368716D01*
X160367Y369434D01*
X159780Y370020D01*
X159062Y370435D01*
X158261Y370650D01*
D02*
G37*
G36*
X342500Y384299D02*
X341500D01*
X340534Y384040D01*
X339667Y383540D01*
X338960Y382833D01*
X338460Y381966D01*
X338201Y381000D01*
Y380000D01*
X338460Y379034D01*
X338960Y378167D01*
X339667Y377460D01*
X340534Y376960D01*
X341500Y376701D01*
X342500D01*
X343087Y376858D01*
X354723Y365223D01*
X355309Y364831D01*
X356000Y364694D01*
X374126D01*
Y363547D01*
X380032D01*
Y369453D01*
X374126D01*
Y368306D01*
X356748D01*
X345642Y379413D01*
X345799Y380000D01*
Y381000D01*
X345540Y381966D01*
X345040Y382833D01*
X344333Y383540D01*
X343466Y384040D01*
X342500Y384299D01*
D02*
G37*
G36*
X390064Y366000D02*
X387421D01*
Y363357D01*
X388143Y363550D01*
X388865Y363967D01*
X389454Y364556D01*
X389871Y365278D01*
X390064Y366000D01*
D02*
G37*
G36*
X386421D02*
X383778D01*
X383972Y365278D01*
X384388Y364556D01*
X384978Y363967D01*
X385699Y363550D01*
X386421Y363357D01*
Y366000D01*
D02*
G37*
G36*
X342500Y364299D02*
X341500D01*
X340534Y364040D01*
X339667Y363540D01*
X338960Y362833D01*
X338460Y361966D01*
X338201Y361000D01*
Y360000D01*
X338460Y359034D01*
X338960Y358167D01*
X339667Y357460D01*
X340534Y356960D01*
X341500Y356701D01*
X342500D01*
X343466Y356960D01*
X344333Y357460D01*
X345040Y358167D01*
X345540Y359034D01*
X345799Y360000D01*
Y361000D01*
X345540Y361966D01*
X345040Y362833D01*
X344333Y363540D01*
X343466Y364040D01*
X342500Y364299D01*
D02*
G37*
G36*
X242500D02*
X241500D01*
X240534Y364040D01*
X239667Y363540D01*
X238960Y362833D01*
X238460Y361966D01*
X238201Y361000D01*
Y360000D01*
X238460Y359034D01*
X238960Y358167D01*
X239667Y357460D01*
X240534Y356960D01*
X241500Y356701D01*
X242500D01*
X243466Y356960D01*
X244333Y357460D01*
X245040Y358167D01*
X245540Y359034D01*
X245799Y360000D01*
Y361000D01*
X245540Y361966D01*
X245040Y362833D01*
X244333Y363540D01*
X243466Y364040D01*
X242500Y364299D01*
D02*
G37*
G36*
X158346Y357347D02*
Y354500D01*
X161193D01*
X160979Y355298D01*
X160537Y356064D01*
X159911Y356690D01*
X159144Y357133D01*
X158346Y357347D01*
D02*
G37*
G36*
X157346D02*
X156549Y357133D01*
X155782Y356690D01*
X155156Y356064D01*
X154713Y355298D01*
X154500Y354500D01*
X157346D01*
Y357347D01*
D02*
G37*
G36*
X342500Y414299D02*
X341500D01*
X340534Y414040D01*
X339667Y413540D01*
X338960Y412833D01*
X338460Y411966D01*
X338201Y411000D01*
Y410000D01*
X338460Y409034D01*
X338960Y408167D01*
X339667Y407460D01*
X340534Y406960D01*
X341500Y406701D01*
X342500D01*
X343466Y406960D01*
X344333Y407460D01*
X345040Y408167D01*
X345344Y408694D01*
X409452D01*
X439723Y378423D01*
X440309Y378031D01*
X441000Y377894D01*
X457252D01*
X461494Y373652D01*
Y352685D01*
X460994Y352478D01*
X460795Y352677D01*
X459943Y353169D01*
X458992Y353423D01*
X458008D01*
X457057Y353169D01*
X456205Y352677D01*
X455509Y351981D01*
X455017Y351129D01*
X454763Y350178D01*
Y349194D01*
X455017Y348243D01*
X455509Y347391D01*
X456205Y346695D01*
X457057Y346203D01*
X458008Y345949D01*
X458992D01*
X459943Y346203D01*
X460795Y346695D01*
X460994Y346894D01*
X461494Y346687D01*
Y343089D01*
X461032Y342897D01*
X460925Y343004D01*
X460025Y343524D01*
X459020Y343793D01*
X459000D01*
Y339843D01*
Y335893D01*
X459020D01*
X460025Y336162D01*
X460925Y336682D01*
X461032Y336789D01*
X461494Y336597D01*
Y332999D01*
X460994Y332792D01*
X460795Y332991D01*
X459943Y333483D01*
X458992Y333737D01*
X458008D01*
X457057Y333483D01*
X456205Y332991D01*
X455509Y332295D01*
X455017Y331443D01*
X454763Y330492D01*
Y329508D01*
X455017Y328557D01*
X455509Y327705D01*
X456205Y327009D01*
X457057Y326517D01*
X458008Y326263D01*
X458992D01*
X459943Y326517D01*
X460795Y327009D01*
X460994Y327208D01*
X461494Y327001D01*
Y313733D01*
X459537Y311776D01*
X458992Y311922D01*
X458008D01*
X457057Y311668D01*
X456205Y311176D01*
X455509Y310480D01*
X455017Y309628D01*
X454763Y308677D01*
Y307693D01*
X455017Y306742D01*
X455509Y305890D01*
X456205Y305194D01*
X457057Y304702D01*
X458008Y304448D01*
X458992D01*
X459943Y304702D01*
X460795Y305194D01*
X461491Y305890D01*
X461983Y306742D01*
X462237Y307693D01*
Y308677D01*
X462091Y309222D01*
X464577Y311708D01*
X464969Y312294D01*
X465106Y312985D01*
Y374400D01*
X464969Y375091D01*
X464577Y375677D01*
X459277Y380977D01*
X458885Y381240D01*
X458775Y381768D01*
X458794Y381856D01*
X459301Y382363D01*
X459926Y383446D01*
X460250Y384654D01*
Y384780D01*
X455500D01*
X450750D01*
Y384654D01*
X451074Y383446D01*
X451699Y382363D01*
X452094Y381968D01*
X451902Y381506D01*
X441748D01*
X411477Y411777D01*
X410891Y412169D01*
X410200Y412306D01*
X345344D01*
X345040Y412833D01*
X344333Y413540D01*
X343466Y414040D01*
X342500Y414299D01*
D02*
G37*
G36*
X242528Y354512D02*
X242500D01*
Y351000D01*
X246012D01*
Y351028D01*
X245738Y352048D01*
X245210Y352963D01*
X244463Y353710D01*
X243548Y354238D01*
X242528Y354512D01*
D02*
G37*
G36*
X241500D02*
X241472D01*
X240452Y354238D01*
X239537Y353710D01*
X238790Y352963D01*
X238262Y352048D01*
X237988Y351028D01*
Y351000D01*
X241500D01*
Y354512D01*
D02*
G37*
G36*
X201568Y357150D02*
X200739D01*
X199938Y356935D01*
X199220Y356520D01*
X198633Y355934D01*
X198219Y355216D01*
X198004Y354415D01*
Y353585D01*
X198042Y353443D01*
X187405Y342806D01*
X122594D01*
X122060Y343732D01*
X121232Y344560D01*
X120217Y345146D01*
X119086Y345449D01*
X117914D01*
X116783Y345146D01*
X115768Y344560D01*
X114940Y343732D01*
X114354Y342717D01*
X114051Y341586D01*
Y340414D01*
X114354Y339283D01*
X114940Y338268D01*
X115768Y337440D01*
X116783Y336854D01*
X117914Y336551D01*
X119086D01*
X120217Y336854D01*
X121232Y337440D01*
X122060Y338268D01*
X122594Y339194D01*
X188154D01*
X188845Y339331D01*
X189431Y339723D01*
X200597Y350888D01*
X200739Y350850D01*
X201568D01*
X202369Y351065D01*
X203087Y351480D01*
X203674Y352066D01*
X204089Y352784D01*
X204303Y353585D01*
Y354415D01*
X204089Y355216D01*
X203674Y355934D01*
X203087Y356520D01*
X202369Y356935D01*
X201568Y357150D01*
D02*
G37*
G36*
X161193Y353500D02*
X158346D01*
Y350653D01*
X159144Y350867D01*
X159911Y351310D01*
X160537Y351936D01*
X160979Y352702D01*
X161193Y353500D01*
D02*
G37*
G36*
X157346D02*
X154500D01*
X154713Y352702D01*
X155156Y351936D01*
X155782Y351310D01*
X156549Y350867D01*
X157346Y350653D01*
Y353500D01*
D02*
G37*
G36*
X456097Y376037D02*
X454903D01*
X453749Y375728D01*
X452714Y375131D01*
X451869Y374286D01*
X451272Y373251D01*
X450963Y372097D01*
Y370903D01*
X451272Y369749D01*
X451869Y368714D01*
X452714Y367869D01*
X453694Y367304D01*
Y361548D01*
X450452Y358306D01*
X348000D01*
X347309Y358169D01*
X346723Y357777D01*
X343245Y354299D01*
X338201D01*
Y346701D01*
X345799D01*
Y351745D01*
X348748Y354694D01*
X451200D01*
X451891Y354831D01*
X452477Y355223D01*
X456777Y359523D01*
X457169Y360109D01*
X457306Y360800D01*
Y367304D01*
X458286Y367869D01*
X459131Y368714D01*
X459728Y369749D01*
X460037Y370903D01*
Y372097D01*
X459728Y373251D01*
X459131Y374286D01*
X458286Y375131D01*
X457251Y375728D01*
X456097Y376037D01*
D02*
G37*
G36*
X405543Y353106D02*
X376300D01*
X375609Y352969D01*
X375023Y352577D01*
X365352Y342906D01*
X361036D01*
X360970Y343406D01*
X361562Y343565D01*
X362280Y343980D01*
X362867Y344566D01*
X363281Y345284D01*
X363496Y346085D01*
Y346915D01*
X363281Y347716D01*
X362867Y348434D01*
X362280Y349020D01*
X361562Y349435D01*
X360761Y349650D01*
X359932D01*
X359131Y349435D01*
X358413Y349020D01*
X357826Y348434D01*
X357411Y347716D01*
X357197Y346915D01*
Y346085D01*
X357411Y345284D01*
X357826Y344566D01*
X358413Y343980D01*
X359131Y343565D01*
X359723Y343406D01*
X359657Y342906D01*
X335453D01*
X335331Y343119D01*
X334718Y343731D01*
X333969Y344163D01*
X333133Y344387D01*
X332267D01*
X331431Y344163D01*
X330681Y343731D01*
X330069Y343119D01*
X329637Y342369D01*
X329413Y341533D01*
Y340667D01*
X329637Y339831D01*
X330069Y339082D01*
X330681Y338469D01*
X331431Y338037D01*
X332267Y337813D01*
X333133D01*
X333969Y338037D01*
X334718Y338469D01*
X335331Y339082D01*
X335453Y339294D01*
X366100D01*
X366791Y339431D01*
X367377Y339823D01*
X377048Y349494D01*
X401540D01*
X401684Y349114D01*
X401693Y348994D01*
X401133Y348434D01*
X400719Y347716D01*
X400504Y346915D01*
Y346085D01*
X400542Y345943D01*
X376405Y321806D01*
X226753D01*
X226631Y322019D01*
X226019Y322631D01*
X225269Y323063D01*
X224433Y323287D01*
X223567D01*
X222731Y323063D01*
X221982Y322631D01*
X221369Y322019D01*
X220937Y321269D01*
X220713Y320433D01*
Y319567D01*
X220937Y318731D01*
X221369Y317982D01*
X221982Y317369D01*
X222731Y316937D01*
X223567Y316713D01*
X224433D01*
X225269Y316937D01*
X226019Y317369D01*
X226631Y317982D01*
X226753Y318194D01*
X377154D01*
X377845Y318331D01*
X378431Y318723D01*
X403097Y343389D01*
X403239Y343350D01*
X404068D01*
X404869Y343565D01*
X405587Y343980D01*
X406174Y344566D01*
X406589Y345284D01*
X406803Y346085D01*
Y346778D01*
X407254Y347034D01*
X454909Y299379D01*
X454763Y298835D01*
Y297851D01*
X455017Y296900D01*
X455509Y296048D01*
X456205Y295352D01*
X457057Y294860D01*
X458008Y294605D01*
X458992D01*
X459943Y294860D01*
X460795Y295352D01*
X461491Y296048D01*
X461983Y296900D01*
X462237Y297851D01*
Y298835D01*
X461983Y299785D01*
X461491Y300637D01*
X460795Y301333D01*
X459943Y301825D01*
X458992Y302080D01*
X458008D01*
X457463Y301934D01*
X406820Y352577D01*
X406234Y352969D01*
X405543Y353106D01*
D02*
G37*
G36*
X458000Y343793D02*
X457980D01*
X456975Y343524D01*
X456075Y343004D01*
X455339Y342268D01*
X454819Y341368D01*
X454550Y340363D01*
Y340343D01*
X458000D01*
Y343793D01*
D02*
G37*
G36*
Y339343D02*
X454550D01*
Y339323D01*
X454819Y338318D01*
X455339Y337418D01*
X456075Y336682D01*
X456975Y336162D01*
X457980Y335893D01*
X458000D01*
Y339343D01*
D02*
G37*
G36*
X404154Y337347D02*
Y334500D01*
X407000D01*
X406787Y335298D01*
X406344Y336064D01*
X405718Y336690D01*
X404951Y337133D01*
X404154Y337347D01*
D02*
G37*
G36*
X403154D02*
X402356Y337133D01*
X401589Y336690D01*
X400963Y336064D01*
X400521Y335298D01*
X400307Y334500D01*
X403154D01*
Y337347D01*
D02*
G37*
G36*
X360761Y337150D02*
X359932D01*
X359131Y336935D01*
X358413Y336520D01*
X357826Y335934D01*
X357411Y335216D01*
X357197Y334415D01*
Y333585D01*
X357411Y332784D01*
X357826Y332066D01*
X358413Y331480D01*
X359131Y331065D01*
X359932Y330850D01*
X360761D01*
X361562Y331065D01*
X362280Y331480D01*
X362867Y332066D01*
X363281Y332784D01*
X363496Y333585D01*
Y334415D01*
X363281Y335216D01*
X362867Y335934D01*
X362280Y336520D01*
X361562Y336935D01*
X360761Y337150D01*
D02*
G37*
G36*
X407000Y333500D02*
X404154D01*
Y330653D01*
X404951Y330867D01*
X405718Y331310D01*
X406344Y331936D01*
X406787Y332702D01*
X407000Y333500D01*
D02*
G37*
G36*
X403154D02*
X400307D01*
X400521Y332702D01*
X400963Y331936D01*
X401589Y331310D01*
X402356Y330867D01*
X403154Y330653D01*
Y333500D01*
D02*
G37*
G36*
X122949Y335449D02*
X114051D01*
Y326551D01*
X122949D01*
Y335449D01*
D02*
G37*
G36*
X145921Y306643D02*
Y304000D01*
X148564D01*
X148371Y304722D01*
X147954Y305444D01*
X147365Y306033D01*
X146643Y306450D01*
X145921Y306643D01*
D02*
G37*
G36*
X144921D02*
X144199Y306450D01*
X143478Y306033D01*
X142888Y305444D01*
X142472Y304722D01*
X142278Y304000D01*
X144921D01*
Y306643D01*
D02*
G37*
G36*
X148564Y303000D02*
X145921D01*
Y300357D01*
X146643Y300550D01*
X147365Y300967D01*
X147954Y301556D01*
X148371Y302278D01*
X148564Y303000D01*
D02*
G37*
G36*
X144921D02*
X142278D01*
X142472Y302278D01*
X142888Y301556D01*
X143478Y300967D01*
X144199Y300550D01*
X144921Y300357D01*
Y303000D01*
D02*
G37*
G36*
X326033Y298387D02*
X325167D01*
X324331Y298163D01*
X323582Y297731D01*
X322969Y297118D01*
X322537Y296369D01*
X322313Y295533D01*
Y294667D01*
X322376Y294431D01*
X295423Y267477D01*
X295031Y266891D01*
X294981Y266637D01*
X294769Y266544D01*
X294445Y266509D01*
X293934Y267020D01*
X293216Y267435D01*
X292415Y267650D01*
X291585D01*
X290784Y267435D01*
X290066Y267020D01*
X289480Y266434D01*
X289406Y266306D01*
X284548D01*
X284335Y266676D01*
X283676Y267335D01*
X282868Y267802D01*
X281966Y268043D01*
X281033D01*
X280132Y267802D01*
X279324Y267335D01*
X278665Y266676D01*
X278198Y265868D01*
X277957Y264967D01*
Y264034D01*
X278198Y263132D01*
X278665Y262324D01*
X279324Y261665D01*
X280132Y261198D01*
X281033Y260957D01*
X281966D01*
X282868Y261198D01*
X283676Y261665D01*
X284335Y262324D01*
X284548Y262694D01*
X289406D01*
X289480Y262566D01*
X290066Y261980D01*
X290784Y261565D01*
X291585Y261350D01*
X292415D01*
X293216Y261565D01*
X293934Y261980D01*
X294394Y262439D01*
X294894Y262260D01*
Y242740D01*
X294394Y242561D01*
X293934Y243020D01*
X293216Y243435D01*
X292415Y243650D01*
X291585D01*
X290784Y243435D01*
X290066Y243020D01*
X289480Y242434D01*
X289406Y242306D01*
X284548D01*
X284335Y242676D01*
X283676Y243335D01*
X282868Y243802D01*
X281966Y244043D01*
X281033D01*
X280132Y243802D01*
X279324Y243335D01*
X278665Y242676D01*
X278198Y241868D01*
X277957Y240967D01*
Y240034D01*
X278198Y239132D01*
X278665Y238324D01*
X279324Y237665D01*
X280132Y237198D01*
X281033Y236957D01*
X281966D01*
X282868Y237198D01*
X283676Y237665D01*
X284335Y238324D01*
X284548Y238694D01*
X289406D01*
X289480Y238566D01*
X290066Y237980D01*
X290784Y237565D01*
X291585Y237350D01*
X292415D01*
X293216Y237565D01*
X293934Y237980D01*
X294394Y238439D01*
X294894Y238260D01*
Y237548D01*
X277552Y220206D01*
X178653D01*
X178531Y220419D01*
X178260Y220689D01*
X178467Y221189D01*
X180417D01*
Y223300D01*
X186583D01*
Y221189D01*
X194417D01*
Y229024D01*
X186583D01*
Y226913D01*
X180417D01*
Y229024D01*
X175137D01*
X162884Y241277D01*
X162298Y241669D01*
X161606Y241806D01*
X158953D01*
Y242953D01*
X153047D01*
Y237047D01*
X158953D01*
Y238194D01*
X160858D01*
X172583Y226469D01*
Y221189D01*
X173333D01*
X173540Y220689D01*
X173269Y220419D01*
X172837Y219669D01*
X172613Y218833D01*
Y217967D01*
X172837Y217131D01*
X173269Y216382D01*
X173881Y215769D01*
X174631Y215337D01*
X175467Y215113D01*
X176333D01*
X177169Y215337D01*
X177919Y215769D01*
X178531Y216382D01*
X178653Y216594D01*
X278300D01*
X278991Y216731D01*
X279577Y217123D01*
X297977Y235523D01*
X298369Y236109D01*
X298506Y236800D01*
Y242251D01*
X299006Y242444D01*
X299482Y241969D01*
X300231Y241537D01*
X301067Y241313D01*
X301933D01*
X302769Y241537D01*
X303519Y241969D01*
X304131Y242582D01*
X304563Y243331D01*
X304787Y244167D01*
Y245033D01*
X304724Y245269D01*
X346131Y286676D01*
X346367Y286613D01*
X347233D01*
X348069Y286837D01*
X348818Y287269D01*
X349431Y287881D01*
X349863Y288631D01*
X350087Y289467D01*
Y290333D01*
X349863Y291169D01*
X349431Y291918D01*
X348818Y292531D01*
X348069Y292963D01*
X347233Y293187D01*
X346367D01*
X345531Y292963D01*
X344781Y292531D01*
X344169Y291918D01*
X343737Y291169D01*
X343513Y290333D01*
Y289467D01*
X343576Y289231D01*
X302169Y247824D01*
X301933Y247887D01*
X301067D01*
X300231Y247663D01*
X299482Y247231D01*
X299006Y246756D01*
X298506Y246949D01*
Y265452D01*
X324931Y291876D01*
X325167Y291813D01*
X326033D01*
X326869Y292037D01*
X327619Y292469D01*
X328231Y293081D01*
X328663Y293831D01*
X328887Y294667D01*
Y295533D01*
X328663Y296369D01*
X328231Y297118D01*
X327619Y297731D01*
X326869Y298163D01*
X326033Y298387D01*
D02*
G37*
G36*
X339233Y308987D02*
X338367D01*
X337531Y308763D01*
X336782Y308331D01*
X336169Y307718D01*
X335737Y306969D01*
X335513Y306133D01*
Y305267D01*
X335737Y304431D01*
X336169Y303681D01*
X336782Y303069D01*
X337531Y302637D01*
X338367Y302413D01*
X339233D01*
X340069Y302637D01*
X340819Y303069D01*
X341431Y303681D01*
X341553Y303894D01*
X440552D01*
X454909Y289537D01*
X454763Y288992D01*
Y288008D01*
X455017Y287057D01*
X455509Y286205D01*
X456205Y285509D01*
X457057Y285017D01*
X458008Y284763D01*
X458992D01*
X459943Y285017D01*
X460795Y285509D01*
X461491Y286205D01*
X461983Y287057D01*
X462237Y288008D01*
Y288992D01*
X461983Y289943D01*
X461491Y290795D01*
X460795Y291491D01*
X459943Y291983D01*
X458992Y292237D01*
X458008D01*
X457463Y292091D01*
X442577Y306977D01*
X441991Y307369D01*
X441300Y307506D01*
X341553D01*
X341431Y307718D01*
X340819Y308331D01*
X340069Y308763D01*
X339233Y308987D01*
D02*
G37*
G36*
X326333Y311687D02*
X325467D01*
X324631Y311463D01*
X323882Y311031D01*
X323269Y310419D01*
X322837Y309669D01*
X322613Y308833D01*
Y307967D01*
X322837Y307131D01*
X323269Y306382D01*
X323882Y305769D01*
X324631Y305337D01*
X325467Y305113D01*
X326333D01*
X326569Y305176D01*
X335423Y296323D01*
X336009Y295931D01*
X336700Y295794D01*
X438809D01*
X454909Y279694D01*
X454763Y279149D01*
Y278165D01*
X455017Y277215D01*
X455509Y276363D01*
X456205Y275667D01*
X457057Y275175D01*
X458008Y274920D01*
X458992D01*
X459943Y275175D01*
X460795Y275667D01*
X461491Y276363D01*
X461983Y277215D01*
X462237Y278165D01*
Y279149D01*
X461983Y280100D01*
X461491Y280952D01*
X460795Y281648D01*
X459943Y282140D01*
X458992Y282395D01*
X458008D01*
X457463Y282249D01*
X440835Y298877D01*
X440249Y299269D01*
X439557Y299406D01*
X337448D01*
X329124Y307731D01*
X329187Y307967D01*
Y308833D01*
X328963Y309669D01*
X328531Y310419D01*
X327919Y311031D01*
X327169Y311463D01*
X326333Y311687D01*
D02*
G37*
G36*
X335807Y267847D02*
Y265000D01*
X338654D01*
X338440Y265798D01*
X337997Y266564D01*
X337371Y267190D01*
X336605Y267633D01*
X335807Y267847D01*
D02*
G37*
G36*
X334807D02*
X334009Y267633D01*
X333243Y267190D01*
X332617Y266564D01*
X332174Y265798D01*
X331960Y265000D01*
X334807D01*
Y267847D01*
D02*
G37*
G36*
X140033Y289787D02*
X139167D01*
X138331Y289563D01*
X137582Y289131D01*
X136969Y288519D01*
X136537Y287769D01*
X136313Y286933D01*
Y286067D01*
X136537Y285231D01*
X136969Y284482D01*
X137582Y283869D01*
X138331Y283437D01*
X139167Y283213D01*
X140033D01*
X140869Y283437D01*
X141619Y283869D01*
X142231Y284482D01*
X142353Y284694D01*
X169146D01*
X186762Y267077D01*
X186583Y266409D01*
Y265378D01*
X186850Y264382D01*
X187365Y263489D01*
X188095Y262759D01*
X188988Y262243D01*
X189984Y261977D01*
X191016D01*
X192012Y262243D01*
X192905Y262759D01*
X193635Y263489D01*
X194150Y264382D01*
X194417Y265378D01*
Y266409D01*
X194150Y267406D01*
X193635Y268299D01*
X192905Y269028D01*
X192012Y269544D01*
X191016Y269811D01*
X189984D01*
X189316Y269632D01*
X171171Y287777D01*
X170585Y288169D01*
X169894Y288306D01*
X142353D01*
X142231Y288519D01*
X141619Y289131D01*
X140869Y289563D01*
X140033Y289787D01*
D02*
G37*
G36*
X338654Y264000D02*
X335807D01*
Y261153D01*
X336605Y261367D01*
X337371Y261810D01*
X337997Y262436D01*
X338440Y263202D01*
X338654Y264000D01*
D02*
G37*
G36*
X334807D02*
X331960D01*
X332174Y263202D01*
X332617Y262436D01*
X333243Y261810D01*
X334009Y261367D01*
X334807Y261153D01*
Y264000D01*
D02*
G37*
G36*
X138531Y306453D02*
X132626D01*
Y300547D01*
X135977D01*
X147101Y289423D01*
X147687Y289031D01*
X148379Y288894D01*
X178252D01*
X194723Y272423D01*
X195309Y272031D01*
X196000Y271894D01*
X261552D01*
X267957Y265489D01*
Y260957D01*
X275043D01*
Y268043D01*
X270511D01*
X263577Y274977D01*
X262991Y275369D01*
X262300Y275506D01*
X196748D01*
X180277Y291977D01*
X179691Y292369D01*
X179000Y292506D01*
X149127D01*
X138531Y303102D01*
Y306453D01*
D02*
G37*
G36*
X456125Y261250D02*
X456000D01*
Y257000D01*
X460250D01*
Y257125D01*
X459926Y258333D01*
X459301Y259417D01*
X458417Y260301D01*
X457333Y260926D01*
X456125Y261250D01*
D02*
G37*
G36*
X455000D02*
X454875D01*
X453667Y260926D01*
X452583Y260301D01*
X451699Y259417D01*
X451074Y258333D01*
X450750Y257125D01*
Y257000D01*
X455000D01*
Y261250D01*
D02*
G37*
G36*
X460250Y256000D02*
X456000D01*
Y251750D01*
X456125D01*
X457333Y252074D01*
X458417Y252699D01*
X459301Y253583D01*
X459926Y254667D01*
X460250Y255875D01*
Y256000D01*
D02*
G37*
G36*
X455000D02*
X450750D01*
Y255875D01*
X451074Y254667D01*
X451699Y253583D01*
X452583Y252699D01*
X453667Y252074D01*
X454875Y251750D01*
X455000D01*
Y256000D01*
D02*
G37*
G36*
X155500Y252986D02*
X154778Y252792D01*
X154056Y252376D01*
X153467Y251786D01*
X153050Y251064D01*
X152857Y250343D01*
X155500D01*
Y252986D01*
D02*
G37*
G36*
X335807Y243847D02*
Y241000D01*
X338654D01*
X338440Y241798D01*
X337997Y242564D01*
X337371Y243190D01*
X336605Y243633D01*
X335807Y243847D01*
D02*
G37*
G36*
X334807D02*
X334009Y243633D01*
X333243Y243190D01*
X332617Y242564D01*
X332174Y241798D01*
X331960Y241000D01*
X334807D01*
Y243847D01*
D02*
G37*
G36*
X456097Y247258D02*
X454903D01*
X453749Y246949D01*
X452714Y246351D01*
X451869Y245506D01*
X451272Y244472D01*
X450963Y243318D01*
Y242123D01*
X451272Y240969D01*
X451869Y239934D01*
X452714Y239090D01*
X453749Y238492D01*
X454903Y238183D01*
X456097D01*
X457251Y238492D01*
X458286Y239090D01*
X459131Y239934D01*
X459728Y240969D01*
X460037Y242123D01*
Y243318D01*
X459728Y244472D01*
X459131Y245506D01*
X458286Y246351D01*
X457251Y246949D01*
X456097Y247258D01*
D02*
G37*
G36*
X338654Y240000D02*
X335807D01*
Y237153D01*
X336605Y237367D01*
X337371Y237810D01*
X337997Y238436D01*
X338440Y239202D01*
X338654Y240000D01*
D02*
G37*
G36*
X334807D02*
X331960D01*
X332174Y239202D01*
X332617Y238436D01*
X333243Y237810D01*
X334009Y237367D01*
X334807Y237153D01*
Y240000D01*
D02*
G37*
G36*
X177016Y269811D02*
X175984D01*
X174988Y269544D01*
X174095Y269028D01*
X173365Y268299D01*
X172850Y267406D01*
X172583Y266409D01*
Y265378D01*
X172762Y264710D01*
X159377Y251325D01*
X158752Y251407D01*
X158533Y251786D01*
X157944Y252376D01*
X157222Y252792D01*
X156500Y252986D01*
Y249843D01*
X156000D01*
Y249343D01*
X152857D01*
X153050Y248621D01*
X153290Y248206D01*
X153001Y247706D01*
X128548D01*
X127624Y248631D01*
X127687Y248867D01*
Y249733D01*
X127463Y250569D01*
X127031Y251319D01*
X126418Y251931D01*
X125669Y252363D01*
X124833Y252587D01*
X123967D01*
X123131Y252363D01*
X122381Y251931D01*
X121769Y251319D01*
X121337Y250569D01*
X121113Y249733D01*
Y248867D01*
X121337Y248031D01*
X121769Y247282D01*
X122381Y246669D01*
X123131Y246237D01*
X123967Y246013D01*
X124833D01*
X125069Y246076D01*
X126523Y244623D01*
X127109Y244231D01*
X127800Y244094D01*
X158400D01*
X159091Y244231D01*
X159677Y244623D01*
X161277Y246223D01*
X161669Y246809D01*
X161806Y247500D01*
Y248646D01*
X175316Y262156D01*
X175984Y261977D01*
X177016D01*
X177684Y262156D01*
X200617Y239223D01*
X201203Y238831D01*
X201894Y238694D01*
X267957D01*
Y236957D01*
X275043D01*
Y244043D01*
X267957D01*
Y242306D01*
X202642D01*
X180238Y264710D01*
X180417Y265378D01*
Y266409D01*
X180150Y267406D01*
X179635Y268299D01*
X178905Y269028D01*
X178012Y269544D01*
X177016Y269811D01*
D02*
G37*
G36*
X410276Y180512D02*
X410248D01*
Y177000D01*
X413760D01*
Y177028D01*
X413486Y178049D01*
X412958Y178963D01*
X412211Y179710D01*
X411297Y180238D01*
X410276Y180512D01*
D02*
G37*
G36*
X409248D02*
X409220D01*
X408200Y180238D01*
X407285Y179710D01*
X406538Y178963D01*
X406010Y178049D01*
X405736Y177028D01*
Y177000D01*
X409248D01*
Y180512D01*
D02*
G37*
G36*
X191528D02*
X191500D01*
Y177000D01*
X195012D01*
Y177028D01*
X194738Y178049D01*
X194210Y178963D01*
X193463Y179710D01*
X192549Y180238D01*
X191528Y180512D01*
D02*
G37*
G36*
X190500D02*
X190472D01*
X189452Y180238D01*
X188537Y179710D01*
X187790Y178963D01*
X187262Y178049D01*
X186988Y177028D01*
Y177000D01*
X190500D01*
Y180512D01*
D02*
G37*
G36*
X141276D02*
X141248D01*
Y177000D01*
X144760D01*
Y177028D01*
X144486Y178049D01*
X143958Y178963D01*
X143211Y179710D01*
X142297Y180238D01*
X141276Y180512D01*
D02*
G37*
G36*
X140248D02*
X140220D01*
X139199Y180238D01*
X138285Y179710D01*
X137538Y178963D01*
X137010Y178049D01*
X136736Y177028D01*
Y177000D01*
X140248D01*
Y180512D01*
D02*
G37*
G36*
X467950Y192146D02*
X466050D01*
X464186Y191775D01*
X462431Y191048D01*
X460851Y189992D01*
X459508Y188649D01*
X458452Y187069D01*
X457725Y185313D01*
X457354Y183450D01*
Y181550D01*
X457725Y179686D01*
X458452Y177931D01*
X459508Y176351D01*
X460851Y175008D01*
X462431Y173952D01*
X464186Y173225D01*
X466050Y172854D01*
X467950D01*
X469813Y173225D01*
X471569Y173952D01*
X473149Y175008D01*
X474492Y176351D01*
X475548Y177931D01*
X476275Y179686D01*
X476646Y181550D01*
Y183450D01*
X476275Y185313D01*
X475548Y187069D01*
X474492Y188649D01*
X473149Y189992D01*
X471569Y191048D01*
X469813Y191775D01*
X467950Y192146D01*
D02*
G37*
G36*
X388012Y176000D02*
X384500D01*
Y172488D01*
X384528D01*
X385548Y172762D01*
X386463Y173290D01*
X387210Y174037D01*
X387738Y174952D01*
X388012Y175972D01*
Y176000D01*
D02*
G37*
G36*
X383500D02*
X379988D01*
Y175972D01*
X380262Y174952D01*
X380790Y174037D01*
X381537Y173290D01*
X382452Y172762D01*
X383472Y172488D01*
X383500D01*
Y176000D01*
D02*
G37*
G36*
X444752Y170299D02*
X443752D01*
X442786Y170040D01*
X441919Y169540D01*
X441212Y168833D01*
X440712Y167966D01*
X440453Y167000D01*
Y166000D01*
X440712Y165034D01*
X441212Y164167D01*
X441919Y163460D01*
X442786Y162960D01*
X443752Y162701D01*
X444752D01*
X445718Y162960D01*
X446585Y163460D01*
X447292Y164167D01*
X447792Y165034D01*
X448051Y166000D01*
Y167000D01*
X447792Y167966D01*
X447292Y168833D01*
X446585Y169540D01*
X445718Y170040D01*
X444752Y170299D01*
D02*
G37*
G36*
X438051D02*
X430453D01*
Y162701D01*
X438051D01*
Y170299D01*
D02*
G37*
G36*
X151248D02*
X150248D01*
X149282Y170040D01*
X148415Y169540D01*
X147708Y168833D01*
X147208Y167966D01*
X146949Y167000D01*
Y166000D01*
X147208Y165034D01*
X147708Y164167D01*
X148415Y163460D01*
X149282Y162960D01*
X150248Y162701D01*
X151248D01*
X152214Y162960D01*
X153081Y163460D01*
X153788Y164167D01*
X154288Y165034D01*
X154547Y166000D01*
Y167000D01*
X154288Y167966D01*
X153788Y168833D01*
X153081Y169540D01*
X152214Y170040D01*
X151248Y170299D01*
D02*
G37*
%LPD*%
D26*
X458500Y349686D02*
D03*
Y339843D02*
D03*
Y330000D02*
D03*
Y308185D02*
D03*
Y298343D02*
D03*
Y288500D02*
D03*
Y278657D02*
D03*
D27*
X455500Y215161D02*
D03*
Y228941D02*
D03*
Y242720D02*
D03*
Y256500D02*
D03*
Y371500D02*
D03*
Y385280D02*
D03*
Y399059D02*
D03*
Y412839D02*
D03*
D41*
X404031Y196500D02*
X430832Y223301D01*
X405066Y194000D02*
X431868Y220801D01*
X108843Y194000D02*
X405066D01*
X109879Y196500D02*
X404031D01*
X106500Y415360D02*
X116238Y425098D01*
X120330Y423330D02*
X121000Y424000D01*
X118006Y423330D02*
X120330D01*
X116238Y425098D02*
Y427423D01*
X116908Y428092D01*
X109000Y414325D02*
X118006Y423330D01*
X106500Y196343D02*
Y415360D01*
X109000Y197379D02*
Y414325D01*
X106500Y196343D02*
X108843Y194000D01*
X109000Y197379D02*
X109879Y196500D01*
X431868Y220801D02*
X449860D01*
X455500Y215161D01*
X449860Y223301D02*
X455500Y228941D01*
X430832Y223301D02*
X449860D01*
D42*
X145948Y171700D02*
X150748Y176500D01*
X134900Y171700D02*
X145948D01*
X342000Y350500D02*
X348000Y356500D01*
X451200D01*
X455500Y360800D01*
Y371500D01*
X281500Y157500D02*
X286000Y162000D01*
X369500D01*
X369800Y161700D01*
X396200D01*
X405800Y171300D01*
X414948D01*
X419748Y166500D01*
X168500Y453843D02*
X229743D01*
X231600Y455700D01*
X409015D01*
X417000Y463685D01*
X160000Y249394D02*
X176500Y265894D01*
X160000Y247500D02*
Y249394D01*
X158400Y245900D02*
X160000Y247500D01*
X127800Y245900D02*
X158400D01*
X124400Y249300D02*
X127800Y245900D01*
X176500Y265894D02*
X201894Y240500D01*
X271500D01*
X457500Y462988D02*
X476646D01*
X479500Y465843D01*
X201000Y176500D02*
X251500D01*
X261300Y186300D01*
X409948D01*
X419748Y176500D01*
X184343Y388000D02*
X206843Y410500D01*
X242000D01*
X139685Y459000D02*
X202079D01*
X115500Y434815D02*
X139685Y459000D01*
X172343Y438000D02*
X185346D01*
X168500Y434157D02*
X172343Y438000D01*
X383421Y484500D02*
X387421Y480500D01*
X346000Y484500D02*
X383421D01*
X342000Y480500D02*
X346000Y484500D01*
X242000Y410500D02*
X247000Y415500D01*
X380421D01*
X386921Y422000D01*
X335307Y264500D02*
X447500D01*
X455500Y256500D01*
X169894Y286500D02*
X190500Y265894D01*
X139600Y286500D02*
X169894D01*
X374346Y386500D02*
X403654D01*
X360346Y400500D02*
X374346Y386500D01*
X342000Y530500D02*
X420894D01*
X426000Y525394D01*
X185346Y424000D02*
X207046Y445700D01*
X353500D01*
X357800Y450000D01*
X419200D01*
X421100Y448100D01*
Y415500D02*
Y448100D01*
Y415500D02*
X444400Y392200D01*
X471500D01*
X224000Y320000D02*
X377154D01*
X403654Y346500D01*
X297200Y345700D02*
X342000Y390500D01*
X234700Y345700D02*
X297200D01*
X190800Y301800D02*
X234700Y345700D01*
X190800Y287700D02*
Y301800D01*
X301500Y244600D02*
X346800Y289900D01*
X342000Y410500D02*
X410200D01*
X441000Y379700D01*
X458000D01*
X463300Y374400D01*
Y312985D02*
Y374400D01*
X458500Y308185D02*
X463300Y312985D01*
X405543Y351300D02*
X458500Y298343D01*
X376300Y351300D02*
X405543D01*
X366100Y341100D02*
X376300Y351300D01*
X332700Y341100D02*
X366100D01*
X441300Y305700D02*
X458500Y288500D01*
X338800Y305700D02*
X441300D01*
X325900Y308400D02*
X336700Y297600D01*
X439557D01*
X458500Y278657D01*
X419100Y201652D02*
X444252Y176500D01*
X175900Y218400D02*
X278300D01*
X296700Y236800D01*
Y266200D01*
X325600Y295100D01*
X253100Y189900D02*
X420852D01*
X434252Y176500D01*
X423900Y430659D02*
X455500Y399059D01*
X423900Y430659D02*
Y456785D01*
X417000Y463685D02*
X423900Y456785D01*
X140421Y308500D02*
X145421Y303500D01*
X132800Y308500D02*
X140421D01*
X131600Y307300D02*
X132800Y308500D01*
X131600Y274243D02*
Y307300D01*
Y274243D02*
X156000Y249843D01*
X184343Y388000D02*
X204500D01*
X242000Y350500D01*
X150748Y176500D02*
X155548Y171700D01*
X260400D01*
X270000Y181300D01*
X389200D01*
X394000Y176500D01*
X167842Y434815D02*
X168500Y434157D01*
X115500Y434815D02*
X167842D01*
X191000Y166500D02*
X204500Y153000D01*
X396248D01*
X409748Y166500D01*
X404200Y176500D02*
X409748D01*
X399400Y171700D02*
X404200Y176500D01*
X388800Y171700D02*
X399400D01*
X384000Y176500D02*
X388800Y171700D01*
X395000Y422000D02*
X417000Y444000D01*
X386921Y422000D02*
X395000D01*
X156000Y240000D02*
X161606D01*
X176500Y225106D01*
X447500Y462988D02*
X464331Y446157D01*
X479500D01*
X135000Y367500D02*
X157846D01*
X118500Y351000D02*
X135000Y367500D01*
X356000Y366500D02*
X377079D01*
X342000Y380500D02*
X356000Y366500D01*
X223421Y470500D02*
X242000D01*
X211921Y459000D02*
X223421Y470500D01*
X135579Y303500D02*
X148379Y290700D01*
X179000D01*
X196000Y273700D01*
X262300D01*
X271500Y264500D01*
X188154Y341000D02*
X201154Y354000D01*
X118500Y341000D02*
X188154D01*
X417000Y463685D02*
X431998D01*
X432695Y462988D01*
X437500D01*
X404154Y460500D02*
X411654Y468000D01*
X442488D01*
X447500Y462988D01*
X201000Y166500D02*
X272500D01*
X281500Y157500D01*
X140748Y176500D02*
X150148Y185900D01*
X181600D01*
X191000Y176500D01*
X426000Y484606D02*
X440000D01*
X176500Y225106D02*
X190500D01*
X342000Y460500D02*
X360846D01*
X228654Y500500D02*
X242000D01*
X342000Y400500D02*
X360346D01*
X426000Y525394D02*
X440000D01*
X281500Y240500D02*
X292000D01*
X281500Y264500D02*
X292000D01*
D43*
X211921Y459000D02*
D03*
X377079Y366500D02*
D03*
Y422000D02*
D03*
X211921Y521500D02*
D03*
X377579Y480500D02*
D03*
X174500Y388000D02*
D03*
X135579Y303500D02*
D03*
D44*
X202079Y459000D02*
D03*
X386921Y366500D02*
D03*
X156000Y249843D02*
D03*
X386921Y422000D02*
D03*
X202079Y521500D02*
D03*
X387421Y480500D02*
D03*
X184343Y388000D02*
D03*
X145421Y303500D02*
D03*
D45*
X201154Y367500D02*
D03*
X157846D02*
D03*
Y354000D02*
D03*
X201154D02*
D03*
X403654Y334000D02*
D03*
X360346D02*
D03*
Y346500D02*
D03*
X403654D02*
D03*
X292000Y240500D02*
D03*
X335307D02*
D03*
X292000Y264500D02*
D03*
X335307D02*
D03*
X404154Y460500D02*
D03*
X360846D02*
D03*
X360346Y445000D02*
D03*
X403654D02*
D03*
Y400500D02*
D03*
X360346D02*
D03*
X403654Y386500D02*
D03*
X360346D02*
D03*
X185346Y424000D02*
D03*
X228654D02*
D03*
X185346Y438000D02*
D03*
X228654D02*
D03*
X185346Y500500D02*
D03*
X228654D02*
D03*
Y486500D02*
D03*
X185346D02*
D03*
X120346Y466500D02*
D03*
X163654D02*
D03*
D46*
X168500Y434157D02*
D03*
Y453843D02*
D03*
X115500Y434815D02*
D03*
Y454500D02*
D03*
X417000Y444000D02*
D03*
Y463685D02*
D03*
X479500Y446157D02*
D03*
Y465843D02*
D03*
D47*
X457500Y462988D02*
D03*
D48*
X447500D02*
D03*
X437500D02*
D03*
D49*
X440000Y525394D02*
D03*
X176500Y225106D02*
D03*
X426000Y484606D02*
D03*
X190500Y225106D02*
D03*
D50*
X440000Y484606D02*
D03*
X176500Y265894D02*
D03*
X426000Y525394D02*
D03*
X190500Y265894D02*
D03*
D51*
X156000Y240000D02*
D03*
D52*
X342000Y350500D02*
D03*
X384000Y166500D02*
D03*
X409748D02*
D03*
X434252D02*
D03*
X165252D02*
D03*
X140748D02*
D03*
X191000D02*
D03*
D53*
X342000Y360500D02*
D03*
Y370500D02*
D03*
Y380500D02*
D03*
Y390500D02*
D03*
Y400500D02*
D03*
Y410500D02*
D03*
Y420500D02*
D03*
Y430500D02*
D03*
Y440500D02*
D03*
Y450500D02*
D03*
Y460500D02*
D03*
Y470500D02*
D03*
Y480500D02*
D03*
Y490500D02*
D03*
Y500500D02*
D03*
Y510500D02*
D03*
Y520500D02*
D03*
Y530500D02*
D03*
X242000D02*
D03*
Y520500D02*
D03*
Y510500D02*
D03*
Y500500D02*
D03*
Y490500D02*
D03*
Y480500D02*
D03*
Y470500D02*
D03*
Y460500D02*
D03*
Y450500D02*
D03*
Y440500D02*
D03*
Y430500D02*
D03*
Y420500D02*
D03*
Y410500D02*
D03*
Y400500D02*
D03*
Y390500D02*
D03*
Y380500D02*
D03*
Y370500D02*
D03*
Y360500D02*
D03*
Y350500D02*
D03*
X394000Y176500D02*
D03*
Y166500D02*
D03*
X384000Y176500D02*
D03*
X419748D02*
D03*
Y166500D02*
D03*
X409748Y176500D02*
D03*
X444252D02*
D03*
Y166500D02*
D03*
X434252Y176500D02*
D03*
X175252D02*
D03*
Y166500D02*
D03*
X165252Y176500D02*
D03*
X150748D02*
D03*
Y166500D02*
D03*
X140748Y176500D02*
D03*
X201000D02*
D03*
Y166500D02*
D03*
X191000Y176500D02*
D03*
D54*
X118500Y331000D02*
D03*
D55*
Y341000D02*
D03*
Y351000D02*
D03*
D56*
X271500Y264500D02*
D03*
Y240500D02*
D03*
D57*
X281500Y264500D02*
D03*
Y240500D02*
D03*
D58*
Y157500D02*
D03*
D59*
X291500D02*
D03*
X301500D02*
D03*
X311500D02*
D03*
D60*
X117500Y511000D02*
D03*
Y182500D02*
D03*
X467000Y511000D02*
D03*
Y182500D02*
D03*
D61*
X134900Y171700D02*
D03*
X124400Y249300D02*
D03*
X139600Y286500D02*
D03*
X471500Y392200D02*
D03*
X224000Y320000D02*
D03*
X190800Y287700D02*
D03*
X346800Y289900D02*
D03*
X301500Y244600D02*
D03*
X332700Y341100D02*
D03*
X338800Y305700D02*
D03*
X325900Y308400D02*
D03*
X419100Y201652D02*
D03*
X175900Y218400D02*
D03*
X325600Y295100D02*
D03*
X253100Y189900D02*
D03*
X121000Y424000D02*
D03*
X116908Y428092D02*
D03*
M02*
