G04*
G04 #@! TF.GenerationSoftware,Altium Limited,Altium Designer,23.8.1 (32)*
G04*
G04 Layer_Color=128*
%FSLAX25Y25*%
%MOIN*%
G70*
G04*
G04 #@! TF.SameCoordinates,C7E29C90-252A-4D1B-ADA4-5BBD7A111965*
G04*
G04*
G04 #@! TF.FilePolarity,Positive*
G04*
G01*
G75*
%ADD10C,0.00500*%
D10*
X210445Y459000D02*
X213398D01*
X211921Y457524D02*
Y460476D01*
X200602Y459000D02*
X203555D01*
X202079Y457524D02*
Y460476D01*
X199579Y367500D02*
X202728D01*
X201154Y365925D02*
Y369075D01*
X156272Y367500D02*
X159421D01*
X157846Y365925D02*
Y369075D01*
X156272Y354000D02*
X159421D01*
X157846Y352425D02*
Y355575D01*
X199579Y354000D02*
X202728D01*
X201154Y352425D02*
Y355575D01*
X375602Y366500D02*
X378555D01*
X377079Y365024D02*
Y367976D01*
X385445Y366500D02*
X388398D01*
X386921Y365024D02*
Y367976D01*
X402079Y334000D02*
X405228D01*
X403654Y332425D02*
Y335575D01*
X358772Y334000D02*
X361921D01*
X360346Y332425D02*
Y335575D01*
X358772Y346500D02*
X361921D01*
X360346Y344925D02*
Y348075D01*
X402079Y346500D02*
X405228D01*
X403654Y344925D02*
Y348075D01*
X166925Y434157D02*
X170075D01*
X168500Y432583D02*
Y435732D01*
X166925Y453843D02*
X170075D01*
X168500Y452268D02*
Y455417D01*
X113925Y434815D02*
X117075D01*
X115500Y433240D02*
Y436390D01*
X113925Y454500D02*
X117075D01*
X115500Y452925D02*
Y456075D01*
X290425Y240500D02*
X293575D01*
X292000Y238925D02*
Y242075D01*
X333732Y240500D02*
X336882D01*
X335307Y238925D02*
Y242075D01*
X290425Y264500D02*
X293575D01*
X292000Y262925D02*
Y266075D01*
X333732Y264500D02*
X336882D01*
X335307Y262925D02*
Y266075D01*
X455394Y462988D02*
X459606D01*
X457500Y460882D02*
Y465095D01*
X445394Y462988D02*
X449606D01*
X447500Y460882D02*
Y465095D01*
X435394Y462988D02*
X439606D01*
X437500Y460882D02*
Y465095D01*
X437913Y525394D02*
X442087D01*
X440000Y523307D02*
Y527480D01*
X437913Y484606D02*
X442087D01*
X440000Y482520D02*
Y486693D01*
X456550Y349686D02*
X460450D01*
X458500Y347736D02*
Y351636D01*
X456550Y339843D02*
X460450D01*
X458500Y337893D02*
Y341793D01*
X456550Y330000D02*
X460450D01*
X458500Y328050D02*
Y331950D01*
X452750Y215161D02*
X458250D01*
X455500Y212411D02*
Y217911D01*
X452750Y228941D02*
X458250D01*
X455500Y226191D02*
Y231691D01*
X452750Y242720D02*
X458250D01*
X455500Y239970D02*
Y245470D01*
X452750Y256500D02*
X458250D01*
X455500Y253750D02*
Y259250D01*
X456550Y308185D02*
X460450D01*
X458500Y306235D02*
Y310135D01*
X456550Y298343D02*
X460450D01*
X458500Y296393D02*
Y300293D01*
X456550Y288500D02*
X460450D01*
X458500Y286550D02*
Y290450D01*
X456550Y278657D02*
X460450D01*
X458500Y276707D02*
Y280607D01*
X154524Y240000D02*
X157476D01*
X156000Y238524D02*
Y241476D01*
X154524Y249843D02*
X157476D01*
X156000Y248366D02*
Y251319D01*
X174413Y225106D02*
X178587D01*
X176500Y223020D02*
Y227193D01*
X174413Y265894D02*
X178587D01*
X176500Y263807D02*
Y267980D01*
X402579Y460500D02*
X405728D01*
X404154Y458925D02*
Y462075D01*
X359272Y460500D02*
X362421D01*
X360846Y458925D02*
Y462075D01*
X358772Y445000D02*
X361921D01*
X360346Y443425D02*
Y446575D01*
X402079Y445000D02*
X405228D01*
X403654Y443425D02*
Y446575D01*
X375602Y422000D02*
X378555D01*
X377079Y420524D02*
Y423476D01*
X385445Y422000D02*
X388398D01*
X386921Y420524D02*
Y423476D01*
X402079Y400500D02*
X405228D01*
X403654Y398925D02*
Y402075D01*
X358772Y400500D02*
X361921D01*
X360346Y398925D02*
Y402075D01*
X402079Y386500D02*
X405228D01*
X403654Y384925D02*
Y388075D01*
X358772Y386500D02*
X361921D01*
X360346Y384925D02*
Y388075D01*
X183772Y424000D02*
X186921D01*
X185346Y422425D02*
Y425575D01*
X227079Y424000D02*
X230228D01*
X228654Y422425D02*
Y425575D01*
X183772Y438000D02*
X186921D01*
X185346Y436425D02*
Y439575D01*
X227079Y438000D02*
X230228D01*
X228654Y436425D02*
Y439575D01*
X183772Y500500D02*
X186921D01*
X185346Y498925D02*
Y502075D01*
X227079Y500500D02*
X230228D01*
X228654Y498925D02*
Y502075D01*
X227079Y486500D02*
X230228D01*
X228654Y484925D02*
Y488075D01*
X183772Y486500D02*
X186921D01*
X185346Y484925D02*
Y488075D01*
X210445Y521500D02*
X213398D01*
X211921Y520024D02*
Y522976D01*
X200602Y521500D02*
X203555D01*
X202079Y520024D02*
Y522976D01*
X339992Y350500D02*
X344008D01*
X342000Y348492D02*
Y352508D01*
X339992Y360500D02*
X344008D01*
X342000Y358492D02*
Y362508D01*
X339992Y370500D02*
X344008D01*
X342000Y368492D02*
Y372508D01*
X339992Y380500D02*
X344008D01*
X342000Y378492D02*
Y382508D01*
X339992Y390500D02*
X344008D01*
X342000Y388492D02*
Y392508D01*
X339992Y400500D02*
X344008D01*
X342000Y398492D02*
Y402508D01*
X339992Y410500D02*
X344008D01*
X342000Y408492D02*
Y412508D01*
X339992Y420500D02*
X344008D01*
X342000Y418492D02*
Y422508D01*
X339992Y430500D02*
X344008D01*
X342000Y428492D02*
Y432508D01*
X339992Y440500D02*
X344008D01*
X342000Y438492D02*
Y442508D01*
X339992Y450500D02*
X344008D01*
X342000Y448492D02*
Y452508D01*
X339992Y460500D02*
X344008D01*
X342000Y458492D02*
Y462508D01*
X339992Y470500D02*
X344008D01*
X342000Y468492D02*
Y472508D01*
X339992Y480500D02*
X344008D01*
X342000Y478492D02*
Y482508D01*
X339992Y490500D02*
X344008D01*
X342000Y488492D02*
Y492508D01*
X339992Y500500D02*
X344008D01*
X342000Y498492D02*
Y502508D01*
X339992Y510500D02*
X344008D01*
X342000Y508492D02*
Y512508D01*
X339992Y520500D02*
X344008D01*
X342000Y518492D02*
Y522508D01*
X339992Y530500D02*
X344008D01*
X342000Y528492D02*
Y532508D01*
X239992Y530500D02*
X244008D01*
X242000Y528492D02*
Y532508D01*
X239992Y520500D02*
X244008D01*
X242000Y518492D02*
Y522508D01*
X239992Y510500D02*
X244008D01*
X242000Y508492D02*
Y512508D01*
X239992Y500500D02*
X244008D01*
X242000Y498492D02*
Y502508D01*
X239992Y490500D02*
X244008D01*
X242000Y488492D02*
Y492508D01*
X239992Y480500D02*
X244008D01*
X242000Y478492D02*
Y482508D01*
X239992Y470500D02*
X244008D01*
X242000Y468492D02*
Y472508D01*
X239992Y460500D02*
X244008D01*
X242000Y458492D02*
Y462508D01*
X239992Y450500D02*
X244008D01*
X242000Y448492D02*
Y452508D01*
X239992Y440500D02*
X244008D01*
X242000Y438492D02*
Y442508D01*
X239992Y430500D02*
X244008D01*
X242000Y428492D02*
Y432508D01*
X239992Y420500D02*
X244008D01*
X242000Y418492D02*
Y422508D01*
X239992Y410500D02*
X244008D01*
X242000Y408492D02*
Y412508D01*
X239992Y400500D02*
X244008D01*
X242000Y398492D02*
Y402508D01*
X239992Y390500D02*
X244008D01*
X242000Y388492D02*
Y392508D01*
X239992Y380500D02*
X244008D01*
X242000Y378492D02*
Y382508D01*
X239992Y370500D02*
X244008D01*
X242000Y368492D02*
Y372508D01*
X239992Y360500D02*
X244008D01*
X242000Y358492D02*
Y362508D01*
X239992Y350500D02*
X244008D01*
X242000Y348492D02*
Y352508D01*
X391992Y176500D02*
X396008D01*
X394000Y174492D02*
Y178508D01*
X391992Y166500D02*
X396008D01*
X394000Y164492D02*
Y168508D01*
X381992Y176500D02*
X386008D01*
X384000Y174492D02*
Y178508D01*
X381992Y166500D02*
X386008D01*
X384000Y164492D02*
Y168508D01*
X417740Y176500D02*
X421756D01*
X419748Y174492D02*
Y178508D01*
X417740Y166500D02*
X421756D01*
X419748Y164492D02*
Y168508D01*
X407740Y176500D02*
X411756D01*
X409748Y174492D02*
Y178508D01*
X407740Y166500D02*
X411756D01*
X409748Y164492D02*
Y168508D01*
X442244Y176500D02*
X446260D01*
X444252Y174492D02*
Y178508D01*
X442244Y166500D02*
X446260D01*
X444252Y164492D02*
Y168508D01*
X432244Y176500D02*
X436260D01*
X434252Y174492D02*
Y178508D01*
X432244Y166500D02*
X436260D01*
X434252Y164492D02*
Y168508D01*
X173244Y176500D02*
X177260D01*
X175252Y174492D02*
Y178508D01*
X173244Y166500D02*
X177260D01*
X175252Y164492D02*
Y168508D01*
X163244Y176500D02*
X167260D01*
X165252Y174492D02*
Y178508D01*
X163244Y166500D02*
X167260D01*
X165252Y164492D02*
Y168508D01*
X148740Y176500D02*
X152756D01*
X150748Y174492D02*
Y178508D01*
X148740Y166500D02*
X152756D01*
X150748Y164492D02*
Y168508D01*
X138740Y176500D02*
X142756D01*
X140748Y174492D02*
Y178508D01*
X138740Y166500D02*
X142756D01*
X140748Y164492D02*
Y168508D01*
X198992Y176500D02*
X203008D01*
X201000Y174492D02*
Y178508D01*
X198992Y166500D02*
X203008D01*
X201000Y164492D02*
Y168508D01*
X188992Y176500D02*
X193008D01*
X191000Y174492D02*
Y178508D01*
X188992Y166500D02*
X193008D01*
X191000Y164492D02*
Y168508D01*
X376102Y480500D02*
X379055D01*
X377579Y479024D02*
Y481976D01*
X385945Y480500D02*
X388898D01*
X387421Y479024D02*
Y481976D01*
X423913Y484606D02*
X428087D01*
X426000Y482520D02*
Y486693D01*
X423913Y525394D02*
X428087D01*
X426000Y523307D02*
Y527480D01*
X415425Y444000D02*
X418575D01*
X417000Y442425D02*
Y445575D01*
X415425Y463685D02*
X418575D01*
X417000Y462110D02*
Y465260D01*
X477925Y446157D02*
X481075D01*
X479500Y444583D02*
Y447732D01*
X477925Y465843D02*
X481075D01*
X479500Y464268D02*
Y467417D01*
X116059Y331000D02*
X120941D01*
X118500Y328559D02*
Y333441D01*
X116059Y341000D02*
X120941D01*
X118500Y338559D02*
Y343441D01*
X116059Y351000D02*
X120941D01*
X118500Y348559D02*
Y353441D01*
X173024Y388000D02*
X175976D01*
X174500Y386524D02*
Y389476D01*
X182866Y388000D02*
X185819D01*
X184343Y386524D02*
Y389476D01*
X134102Y303500D02*
X137055D01*
X135579Y302024D02*
Y304976D01*
X143945Y303500D02*
X146898D01*
X145421Y302024D02*
Y304976D01*
X188413Y225106D02*
X192587D01*
X190500Y223020D02*
Y227193D01*
X188413Y265894D02*
X192587D01*
X190500Y263807D02*
Y267980D01*
X452750Y371500D02*
X458250D01*
X455500Y368750D02*
Y374250D01*
X452750Y385280D02*
X458250D01*
X455500Y382530D02*
Y388030D01*
X452750Y399059D02*
X458250D01*
X455500Y396309D02*
Y401809D01*
X452750Y412839D02*
X458250D01*
X455500Y410089D02*
Y415589D01*
X269728Y264500D02*
X273272D01*
X271500Y262728D02*
Y266272D01*
X279728Y264500D02*
X283272D01*
X281500Y262728D02*
Y266272D01*
X269728Y240500D02*
X273272D01*
X271500Y238728D02*
Y242272D01*
X279728Y240500D02*
X283272D01*
X281500Y238728D02*
Y242272D01*
X279492Y157500D02*
X283508D01*
X281500Y155492D02*
Y159508D01*
X289492Y157500D02*
X293508D01*
X291500Y155492D02*
Y159508D01*
X299492Y157500D02*
X303508D01*
X301500Y155492D02*
Y159508D01*
X309492Y157500D02*
X313508D01*
X311500Y155492D02*
Y159508D01*
X110610Y511000D02*
X124390D01*
X117500Y504110D02*
Y517890D01*
X110610Y182500D02*
X124390D01*
X117500Y175610D02*
Y189390D01*
X460110Y511000D02*
X473890D01*
X467000Y504110D02*
Y517890D01*
X460110Y182500D02*
X473890D01*
X467000Y175610D02*
Y189390D01*
X118772Y466500D02*
X121921D01*
X120346Y464925D02*
Y468075D01*
X162079Y466500D02*
X165228D01*
X163654Y464925D02*
Y468075D01*
X133500Y171700D02*
X136300D01*
X134900Y170300D02*
Y173100D01*
X123000Y249300D02*
X125800D01*
X124400Y247900D02*
Y250700D01*
X138200Y286500D02*
X141000D01*
X139600Y285100D02*
Y287900D01*
X470100Y392200D02*
X472900D01*
X471500Y390800D02*
Y393600D01*
X222600Y320000D02*
X225400D01*
X224000Y318600D02*
Y321400D01*
X189400Y287700D02*
X192200D01*
X190800Y286300D02*
Y289100D01*
X345400Y289900D02*
X348200D01*
X346800Y288500D02*
Y291300D01*
X300100Y244600D02*
X302900D01*
X301500Y243200D02*
Y246000D01*
X331300Y341100D02*
X334100D01*
X332700Y339700D02*
Y342500D01*
X337400Y305700D02*
X340200D01*
X338800Y304300D02*
Y307100D01*
X324500Y308400D02*
X327300D01*
X325900Y307000D02*
Y309800D01*
X417700Y201652D02*
X420500D01*
X419100Y200252D02*
Y203052D01*
X174500Y218400D02*
X177300D01*
X175900Y217000D02*
Y219800D01*
X324200Y295100D02*
X327000D01*
X325600Y293700D02*
Y296500D01*
X251700Y189900D02*
X254500D01*
X253100Y188500D02*
Y191300D01*
X119600Y424000D02*
X122400D01*
X121000Y422600D02*
Y425400D01*
X115508Y428092D02*
X118308D01*
X116908Y426692D02*
Y429492D01*
M02*
